{"glyphs":{"0":{"ha":893,"x_min":31,"x_max":861,"o":"m 31 394 q 84 182 31 276 q 233 34 138 88 q 446 -19 328 -19 q 660 34 565 -19 q 808 183 754 88 q 861 397 861 278 q 808 607 861 514 q 660 752 754 700 q 447 804 565 804 q 233 751 328 804 q 84 605 138 699 q 31 394 31 511 m 246 399 q 302 561 246 497 q 446 625 358 625 q 551 595 504 625 q 623 513 597 565 q 649 393 649 460 q 623 274 649 328 q 551 191 597 221 q 447 161 504 161 q 343 192 389 161 q 272 276 297 222 q 246 399 246 331 z "},"1":{"ha":561,"x_min":14,"x_max":475,"o":"m 329 786 l 14 649 l 97 479 l 257 544 l 257 0 l 475 0 l 475 786 l 329 786 z "},"2":{"ha":683,"x_min":35,"x_max":656,"o":"m 321 804 q 53 732 174 804 l 85 557 q 193 606 133 585 q 308 628 253 628 q 405 606 369 628 q 440 542 440 583 q 407 465 440 504 q 306 368 374 425 l 35 135 l 35 0 l 656 0 l 639 168 l 338 168 l 432 247 q 583 404 538 336 q 629 560 629 472 q 547 740 629 676 q 321 804 464 804 z "},"3":{"ha":708,"x_min":0,"x_max":671,"o":"m 339 804 q 28 704 164 804 l 131 558 q 324 628 235 628 q 410 605 379 628 q 440 547 440 582 q 398 478 440 504 q 285 453 356 453 l 182 453 l 204 282 l 306 282 q 418 253 379 282 q 457 171 457 224 q 418 97 457 125 q 322 68 379 68 q 220 83 268 68 q 114 135 172 99 l 0 -10 q 160 -81 74 -54 q 321 -107 246 -107 q 504 -72 425 -107 q 627 26 583 -36 q 671 168 671 89 q 633 297 671 238 q 547 378 594 357 q 622 452 588 399 q 656 560 656 506 q 617 685 656 629 q 508 772 579 740 q 339 804 436 804 z "},"4":{"ha":814,"x_min":14,"x_max":786,"o":"m 644 793 l 482 793 l 14 246 l 40 78 l 426 78 l 426 -92 l 644 -92 l 644 78 l 771 78 l 786 253 l 644 253 l 644 793 m 261 253 l 426 457 l 426 253 l 261 253 z "},"5":{"ha":726,"x_min":31,"x_max":694,"o":"m 283 268 q 320 311 293 292 q 385 331 347 331 q 467 297 435 331 q 499 210 499 264 q 457 113 499 149 q 351 76 415 76 q 250 92 297 76 q 139 142 203 107 l 31 -11 q 185 -81 99 -54 q 347 -108 272 -108 q 531 -68 453 -108 q 652 44 610 -28 q 694 210 694 117 q 660 358 694 290 q 558 467 626 426 q 396 508 490 508 q 301 486 342 508 l 306 614 l 628 614 l 650 786 l 122 786 l 97 268 l 283 268 z "},"6":{"ha":772,"x_min":31,"x_max":740,"o":"m 417 556 q 583 519 510 556 q 699 417 657 482 q 740 271 740 351 q 700 121 740 186 q 585 19 660 56 q 414 -18 511 -18 q 215 26 303 -18 q 79 154 128 71 q 31 350 31 238 q 126 639 31 524 q 356 811 221 754 q 622 881 490 868 l 647 689 q 440 631 525 664 q 303 532 356 599 q 417 556 358 556 m 408 158 q 492 193 457 158 q 528 278 528 228 q 491 367 528 331 q 399 403 454 403 q 249 350 321 403 q 294 208 251 258 q 408 158 338 158 z "},"7":{"ha":689,"x_min":14,"x_max":661,"o":"m 611 786 l 14 786 l 38 614 l 424 614 l 169 -44 l 381 -101 l 661 700 l 611 786 z "},"8":{"ha":756,"x_min":31,"x_max":724,"o":"m 379 893 q 217 860 289 893 q 104 771 144 828 q 64 642 64 714 q 92 546 64 592 q 167 474 121 500 q 71 387 111 446 q 31 265 31 328 q 73 118 31 182 q 194 18 115 54 q 379 -18 274 -18 q 563 19 485 -18 q 682 120 640 56 q 724 265 724 185 q 684 386 724 328 q 589 472 644 444 q 663 546 635 500 q 692 642 692 592 q 651 771 692 714 q 539 860 610 828 q 379 893 468 893 m 376 715 q 450 691 422 715 q 478 635 478 667 q 452 571 478 597 q 379 538 426 544 q 304 570 331 544 q 278 632 278 596 q 306 690 278 664 q 376 715 333 715 m 379 396 q 476 349 440 386 q 513 269 513 313 q 471 191 513 224 q 378 158 429 158 q 285 190 325 158 q 244 269 244 222 q 280 350 244 314 q 379 396 315 386 z "},"9":{"ha":772,"x_min":31,"x_max":740,"o":"m 357 804 q 556 760 469 804 q 692 632 643 715 q 740 436 740 549 q 645 147 740 263 q 415 -25 550 32 q 149 -94 281 -82 l 124 97 q 331 155 246 122 q 468 254 415 188 q 354 231 413 231 q 188 268 263 231 q 72 370 114 306 q 31 515 31 435 q 72 665 31 600 q 186 767 113 731 q 357 804 260 804 m 243 508 q 281 419 243 456 q 374 383 318 383 q 522 435 449 383 q 477 578 519 528 q 364 628 435 628 q 278 593 314 628 q 243 508 243 558 z "},"\r":{"ha":0,"x_min":0,"x_max":0,"o":""}," ":{"ha":308,"x_min":0,"x_max":0,"o":""},"\u0000":{"ha":0,"x_min":0,"x_max":0,"o":""}," ":{"ha":317,"x_min":0,"x_max":0,"o":""},"‌":{"ha":0,"x_min":-42,"x_max":42,"o":"m 42 1718 l -42 1718 l -42 -94 l 42 -94 l 42 1718 z "},"‍":{"ha":0,"x_min":-157,"x_max":158,"o":"m -157 1778 l -54 1675 l -157 1572 l -103 1518 l -42 1578 l -42 -94 l 42 -94 l 42 1579 l 104 1518 l 158 1572 l 56 1675 l 158 1778 l 103 1833 l 0 1731 l -101 1833 l -157 1778 z "},"◌":{"ha":840,"x_min":63,"x_max":778,"o":"m 419 638 q 449 649 438 638 q 460 678 460 660 q 449 708 460 696 q 419 719 438 719 q 390 708 401 719 q 379 678 379 696 q 390 649 379 660 q 419 638 401 638 m 296 697 q 267 686 278 697 q 256 657 256 675 q 267 628 256 639 q 296 617 278 617 q 325 628 314 617 q 336 657 336 639 q 325 686 336 675 q 296 697 314 697 m 544 617 q 574 628 563 617 q 585 657 585 639 q 574 686 585 675 q 544 697 563 697 q 515 686 526 697 q 504 657 504 675 q 515 628 504 639 q 544 617 526 617 m 190 628 q 160 616 172 628 q 149 586 149 604 q 160 557 149 568 q 190 546 172 546 q 219 557 208 546 q 231 586 231 568 q 219 616 231 604 q 190 628 208 628 m 650 546 q 680 557 668 546 q 692 586 692 568 q 680 616 692 604 q 650 628 668 628 q 621 616 632 628 q 610 586 610 604 q 621 557 610 568 q 650 546 632 546 m 124 518 q 94 506 106 518 q 82 476 82 494 q 94 447 82 458 q 124 436 106 436 q 153 447 142 436 q 164 476 164 458 q 153 506 164 494 q 124 518 142 518 m 717 436 q 746 447 735 436 q 757 476 757 458 q 746 506 757 494 q 717 518 735 518 q 688 506 699 518 q 676 476 676 494 q 688 447 676 458 q 717 436 699 436 m 104 399 q 74 387 86 399 q 63 357 63 375 q 74 328 63 339 q 104 318 86 318 q 133 328 122 318 q 144 357 144 339 q 133 387 144 375 q 104 399 122 399 m 736 318 q 766 328 754 318 q 778 357 778 339 q 766 387 778 375 q 736 399 754 399 q 707 387 718 399 q 696 357 696 375 q 707 328 696 339 q 736 318 718 318 m 124 282 q 94 271 106 282 q 82 242 82 260 q 94 213 82 224 q 124 201 106 201 q 153 213 142 201 q 164 242 164 224 q 153 271 164 260 q 124 282 142 282 m 717 201 q 746 213 735 201 q 757 242 757 224 q 746 271 757 260 q 717 282 735 282 q 688 271 699 282 q 676 242 676 260 q 688 213 676 224 q 717 201 699 201 m 189 171 q 159 160 171 171 q 147 131 147 149 q 159 101 147 113 q 189 90 171 90 q 218 101 207 90 q 229 131 229 113 q 218 160 229 149 q 189 171 207 171 m 651 90 q 681 101 669 90 q 693 131 693 113 q 681 160 693 149 q 651 171 669 171 q 622 160 633 171 q 611 131 611 149 q 622 101 611 113 q 651 90 633 90 m 296 103 q 267 91 278 103 q 256 61 256 79 q 267 32 256 43 q 296 21 278 21 q 325 32 314 21 q 336 61 336 43 q 325 91 336 79 q 296 103 314 103 m 544 21 q 574 32 563 21 q 585 61 585 43 q 574 91 585 79 q 544 103 563 103 q 515 91 526 103 q 504 61 504 79 q 515 32 504 43 q 544 21 526 21 m 419 0 q 449 11 438 0 q 460 40 460 22 q 449 70 460 58 q 419 82 438 82 q 390 70 401 82 q 379 40 379 58 q 390 11 379 22 q 419 0 401 0 z "},"A":{"ha":951,"x_min":14,"x_max":938,"o":"m 231 0 l 304 204 l 647 204 l 724 -14 l 938 11 l 579 944 l 375 944 l 14 0 l 231 0 m 472 669 l 583 376 l 365 376 l 472 669 z "},"B":{"ha":885,"x_min":114,"x_max":854,"o":"m 486 0 q 751 70 649 0 q 854 281 854 140 q 817 411 854 354 q 718 507 781 468 q 813 676 813 590 q 716 878 813 813 q 463 944 619 944 l 114 944 l 114 0 l 486 0 m 444 769 q 586 668 586 769 q 541 597 586 621 q 425 574 496 574 l 331 574 l 331 769 l 444 769 m 488 400 q 591 369 553 400 q 629 282 629 338 q 589 202 629 231 q 482 174 549 174 l 331 174 l 331 400 l 488 400 z "},"C":{"ha":806,"x_min":44,"x_max":789,"o":"m 779 893 q 650 944 724 926 q 515 963 576 963 q 271 899 378 963 q 104 724 164 836 q 44 468 44 611 q 100 217 44 328 q 262 44 156 107 q 515 -18 368 -18 q 659 -1 582 -18 q 789 47 736 17 l 707 208 q 514 161 613 161 q 389 201 444 161 q 301 310 333 240 q 269 469 269 381 q 303 634 269 563 q 392 744 336 706 q 514 783 449 783 q 602 775 565 783 q 714 743 639 767 l 779 893 z "},"D":{"ha":993,"x_min":114,"x_max":949,"o":"m 506 0 q 740 58 640 0 q 894 224 840 117 q 949 478 949 332 q 899 720 949 615 q 749 885 849 825 q 508 944 650 944 l 114 944 l 114 0 l 506 0 m 506 768 q 668 690 613 768 q 724 478 724 613 q 663 250 724 325 q 496 175 601 175 l 331 175 l 331 768 l 506 768 z "},"E":{"ha":819,"x_min":114,"x_max":792,"o":"m 331 169 l 331 390 l 657 390 l 631 561 l 331 561 l 331 774 l 736 774 l 710 944 l 114 944 l 114 0 l 792 0 l 765 169 l 331 169 z "},"F":{"ha":742,"x_min":114,"x_max":714,"o":"m 331 774 l 714 774 l 689 943 l 114 943 l 114 0 l 331 0 l 331 378 l 649 378 l 624 549 l 331 549 l 331 774 z "},"G":{"ha":900,"x_min":44,"x_max":842,"o":"m 646 172 q 533 161 582 161 q 401 197 461 161 q 306 301 342 232 q 269 469 269 371 q 309 641 269 569 q 413 748 349 713 q 550 783 478 783 q 647 774 603 783 q 764 743 692 765 l 829 893 q 693 944 775 926 q 547 963 611 963 q 292 901 407 963 q 110 726 176 839 q 44 468 44 614 q 104 214 44 324 q 274 43 164 104 q 532 -18 385 -18 q 701 1 614 -18 q 842 51 788 19 l 842 531 l 485 531 l 467 368 l 646 368 l 646 172 z "},"H":{"ha":1014,"x_min":114,"x_max":899,"o":"m 682 944 l 682 557 l 331 557 l 331 953 l 114 944 l 114 0 l 331 0 l 331 385 l 682 385 l 682 0 l 899 0 l 899 944 l 682 944 z "},"I":{"ha":446,"x_min":114,"x_max":331,"o":"m 114 944 l 114 0 l 331 0 l 331 944 l 114 944 z "},"J":{"ha":444,"x_min":14,"x_max":344,"o":"m 126 156 q 119 99 126 121 q 87 59 111 78 q 14 22 63 40 l 101 -144 q 247 -82 194 -114 q 322 -6 299 -50 q 344 106 344 38 l 344 944 l 126 944 l 126 156 z "},"K":{"ha":965,"x_min":114,"x_max":951,"o":"m 332 289 l 332 0 l 114 0 l 114 944 l 332 944 l 332 583 l 726 965 l 892 843 l 568 524 l 951 0 l 678 0 l 415 372 l 332 289 z "},"L":{"ha":779,"x_min":114,"x_max":765,"o":"m 331 944 l 114 944 l 114 0 l 765 0 l 740 169 l 331 169 l 331 944 z "},"M":{"ha":1090,"x_min":114,"x_max":975,"o":"m 757 0 l 975 0 l 975 944 l 836 944 l 561 547 l 258 944 l 114 944 l 114 0 l 331 0 l 331 515 l 519 278 l 606 290 l 757 500 l 757 0 z "},"N":{"ha":1054,"x_min":114,"x_max":939,"o":"m 731 0 l 939 0 l 939 944 l 722 944 l 722 374 l 322 944 l 114 944 l 114 0 l 331 0 l 331 564 l 731 0 z "},"O":{"ha":1042,"x_min":44,"x_max":997,"o":"m 521 965 q 274 900 382 964 q 105 724 165 836 q 44 468 44 611 q 102 221 44 332 q 267 45 160 110 q 521 -19 375 -19 q 768 45 660 -18 q 937 221 876 108 q 997 478 997 333 q 940 725 997 614 q 776 901 883 836 q 521 965 668 965 m 269 469 q 304 634 269 563 q 397 744 339 706 q 524 783 454 783 q 655 744 599 783 q 742 635 711 704 q 772 478 772 565 q 739 304 772 375 q 648 198 706 233 q 519 163 590 163 q 337 248 404 163 q 269 469 269 333 z "},"P":{"ha":875,"x_min":114,"x_max":843,"o":"m 450 301 q 645 337 556 301 q 789 444 735 372 q 843 622 843 517 q 792 801 843 729 q 656 909 742 874 q 463 944 569 944 l 114 944 l 114 0 l 331 0 l 331 301 l 450 301 m 456 769 q 574 731 532 769 q 617 617 617 692 q 572 513 615 551 q 458 475 528 475 l 331 475 l 331 769 l 456 769 z "},"Q":{"ha":1042,"x_min":44,"x_max":997,"o":"m 997 478 q 969 294 997 379 q 886 144 940 208 l 974 53 l 842 -61 l 747 33 q 521 -19 646 -18 q 267 45 375 -19 q 102 221 160 110 q 44 468 44 332 q 105 724 44 611 q 274 900 165 836 q 521 965 382 964 q 776 901 668 965 q 940 725 883 836 q 997 478 997 614 m 519 163 q 603 176 565 163 l 488 290 l 633 408 l 738 300 q 772 478 772 374 q 742 635 772 565 q 655 744 711 704 q 524 783 599 783 q 397 744 454 783 q 304 634 339 706 q 269 469 269 563 q 337 248 269 333 q 519 163 404 163 z "},"R":{"ha":933,"x_min":114,"x_max":919,"o":"m 331 0 l 331 328 l 500 328 l 676 0 l 919 0 l 699 389 q 804 490 765 426 q 843 638 843 554 q 736 867 843 790 q 463 944 629 944 l 114 944 l 114 0 l 331 0 m 456 769 q 575 736 533 769 q 617 633 617 703 q 573 535 617 571 q 458 500 529 500 l 331 500 l 331 769 l 456 769 z "},"S":{"ha":746,"x_min":44,"x_max":715,"o":"m 56 60 q 195 6 106 29 q 350 -18 285 -18 q 545 17 463 -18 q 672 113 628 51 q 715 251 715 174 q 675 380 715 324 q 582 473 635 436 q 429 568 529 510 q 383 593 406 583 q 297 648 324 625 q 269 701 269 671 q 302 760 269 739 q 386 782 335 782 q 479 771 436 782 q 589 732 522 760 l 656 890 q 526 944 600 924 q 383 964 453 964 q 204 930 281 964 q 87 837 128 896 q 44 703 46 778 q 85 575 44 632 q 180 481 126 518 q 328 386 233 443 q 369 363 356 369 q 462 303 433 325 q 490 254 490 281 q 453 190 490 214 q 346 165 415 165 q 228 185 294 165 q 118 229 163 206 l 56 60 z "},"T":{"ha":840,"x_min":14,"x_max":826,"o":"m 14 774 l 296 774 l 296 0 l 514 0 l 514 774 l 826 774 l 800 944 l 14 944 l 14 774 z "},"U":{"ha":1014,"x_min":100,"x_max":914,"o":"m 101 353 q 151 157 101 240 q 294 28 201 74 q 507 -18 386 -18 q 720 28 628 -18 q 863 157 813 74 q 914 353 914 240 l 914 944 l 696 944 l 696 365 q 644 215 696 267 q 507 163 593 163 q 369 214 421 163 q 318 365 318 265 l 318 944 l 100 944 l 101 353 z "},"V":{"ha":951,"x_min":14,"x_max":938,"o":"m 374 0 l 578 0 l 938 944 l 722 944 l 479 275 l 229 958 l 14 933 l 374 0 z "},"W":{"ha":1338,"x_min":14,"x_max":1324,"o":"m 843 0 l 669 640 l 501 0 l 297 0 l 14 933 l 229 958 l 403 275 l 563 944 l 779 944 l 949 275 l 1107 944 l 1324 944 l 1046 0 l 843 0 z "},"X":{"ha":940,"x_min":14,"x_max":925,"o":"m 660 0 l 917 0 l 603 475 l 925 944 l 674 944 l 478 644 l 251 976 l 36 906 l 343 474 l 14 0 l 257 0 l 469 306 l 660 0 z "},"Y":{"ha":876,"x_min":14,"x_max":863,"o":"m 863 944 l 638 944 l 425 578 l 224 964 l 14 904 l 318 371 l 318 0 l 535 0 l 535 365 l 863 944 z "},"Z":{"ha":807,"x_min":17,"x_max":788,"o":"m 783 783 l 760 944 l 57 944 l 79 774 l 528 774 l 17 160 l 42 0 l 788 0 l 765 169 l 261 169 l 783 783 z "},"a":{"ha":703,"x_min":51,"x_max":636,"o":"m 138 465 q 228 496 176 483 q 319 508 279 508 q 388 484 363 508 q 417 415 414 460 l 311 415 q 121 364 190 415 q 51 210 51 313 q 114 45 51 106 q 299 -15 176 -15 q 464 71 389 -15 l 515 0 l 636 0 l 636 429 q 601 567 636 507 q 500 661 565 628 q 350 694 435 694 q 206 676 286 694 q 79 632 125 657 l 138 465 m 235 211 q 256 264 235 243 q 313 285 278 285 l 418 285 l 418 203 q 300 150 361 150 q 253 168 271 150 q 235 211 235 186 z "},"b":{"ha":790,"x_min":86,"x_max":758,"o":"m 417 694 q 666 603 574 694 q 758 343 758 511 q 665 80 758 175 q 408 -15 571 -15 q 236 44 321 -15 l 197 0 l 86 0 l 86 965 l 303 981 l 303 671 q 417 694 357 694 m 399 158 q 497 209 460 158 q 535 342 535 260 q 497 472 535 425 q 393 519 460 519 q 303 488 350 519 l 303 188 q 399 158 351 158 z "},"c":{"ha":644,"x_min":31,"x_max":626,"o":"m 626 625 q 513 678 578 661 q 394 694 447 694 q 203 651 286 694 q 76 526 121 607 q 31 336 31 444 q 76 148 31 228 q 203 26 121 68 q 394 -15 286 -15 q 515 0 450 -15 q 626 53 579 15 l 565 206 q 483 174 519 183 q 408 164 447 164 q 299 211 343 164 q 256 336 256 258 q 299 464 256 414 q 408 514 343 514 q 483 505 449 514 q 565 474 518 496 l 626 625 z "},"d":{"ha":803,"x_min":31,"x_max":715,"o":"m 715 0 l 604 0 l 564 54 q 474 3 522 22 q 374 -15 425 -15 q 124 76 217 -15 q 31 336 31 168 q 125 599 31 504 q 382 694 219 694 q 497 667 439 694 l 497 965 l 715 981 l 715 0 m 256 338 q 293 206 256 254 q 397 158 331 158 q 497 197 443 158 l 497 485 q 392 519 447 519 q 293 469 331 519 q 256 338 256 419 z "},"e":{"ha":728,"x_min":31,"x_max":697,"o":"m 697 343 q 662 521 697 442 q 556 647 626 600 q 382 694 485 694 q 199 651 279 694 q 75 526 119 607 q 31 336 31 444 q 137 78 31 171 q 428 -15 243 -15 q 578 6 510 -15 q 694 61 647 26 l 633 213 q 443 160 539 160 q 265 278 296 160 l 697 278 l 697 343 m 263 401 q 299 484 268 453 q 376 515 331 515 q 453 484 425 515 q 490 401 482 453 l 263 401 z "},"f":{"ha":574,"x_min":15,"x_max":574,"o":"m 124 0 l 340 0 l 340 489 l 538 489 l 497 658 l 340 658 l 340 689 q 363 766 340 738 q 425 794 385 794 q 511 772 468 794 l 574 924 q 501 960 549 944 q 413 976 453 976 q 205 907 286 976 q 124 715 124 838 l 124 658 l 15 658 l 15 489 l 124 489 l 124 0 z "},"g":{"ha":797,"x_min":31,"x_max":715,"o":"m 715 -26 q 670 -182 715 -115 q 542 -284 625 -249 q 351 -319 460 -319 q 204 -299 296 -319 q 58 -242 113 -278 l 124 -89 q 339 -144 236 -144 q 453 -112 410 -144 q 497 -25 497 -79 l 497 13 q 374 -15 435 -15 q 124 76 217 -15 q 31 336 31 168 q 125 599 31 504 q 382 694 219 694 q 478 676 429 694 q 568 622 526 657 l 604 672 l 715 672 l 715 -26 m 397 158 q 497 197 443 158 l 497 485 q 392 519 447 519 q 293 469 331 519 q 256 338 256 419 q 293 206 256 254 q 397 158 331 158 z "},"h":{"ha":831,"x_min":86,"x_max":763,"o":"m 525 696 q 763 429 763 696 l 763 0 l 546 0 l 546 413 q 524 490 546 461 q 461 518 503 518 q 303 460 403 518 l 303 0 l 86 0 l 86 965 l 303 981 l 303 631 q 415 678 357 660 q 525 696 472 696 z "},"i":{"ha":363,"x_min":61,"x_max":301,"o":"m 181 767 q 266 802 231 767 q 301 886 301 838 q 266 972 301 936 q 181 1007 231 1007 q 97 972 132 1007 q 61 886 61 936 q 97 802 61 838 q 181 767 132 767 m 72 674 l 72 0 l 290 0 l 290 674 l 72 674 z "},"j":{"ha":392,"x_min":-11,"x_max":324,"o":"m 203 767 q 119 802 156 767 q 83 886 83 838 q 119 972 83 936 q 203 1007 154 1007 q 288 972 253 1007 q 324 886 324 936 q 288 802 324 838 q 203 767 253 767 m 313 -6 q 292 -123 313 -76 q 219 -204 271 -169 q 75 -269 168 -239 l -11 -110 q 59 -73 36 -93 q 88 -28 82 -53 q 94 35 94 -4 l 94 674 l 313 674 l 313 -6 z "},"k":{"ha":753,"x_min":86,"x_max":753,"o":"m 363 268 l 514 0 l 753 0 l 517 392 l 700 542 l 574 693 l 303 454 l 303 981 l 86 965 l 86 0 l 303 0 l 303 218 l 363 268 z "},"l":{"ha":390,"x_min":86,"x_max":303,"o":"m 86 965 l 86 0 l 303 0 l 303 981 l 86 965 z "},"m":{"ha":1235,"x_min":72,"x_max":1167,"o":"m 940 696 q 1114 630 1061 696 q 1167 442 1167 564 l 1167 0 l 950 0 l 950 413 q 934 491 950 464 q 875 518 918 518 q 810 502 846 518 q 729 460 774 486 l 729 442 l 729 0 l 513 0 l 513 413 q 497 491 513 464 q 438 518 481 518 q 372 502 408 518 q 290 460 335 486 l 290 0 l 72 0 l 72 674 l 207 674 l 244 603 q 374 670 306 644 q 501 696 442 696 q 692 608 638 696 q 817 672 751 647 q 940 696 882 696 z "},"n":{"ha":817,"x_min":72,"x_max":750,"o":"m 290 460 q 449 518 390 518 q 511 490 490 518 q 532 413 532 461 l 532 0 l 750 0 l 750 429 q 694 624 750 553 q 513 696 638 696 q 377 670 449 696 q 244 603 306 644 l 207 674 l 72 674 l 72 0 l 290 0 l 290 460 z "},"o":{"ha":804,"x_min":31,"x_max":774,"o":"m 774 336 q 726 149 774 228 q 593 27 678 69 q 400 -15 508 -15 q 207 26 290 -15 q 77 147 124 67 q 31 339 31 226 q 78 528 31 447 q 210 651 126 608 q 403 694 294 694 q 597 652 513 694 q 727 529 681 610 q 774 336 774 449 m 401 164 q 508 211 468 164 q 549 336 549 258 q 509 464 549 414 q 404 514 469 514 q 296 466 336 514 q 256 339 256 418 q 295 212 256 260 q 401 164 335 164 z "},"p":{"ha":785,"x_min":81,"x_max":753,"o":"m 411 694 q 660 603 568 694 q 753 343 753 511 q 659 80 753 175 q 403 -15 565 -15 q 297 7 353 -15 l 297 -290 l 81 -304 l 81 672 l 190 672 l 228 631 q 411 694 315 694 m 393 158 q 492 209 454 158 q 529 342 529 260 q 492 472 529 425 q 388 519 454 519 q 297 488 344 519 l 297 188 q 393 158 346 158 z "},"q":{"ha":797,"x_min":31,"x_max":715,"o":"m 715 -289 l 497 -304 l 497 13 q 374 -15 435 -15 q 124 76 217 -15 q 31 336 31 168 q 125 599 31 504 q 382 694 219 694 q 477 676 429 694 q 565 624 525 657 l 604 672 l 715 672 l 715 -289 m 397 158 q 497 197 443 158 l 497 485 q 392 519 447 519 q 293 469 331 519 q 256 338 256 419 q 293 206 256 254 q 397 158 331 158 z "},"r":{"ha":529,"x_min":72,"x_max":515,"o":"m 290 403 q 403 473 340 446 q 515 500 467 500 l 472 674 q 357 644 421 674 q 244 576 293 614 l 183 672 l 72 672 l 72 0 l 290 0 l 290 403 z "},"s":{"ha":607,"x_min":33,"x_max":575,"o":"m 33 58 q 160 3 81 21 q 294 -15 239 -15 q 503 42 432 -15 q 575 203 575 99 q 343 428 575 347 q 256 481 256 458 q 276 513 256 500 q 329 525 297 525 q 501 482 404 525 l 564 624 q 445 677 515 660 q 322 694 375 694 q 117 637 192 694 q 42 479 42 579 q 107 349 42 400 q 274 263 172 297 q 341 232 317 249 q 365 197 365 215 q 340 165 365 176 q 281 153 314 153 q 192 166 244 153 q 97 200 140 179 l 33 58 z "},"t":{"ha":582,"x_min":14,"x_max":565,"o":"m 328 863 l 111 829 l 111 658 l 14 658 l 14 489 l 111 489 l 111 235 q 193 46 111 113 q 403 -21 275 -21 q 493 -6 444 -21 q 565 29 542 10 l 503 181 q 417 158 460 158 q 351 188 375 158 q 328 264 328 217 l 328 489 l 517 489 l 478 658 l 328 658 l 328 863 z "},"u":{"ha":817,"x_min":67,"x_max":744,"o":"m 526 214 q 369 154 432 154 q 306 183 326 154 q 285 261 285 211 l 285 672 l 67 672 l 67 244 q 123 49 67 121 q 306 -24 179 -24 q 440 3 369 -24 q 572 69 510 29 l 624 -1 l 744 -1 l 744 672 l 526 672 l 526 214 z "},"v":{"ha":744,"x_min":21,"x_max":731,"o":"m 510 674 l 371 279 l 226 699 l 21 639 l 268 0 l 465 0 l 731 674 l 510 674 z "},"w":{"ha":1063,"x_min":14,"x_max":1049,"o":"m 828 674 l 736 288 l 635 674 l 415 674 l 321 288 l 219 699 l 14 639 l 218 0 l 410 0 l 522 381 l 638 0 l 829 0 l 1049 674 l 828 674 z "},"x":{"ha":742,"x_min":14,"x_max":728,"o":"m 475 0 l 717 0 l 499 319 l 728 674 l 489 674 l 368 485 l 233 694 l 26 640 l 238 339 l 14 0 l 257 0 l 368 174 l 475 0 z "},"y":{"ha":740,"x_min":14,"x_max":726,"o":"m 232 -17 q 175 -76 219 -50 q 58 -133 131 -103 l 132 -306 q 313 -223 231 -283 q 428 -83 396 -162 l 726 674 l 504 674 l 367 279 l 219 699 l 14 639 l 251 29 l 232 -17 z "},"z":{"ha":622,"x_min":14,"x_max":607,"o":"m 67 500 l 319 500 l 14 114 l 42 0 l 607 0 l 589 172 l 283 172 l 588 551 l 576 674 l 39 674 l 67 500 z "},"ﬁ":{"ha":936,"x_min":15,"x_max":875,"o":"m 124 0 l 340 0 l 340 489 l 538 489 l 497 658 l 340 658 l 340 689 q 363 766 340 738 q 425 794 385 794 q 511 772 468 794 l 574 924 q 501 960 549 944 q 413 976 453 976 q 205 907 286 976 q 124 715 124 838 l 124 658 l 15 658 l 15 489 l 124 489 l 124 0 m 754 767 q 840 802 804 767 q 875 886 875 838 q 840 972 875 936 q 754 1007 804 1007 q 670 972 706 1007 q 635 886 635 936 q 670 802 635 838 q 754 767 706 767 m 646 674 l 646 0 l 864 0 l 864 674 l 646 674 z "},"ﬂ":{"ha":964,"x_min":15,"x_max":876,"o":"m 124 0 l 340 0 l 340 489 l 538 489 l 497 658 l 340 658 l 340 689 q 363 766 340 738 q 425 794 385 794 q 511 772 468 794 l 574 924 q 501 960 549 944 q 413 976 453 976 q 205 907 286 976 q 124 715 124 838 l 124 658 l 15 658 l 15 489 l 124 489 l 124 0 m 660 965 l 660 0 l 876 0 l 876 981 l 660 965 z "},"`":{"ha":328,"x_min":14,"x_max":314,"o":"m 232 1069 l 14 1069 l 160 817 l 314 850 l 232 1069 z "},"¨":{"ha":514,"x_min":14,"x_max":500,"o":"m 118 838 q 190 867 161 838 q 219 940 219 896 q 190 1013 219 982 q 118 1043 161 1043 q 44 1013 75 1043 q 14 940 14 982 q 44 867 14 897 q 118 838 75 838 m 396 838 q 470 867 440 838 q 500 940 500 896 q 470 1013 500 982 q 396 1043 440 1043 q 324 1013 356 1043 q 293 940 293 982 q 324 867 293 897 q 396 838 354 838 z "},"¯":{"ha":411,"x_min":14,"x_max":397,"o":"m 383 1022 l 14 1022 l 14 851 l 397 851 l 383 1022 z "},"´":{"ha":328,"x_min":14,"x_max":314,"o":"m 96 1069 l 14 850 l 168 817 l 314 1069 l 96 1069 z "},"ˆ":{"ha":606,"x_min":14,"x_max":592,"o":"m 592 843 l 365 1069 l 240 1069 l 14 843 l 224 817 l 306 906 l 388 817 l 592 843 z "},"ˇ":{"ha":606,"x_min":14,"x_max":592,"o":"m 14 1044 l 240 817 l 365 817 l 592 1044 l 388 1069 l 306 982 l 224 1069 l 14 1044 z "},"˘":{"ha":483,"x_min":14,"x_max":469,"o":"m 318 1063 q 298 1000 318 1025 q 242 975 278 975 q 185 1000 204 975 q 165 1063 165 1025 l 14 1063 q 74 887 14 956 q 242 817 135 818 q 408 887 347 818 q 469 1063 469 956 l 318 1063 z "},"˙":{"ha":256,"x_min":14,"x_max":242,"o":"m 129 825 q 210 858 178 825 q 242 940 242 892 q 210 1022 242 989 q 129 1056 178 1056 q 48 1022 82 1056 q 14 940 14 989 q 47 858 14 892 q 129 825 81 825 z "},"˚":{"ha":347,"x_min":14,"x_max":333,"o":"m 174 1125 q 61 1081 108 1125 q 14 974 14 1036 q 60 867 14 910 q 174 825 107 825 q 286 867 239 825 q 333 974 333 910 q 285 1081 333 1036 q 174 1125 238 1125 m 175 925 q 141 940 156 925 q 126 974 126 954 q 141 1006 126 992 q 175 1019 156 1019 q 208 1006 194 1019 q 222 974 222 993 q 208 940 222 954 q 175 925 194 925 z "},"˜":{"ha":513,"x_min":14,"x_max":499,"o":"m 358 1022 q 348 994 358 1007 q 324 981 338 981 q 288 986 303 981 q 254 1003 274 992 q 217 1022 233 1015 q 176 1028 200 1028 q 61 981 108 1028 q 14 833 14 935 l 161 833 q 172 861 161 847 q 196 875 183 875 q 233 869 218 875 q 264 851 247 864 q 299 833 283 839 q 339 826 314 826 q 453 874 407 826 q 499 1022 499 921 l 358 1022 z "},"˝":{"ha":639,"x_min":150,"x_max":489,"o":"m 310 824 l 306 817 l 150 850 l 232 1069 l 489 1069 l 343 817 l 310 824 z "},"˛":{"ha":368,"x_min":14,"x_max":354,"o":"m 57 7 q 28 -60 42 -18 q 14 -129 14 -103 q 64 -258 14 -204 q 197 -311 114 -311 q 285 -297 244 -311 q 354 -256 326 -282 l 286 -128 q 226 -154 256 -154 q 196 -142 207 -154 q 185 -112 185 -129 q 202 -49 185 -86 q 238 7 219 -12 l 57 7 z "},"¸":{"ha":360,"x_min":14,"x_max":346,"o":"m 69 -118 q 155 -137 119 -122 q 190 -175 190 -151 q 177 -194 190 -187 q 144 -200 164 -200 q 61 -175 115 -200 l 14 -287 q 84 -322 42 -308 q 161 -336 126 -336 q 292 -295 238 -336 q 346 -181 346 -254 q 320 -102 346 -142 q 250 -47 294 -62 l 276 18 l 125 18 l 69 -118 z "},"":{"ha":0,"x_min":17,"x_max":251,"o":"m 136 -29 q 55 -65 89 -29 q 21 -144 21 -101 q 42 -210 21 -179 q 89 -249 63 -242 q 60 -292 82 -271 q 17 -324 39 -312 l 61 -421 q 197 -315 142 -386 q 251 -167 251 -244 q 218 -67 251 -106 q 136 -29 185 -29 z "},"Þ":{"ha":885,"x_min":114,"x_max":843,"o":"m 463 833 q 656 798 569 833 q 792 690 742 763 q 843 511 843 618 q 789 333 843 406 q 645 226 735 261 q 450 190 556 190 l 331 190 l 331 0 l 114 0 l 114 944 l 331 944 l 331 833 l 463 833 m 458 364 q 572 402 528 364 q 617 506 615 440 q 574 619 617 581 q 456 658 532 658 l 331 658 l 331 364 l 458 364 z "},"Ð":{"ha":993,"x_min":13,"x_max":949,"o":"m 508 944 q 749 885 650 944 q 899 720 849 825 q 949 478 949 615 q 894 224 949 332 q 740 58 840 117 q 506 0 640 0 l 114 0 l 114 389 l 32 389 l 13 560 l 114 560 l 114 944 l 508 944 m 496 175 q 663 250 601 175 q 724 478 724 325 q 668 690 724 613 q 506 768 613 768 l 331 768 l 331 560 l 456 560 l 474 389 l 331 389 l 331 175 l 496 175 z "},"Æ":{"ha":1354,"x_min":7,"x_max":1326,"o":"m 650 200 l 650 0 l 1326 0 l 1300 169 l 868 169 l 868 390 l 1193 390 l 1167 561 l 868 561 l 868 774 l 1271 774 l 1246 944 l 640 944 l 7 15 l 215 -17 l 356 200 l 650 200 m 475 372 l 650 625 l 650 372 l 475 372 z "},"Đ":{"ha":993,"x_min":13,"x_max":949,"o":"m 508 944 q 749 885 650 944 q 899 720 849 825 q 949 478 949 615 q 894 224 949 332 q 740 58 840 117 q 506 0 640 0 l 114 0 l 114 389 l 32 389 l 13 560 l 114 560 l 114 944 l 508 944 m 496 175 q 663 250 601 175 q 724 478 724 325 q 668 690 724 613 q 506 768 613 768 l 331 768 l 331 560 l 456 560 l 474 389 l 331 389 l 331 175 l 496 175 z "},"Ł":{"ha":788,"x_min":3,"x_max":765,"o":"m 76 244 l 3 404 l 114 481 l 114 944 l 331 944 l 331 625 l 497 738 l 582 581 l 331 414 l 331 169 l 740 169 l 765 0 l 114 0 l 114 271 l 76 244 z "},"Œ":{"ha":1401,"x_min":44,"x_max":1374,"o":"m 697 10 q 515 -18 606 -18 q 262 44 368 -18 q 100 217 156 107 q 44 468 44 328 q 104 724 44 611 q 271 899 164 836 q 515 963 378 963 q 697 931 607 963 l 697 944 l 1293 944 l 1319 774 l 914 774 l 914 561 l 1214 561 l 1240 390 l 914 390 l 914 169 l 1347 169 l 1374 0 l 697 0 l 697 10 m 514 161 q 697 204 608 161 l 697 749 q 597 776 632 769 q 514 783 563 783 q 392 744 449 783 q 303 634 336 706 q 269 469 269 563 q 301 310 269 381 q 389 201 333 240 q 514 161 444 161 z "},"Ø":{"ha":1042,"x_min":44,"x_max":997,"o":"m 521 965 q 776 901 668 965 q 940 725 883 836 q 997 478 997 614 q 937 221 997 333 q 768 45 876 108 q 521 -19 660 -18 q 267 45 375 -19 q 102 221 160 110 q 44 468 44 332 q 105 724 44 611 q 274 900 165 836 q 521 965 382 964 m 524 783 q 397 744 454 783 q 304 634 339 706 q 269 469 269 563 q 338 247 269 331 l 560 781 q 524 783 535 783 m 519 163 q 648 198 590 163 q 739 304 706 233 q 772 478 772 375 q 714 685 772 606 l 493 164 q 519 163 501 163 z "},"ß":{"ha":893,"x_min":86,"x_max":851,"o":"m 303 644 q 344 751 303 711 q 442 790 385 790 q 536 760 499 790 q 574 683 574 731 q 533 603 574 638 q 432 569 493 569 l 389 569 l 389 406 l 510 406 q 593 373 558 406 q 628 288 628 340 q 590 208 628 239 q 497 178 551 178 l 382 178 l 382 0 l 515 0 q 692 33 615 0 q 810 129 768 67 q 851 275 851 192 q 803 422 851 354 q 692 511 756 490 q 767 592 739 538 q 794 701 794 647 q 748 848 794 786 q 619 942 701 910 q 433 975 538 975 q 249 933 328 975 q 128 815 171 890 q 86 642 86 739 l 86 0 l 303 0 l 303 644 z "},"ð":{"ha":804,"x_min":31,"x_max":774,"o":"m 522 853 q 707 622 640 750 q 774 364 774 494 q 728 162 774 247 q 599 31 682 76 q 407 -15 515 -15 q 212 26 297 -15 q 78 147 126 67 q 31 339 31 226 q 77 527 31 446 q 204 651 124 608 q 382 694 285 694 q 411 693 401 694 q 339 761 379 729 l 147 665 l 76 804 l 182 857 q 81 897 143 876 l 158 1042 q 376 954 271 1014 l 542 1038 l 614 899 l 522 853 m 401 164 q 508 211 468 164 q 549 336 549 258 q 528 486 549 415 q 404 514 471 514 q 296 466 336 514 q 256 339 256 418 q 295 212 256 260 q 401 164 335 164 z "},"þ":{"ha":785,"x_min":81,"x_max":753,"o":"m 411 694 q 660 603 568 694 q 753 343 753 511 q 659 80 753 175 q 403 -15 565 -15 q 297 11 358 -15 l 297 -290 l 81 -304 l 81 965 l 297 981 l 297 667 q 411 694 357 694 m 393 158 q 492 209 454 158 q 529 342 529 260 q 492 472 529 425 q 388 519 454 519 q 297 490 343 519 l 297 188 q 393 158 344 158 z "},"ƒ":{"ha":697,"x_min":0,"x_max":697,"o":"m 240 479 l 240 115 q 217 38 240 67 q 149 10 193 10 q 63 32 110 10 l 0 -119 q 73 -155 25 -139 q 161 -171 121 -171 q 374 -102 292 -171 q 457 89 457 -33 l 457 479 l 654 479 l 615 649 l 457 649 l 457 689 q 481 766 457 738 q 549 794 504 794 q 635 772 592 794 l 697 924 q 625 960 674 944 q 536 976 576 976 q 323 907 406 976 q 240 715 240 838 l 240 649 l 132 649 l 132 479 l 240 479 z "},"æ":{"ha":1115,"x_min":51,"x_max":1083,"o":"m 653 278 q 829 160 681 160 q 930 174 885 160 q 1019 213 975 188 l 1082 61 q 967 6 1036 26 q 815 -15 897 -15 q 525 76 629 -15 q 429 10 481 35 q 299 -15 378 -15 q 114 45 176 -15 q 51 210 51 106 q 121 364 51 313 q 311 415 190 415 l 417 415 q 388 484 414 460 q 319 508 363 508 q 228 496 279 508 q 138 465 176 483 l 79 632 q 206 676 125 657 q 350 694 286 694 q 550 628 475 694 q 769 694 640 694 q 943 647 872 694 q 1049 521 1014 600 q 1083 343 1083 442 l 1083 278 l 653 278 m 876 401 q 841 483 869 451 q 764 515 813 515 q 686 484 718 515 q 650 401 654 453 l 876 401 m 235 211 q 253 168 235 186 q 300 150 271 150 q 378 165 347 150 q 439 207 410 179 q 421 285 425 247 l 313 285 q 256 264 276 285 q 235 211 235 243 z "},"đ":{"ha":803,"x_min":31,"x_max":806,"o":"m 715 761 l 715 0 l 604 0 l 563 56 q 467 4 519 24 q 374 -15 415 -15 q 124 76 217 -15 q 31 336 31 168 q 125 599 31 504 q 382 694 219 694 q 497 663 433 694 l 497 761 l 394 761 l 375 906 l 497 906 l 497 965 l 715 981 l 715 906 l 786 906 l 806 761 l 715 761 m 256 338 q 293 206 256 254 q 397 158 331 158 q 497 197 443 158 l 497 485 q 392 519 447 519 q 293 469 331 519 q 256 338 256 419 z "},"œ":{"ha":1179,"x_min":31,"x_max":1149,"o":"m 717 278 q 894 160 744 160 q 1085 213 990 160 l 1146 61 q 1031 6 1100 26 q 879 -15 961 -15 q 624 50 722 -15 q 513 0 576 15 q 394 -15 449 -15 q 203 26 286 -15 q 76 148 121 68 q 31 336 31 228 q 76 526 31 444 q 203 651 121 607 q 394 694 286 694 q 508 679 446 694 q 618 631 571 664 q 833 694 707 694 q 1007 647 936 694 q 1113 521 1078 600 q 1149 343 1149 442 l 1149 278 l 717 278 m 942 401 q 904 484 933 453 q 828 515 875 515 q 751 484 782 515 q 714 401 719 453 l 942 401 m 256 336 q 299 211 256 258 q 408 164 343 164 q 511 182 461 164 q 482 336 482 249 q 513 496 482 424 q 408 514 463 514 q 299 464 343 514 q 256 336 256 414 z "},"ĺ":{"ha":390,"x_min":86,"x_max":419,"o":"m 200 1275 l 118 1054 l 274 1022 l 419 1275 l 200 1275 m 86 950 l 86 0 l 303 0 l 303 967 l 86 950 z "},"ł":{"ha":522,"x_min":0,"x_max":522,"o":"m 367 981 l 150 965 l 150 535 l 0 425 l 63 251 l 150 314 l 150 0 l 367 0 l 367 471 l 522 583 l 458 757 l 367 690 l 367 981 z "},"ı":{"ha":363,"x_min":72,"x_max":290,"o":"m 72 674 l 72 0 l 290 0 l 290 674 l 72 674 z "},"ø":{"ha":804,"x_min":31,"x_max":774,"o":"m 403 694 q 597 652 513 694 q 727 529 681 610 q 774 336 774 449 q 726 149 774 228 q 593 27 678 69 q 400 -15 508 -15 q 207 26 290 -15 q 77 147 124 67 q 31 339 31 226 q 78 528 31 447 q 210 651 126 608 q 403 694 294 694 m 404 514 q 296 466 336 514 q 256 339 256 418 q 274 247 256 288 l 424 513 q 404 514 417 514 m 401 164 q 508 211 468 164 q 549 336 549 258 q 533 422 549 383 l 383 165 l 401 164 z "},"À":{"ha":951,"x_min":14,"x_max":938,"o":"m 231 0 l 304 204 l 647 204 l 724 -14 l 938 11 l 579 944 l 375 944 l 14 0 l 231 0 m 472 669 l 583 376 l 365 376 l 472 669 m 494 1275 l 276 1275 l 422 1022 l 576 1054 l 494 1275 z "},"Á":{"ha":951,"x_min":14,"x_max":938,"o":"m 231 0 l 304 204 l 647 204 l 724 -14 l 938 11 l 579 944 l 375 944 l 14 0 l 231 0 m 472 669 l 583 376 l 365 376 l 472 669 m 449 1275 l 367 1054 l 521 1022 l 667 1275 l 449 1275 z "},"Â":{"ha":951,"x_min":14,"x_max":938,"o":"m 231 0 l 304 204 l 647 204 l 724 -14 l 938 11 l 579 944 l 375 944 l 14 0 l 231 0 m 472 669 l 583 376 l 365 376 l 472 669 m 763 1051 l 536 1279 l 411 1279 l 185 1051 l 394 1026 l 476 1114 l 558 1026 l 763 1051 z "},"Ã":{"ha":951,"x_min":14,"x_max":938,"o":"m 231 0 l 304 204 l 647 204 l 724 -14 l 938 11 l 579 944 l 375 944 l 14 0 l 231 0 m 472 669 l 583 376 l 365 376 l 472 669 m 569 1231 q 559 1202 569 1215 q 535 1189 549 1189 q 499 1194 514 1189 q 465 1211 485 1200 q 428 1230 444 1224 q 388 1236 411 1236 q 272 1190 319 1236 q 225 1042 225 1143 l 372 1042 q 383 1069 372 1056 q 407 1083 394 1083 q 444 1078 429 1083 q 475 1060 458 1072 q 510 1041 494 1047 q 550 1035 525 1035 q 664 1082 618 1035 q 710 1231 710 1129 l 569 1231 z "},"Ä":{"ha":951,"x_min":14,"x_max":938,"o":"m 231 0 l 304 204 l 647 204 l 724 -14 l 938 11 l 579 944 l 375 944 l 14 0 l 231 0 m 472 669 l 583 376 l 365 376 l 472 669 m 339 1046 q 411 1075 382 1046 q 440 1149 440 1104 q 411 1221 440 1190 q 339 1251 382 1251 q 265 1221 296 1251 q 235 1149 235 1190 q 265 1076 235 1106 q 339 1046 296 1046 m 617 1046 q 691 1075 661 1046 q 721 1149 721 1104 q 691 1221 721 1190 q 617 1251 661 1251 q 545 1221 576 1251 q 514 1149 514 1190 q 544 1076 514 1106 q 617 1046 575 1046 z "},"Å":{"ha":951,"x_min":14,"x_max":938,"o":"m 231 0 l 304 204 l 647 204 l 724 -14 l 938 11 l 579 944 l 375 944 l 14 0 l 231 0 m 472 669 l 583 376 l 365 376 l 472 669 m 475 1333 q 363 1289 410 1333 q 315 1182 315 1244 q 362 1076 315 1118 q 475 1033 408 1033 q 588 1076 540 1033 q 635 1182 635 1118 q 587 1289 635 1244 q 475 1333 539 1333 m 476 1133 q 442 1148 457 1133 q 428 1182 428 1163 q 442 1214 428 1200 q 476 1228 457 1228 q 510 1215 496 1228 q 524 1182 524 1201 q 510 1148 524 1163 q 476 1133 496 1133 z "},"Ă":{"ha":951,"x_min":14,"x_max":938,"o":"m 231 0 l 304 204 l 647 204 l 724 -14 l 938 11 l 579 944 l 375 944 l 14 0 l 231 0 m 472 669 l 583 376 l 365 376 l 472 669 m 554 1272 q 534 1209 554 1235 q 478 1183 514 1183 q 421 1209 440 1183 q 401 1272 401 1235 l 250 1272 q 310 1097 250 1165 q 478 1026 371 1028 q 644 1097 583 1028 q 706 1272 706 1165 l 554 1272 z "},"Ą":{"ha":951,"x_min":14,"x_max":1047,"o":"m 1047 -256 q 978 -297 1019 -282 q 890 -311 938 -311 q 757 -258 807 -311 q 707 -129 707 -204 q 717 -74 707 -107 q 739 -12 726 -40 l 724 -14 l 647 204 l 304 204 l 231 0 l 14 0 l 375 944 l 579 944 l 938 11 l 901 7 l 931 7 q 895 -49 913 -12 q 878 -112 878 -86 q 889 -142 878 -129 q 919 -154 900 -154 q 979 -128 949 -154 l 1047 -256 m 472 669 l 365 376 l 583 376 l 472 669 z "},"Ā":{"ha":951,"x_min":14,"x_max":938,"o":"m 231 0 l 304 204 l 647 204 l 724 -14 l 938 11 l 579 944 l 375 944 l 14 0 l 231 0 m 472 669 l 583 376 l 365 376 l 472 669 m 650 1231 l 281 1231 l 281 1060 l 664 1060 l 650 1231 z "},"Ç":{"ha":806,"x_min":44,"x_max":789,"o":"m 574 -47 q 644 -102 618 -62 q 669 -181 669 -142 q 615 -295 669 -254 q 485 -336 561 -336 q 408 -322 450 -336 q 338 -287 365 -308 l 385 -175 q 468 -200 439 -200 q 501 -194 488 -200 q 514 -175 514 -187 q 478 -137 514 -151 q 393 -118 443 -122 l 436 -12 q 224 69 313 4 q 90 238 136 135 q 44 468 44 340 q 104 724 44 611 q 271 899 164 836 q 515 963 378 963 q 650 944 576 963 q 779 893 724 926 l 714 743 q 602 775 639 767 q 514 783 565 783 q 392 744 449 783 q 303 634 336 706 q 269 469 269 563 q 301 310 269 381 q 389 201 333 240 q 514 161 444 161 q 707 208 613 161 l 789 47 q 588 -14 711 3 l 574 -47 z "},"Ć":{"ha":806,"x_min":44,"x_max":789,"o":"m 779 893 q 650 944 724 926 q 515 963 576 963 q 271 899 378 963 q 104 724 164 836 q 44 468 44 611 q 100 217 44 328 q 262 44 156 107 q 515 -18 368 -18 q 659 -1 582 -18 q 789 47 736 17 l 707 208 q 514 161 613 161 q 389 201 444 161 q 301 310 333 240 q 269 469 269 381 q 303 634 269 563 q 392 744 336 706 q 514 783 449 783 q 602 775 565 783 q 714 743 639 767 l 779 893 m 488 1275 l 406 1054 l 560 1022 l 706 1275 l 488 1275 z "},"Č":{"ha":806,"x_min":44,"x_max":804,"o":"m 779 893 q 650 944 724 926 q 515 963 576 963 q 271 899 378 963 q 104 724 164 836 q 44 468 44 611 q 100 217 44 328 q 262 44 156 107 q 515 -18 368 -18 q 659 -1 582 -18 q 789 47 736 17 l 707 208 q 514 161 613 161 q 389 201 444 161 q 301 310 333 240 q 269 469 269 381 q 303 634 269 563 q 392 744 336 706 q 514 783 449 783 q 602 775 565 783 q 714 743 639 767 l 779 893 m 226 1254 l 453 1026 l 578 1026 l 804 1254 l 600 1279 l 518 1190 l 436 1279 l 226 1254 z "},"Ď":{"ha":993,"x_min":114,"x_max":949,"o":"m 506 0 q 740 58 640 0 q 894 224 840 117 q 949 478 949 332 q 899 720 949 615 q 749 885 849 825 q 508 944 650 944 l 114 944 l 114 0 l 506 0 m 506 768 q 668 690 613 768 q 724 478 724 613 q 663 250 724 325 q 496 175 601 175 l 331 175 l 331 768 l 506 768 m 188 1254 l 414 1026 l 539 1026 l 765 1254 l 561 1279 l 479 1190 l 397 1279 l 188 1254 z "},"È":{"ha":819,"x_min":114,"x_max":792,"o":"m 331 169 l 331 390 l 657 390 l 631 561 l 331 561 l 331 774 l 736 774 l 710 944 l 114 944 l 114 0 l 792 0 l 765 169 l 331 169 m 460 1275 l 242 1275 l 388 1022 l 542 1054 l 460 1275 z "},"É":{"ha":819,"x_min":114,"x_max":792,"o":"m 331 169 l 331 390 l 657 390 l 631 561 l 331 561 l 331 774 l 736 774 l 710 944 l 114 944 l 114 0 l 792 0 l 765 169 l 331 169 m 415 1275 l 333 1054 l 488 1022 l 633 1275 l 415 1275 z "},"Ê":{"ha":819,"x_min":114,"x_max":792,"o":"m 331 169 l 331 390 l 657 390 l 631 561 l 331 561 l 331 774 l 736 774 l 710 944 l 114 944 l 114 0 l 792 0 l 765 169 l 331 169 m 728 1051 l 501 1279 l 376 1279 l 150 1051 l 360 1026 l 442 1114 l 524 1026 l 728 1051 z "},"Ë":{"ha":819,"x_min":114,"x_max":792,"o":"m 331 169 l 331 390 l 657 390 l 631 561 l 331 561 l 331 774 l 736 774 l 710 944 l 114 944 l 114 0 l 792 0 l 765 169 l 331 169 m 306 1046 q 378 1075 349 1046 q 407 1149 407 1104 q 378 1221 407 1190 q 306 1251 349 1251 q 232 1221 263 1251 q 201 1149 201 1190 q 232 1076 201 1106 q 306 1046 263 1046 m 583 1046 q 658 1075 628 1046 q 688 1149 688 1104 q 658 1221 688 1190 q 583 1251 628 1251 q 512 1221 543 1251 q 481 1149 481 1190 q 511 1076 481 1106 q 583 1046 542 1046 z "},"Ē":{"ha":819,"x_min":114,"x_max":792,"o":"m 331 169 l 331 390 l 657 390 l 631 561 l 331 561 l 331 774 l 736 774 l 710 944 l 114 944 l 114 0 l 792 0 l 765 169 l 331 169 m 615 1231 l 246 1231 l 246 1060 l 629 1060 l 615 1231 z "},"Ė":{"ha":819,"x_min":114,"x_max":792,"o":"m 331 169 l 331 390 l 657 390 l 631 561 l 331 561 l 331 774 l 736 774 l 710 944 l 114 944 l 114 0 l 792 0 l 765 169 l 331 169 m 444 1033 q 525 1067 493 1033 q 557 1149 557 1100 q 525 1231 557 1197 q 444 1264 493 1264 q 363 1231 397 1264 q 329 1149 329 1197 q 363 1067 329 1100 q 444 1033 396 1033 z "},"Ę":{"ha":819,"x_min":114,"x_max":807,"o":"m 807 -256 q 738 -297 779 -282 q 650 -311 697 -311 q 517 -258 567 -311 q 467 -129 467 -204 q 478 -65 467 -104 q 506 0 490 -26 l 114 0 l 114 944 l 710 944 l 736 774 l 331 774 l 331 561 l 631 561 l 657 390 l 331 390 l 331 169 l 765 169 l 792 0 l 685 0 q 652 -54 667 -21 q 638 -112 638 -87 q 649 -142 638 -129 q 679 -154 660 -154 q 739 -128 708 -154 l 807 -256 z "},"Ě":{"ha":819,"x_min":114,"x_max":792,"o":"m 331 169 l 331 390 l 657 390 l 631 561 l 331 561 l 331 774 l 736 774 l 710 944 l 114 944 l 114 0 l 792 0 l 765 169 l 331 169 m 153 1254 l 379 1026 l 504 1026 l 731 1254 l 526 1279 l 444 1190 l 363 1279 l 153 1254 z "},"Ğ":{"ha":900,"x_min":44,"x_max":842,"o":"m 646 172 q 533 161 582 161 q 401 197 461 161 q 306 301 342 232 q 269 469 269 371 q 309 641 269 569 q 413 748 349 713 q 550 783 478 783 q 647 774 603 783 q 764 743 692 765 l 829 893 q 693 944 775 926 q 547 963 611 963 q 292 901 407 963 q 110 726 176 839 q 44 468 44 614 q 104 214 44 324 q 274 43 164 104 q 532 -18 385 -18 q 701 1 614 -18 q 842 51 788 19 l 842 531 l 485 531 l 467 368 l 646 368 l 646 172 m 622 1272 q 602 1209 622 1235 q 546 1183 582 1183 q 489 1209 508 1183 q 469 1272 469 1235 l 318 1272 q 378 1097 318 1165 q 546 1026 439 1028 q 713 1097 651 1028 q 774 1272 774 1165 l 622 1272 z "},"Ì":{"ha":446,"x_min":26,"x_max":331,"o":"m 114 944 l 114 0 l 331 0 l 331 944 l 114 944 m 244 1275 l 26 1275 l 172 1022 l 326 1054 l 244 1275 z "},"Í":{"ha":446,"x_min":114,"x_max":417,"o":"m 114 944 l 114 0 l 331 0 l 331 944 l 114 944 m 199 1275 l 117 1054 l 271 1022 l 417 1275 l 199 1275 z "},"Î":{"ha":446,"x_min":-65,"x_max":513,"o":"m 114 944 l 114 0 l 331 0 l 331 944 l 114 944 m 513 1051 l 286 1279 l 161 1279 l -65 1051 l 144 1026 l 226 1114 l 308 1026 l 513 1051 z "},"Ï":{"ha":446,"x_min":-15,"x_max":471,"o":"m 114 944 l 114 0 l 331 0 l 331 944 l 114 944 m 89 1046 q 161 1075 132 1046 q 190 1149 190 1104 q 161 1221 190 1190 q 89 1251 132 1251 q 15 1221 46 1251 q -15 1149 -15 1190 q 15 1076 -15 1106 q 89 1046 46 1046 m 367 1046 q 441 1075 411 1046 q 471 1149 471 1104 q 441 1221 471 1190 q 367 1251 411 1251 q 295 1221 326 1251 q 264 1149 264 1190 q 294 1076 264 1106 q 367 1046 325 1046 z "},"Ī":{"ha":446,"x_min":31,"x_max":414,"o":"m 114 944 l 114 0 l 331 0 l 331 944 l 114 944 m 400 1231 l 31 1231 l 31 1060 l 414 1060 l 400 1231 z "},"Į":{"ha":446,"x_min":86,"x_max":426,"o":"m 426 -256 q 358 -297 399 -282 q 269 -311 317 -311 q 136 -258 186 -311 q 86 -129 86 -204 q 98 -65 86 -104 q 125 0 110 -26 l 114 0 l 114 944 l 331 944 l 331 0 l 304 0 q 272 -54 286 -21 q 257 -112 257 -87 q 268 -142 257 -129 q 299 -154 279 -154 q 358 -128 328 -154 l 426 -256 z "},"İ":{"ha":446,"x_min":113,"x_max":340,"o":"m 114 944 l 114 0 l 331 0 l 331 944 l 114 944 m 228 1033 q 308 1067 276 1033 q 340 1149 340 1100 q 308 1231 340 1197 q 228 1264 276 1264 q 147 1231 181 1264 q 113 1149 113 1197 q 146 1067 113 1100 q 228 1033 179 1033 z "},"Ĺ":{"ha":779,"x_min":114,"x_max":765,"o":"m 331 944 l 114 944 l 114 0 l 765 0 l 740 169 l 331 169 l 331 944 m 346 1275 l 264 1054 l 418 1022 l 564 1275 l 346 1275 z "},"Ľ":{"ha":779,"x_min":114,"x_max":765,"o":"m 331 944 l 114 944 l 114 0 l 765 0 l 740 169 l 331 169 l 331 944 m 624 1031 q 542 994 576 1031 q 508 915 508 958 q 530 850 508 881 q 576 811 551 819 q 494 713 565 764 l 539 614 q 683 734 625 654 q 740 894 740 814 q 706 992 740 954 q 624 1031 672 1031 z "},"Ñ":{"ha":1054,"x_min":114,"x_max":939,"o":"m 731 0 l 939 0 l 939 944 l 722 944 l 722 374 l 322 944 l 114 944 l 114 0 l 331 0 l 331 564 l 731 0 m 619 1231 q 609 1202 619 1215 q 585 1189 599 1189 q 549 1194 564 1189 q 515 1211 535 1200 q 478 1230 494 1224 q 438 1236 461 1236 q 322 1190 369 1236 q 275 1042 275 1143 l 422 1042 q 433 1069 422 1056 q 457 1083 444 1083 q 494 1078 479 1083 q 525 1060 508 1072 q 560 1041 544 1047 q 600 1035 575 1035 q 714 1082 668 1035 q 760 1231 760 1129 l 619 1231 z "},"Ń":{"ha":1054,"x_min":114,"x_max":939,"o":"m 731 0 l 939 0 l 939 944 l 722 944 l 722 374 l 322 944 l 114 944 l 114 0 l 331 0 l 331 564 l 731 0 m 499 1275 l 417 1054 l 571 1022 l 717 1275 l 499 1275 z "},"Ň":{"ha":1054,"x_min":114,"x_max":939,"o":"m 731 0 l 939 0 l 939 944 l 722 944 l 722 374 l 322 944 l 114 944 l 114 0 l 331 0 l 331 564 l 731 0 m 238 1254 l 464 1026 l 589 1026 l 815 1254 l 611 1279 l 529 1190 l 447 1279 l 238 1254 z "},"Ò":{"ha":1042,"x_min":44,"x_max":997,"o":"m 521 965 q 274 900 382 964 q 105 724 165 836 q 44 468 44 611 q 102 221 44 332 q 267 45 160 110 q 521 -19 375 -19 q 768 45 660 -18 q 937 221 876 108 q 997 478 997 333 q 940 725 997 614 q 776 901 883 836 q 521 965 668 965 m 269 469 q 304 634 269 563 q 397 744 339 706 q 524 783 454 783 q 655 744 599 783 q 742 635 711 704 q 772 478 772 565 q 739 304 772 375 q 648 198 706 233 q 519 163 590 163 q 337 248 404 163 q 269 469 269 333 m 536 1275 l 318 1275 l 464 1022 l 618 1054 l 536 1275 z "},"Ó":{"ha":1042,"x_min":44,"x_max":997,"o":"m 521 965 q 274 900 382 964 q 105 724 165 836 q 44 468 44 611 q 102 221 44 332 q 267 45 160 110 q 521 -19 375 -19 q 768 45 660 -18 q 937 221 876 108 q 997 478 997 333 q 940 725 997 614 q 776 901 883 836 q 521 965 668 965 m 269 469 q 304 634 269 563 q 397 744 339 706 q 524 783 454 783 q 655 744 599 783 q 742 635 711 704 q 772 478 772 565 q 739 304 772 375 q 648 198 706 233 q 519 163 590 163 q 337 248 404 163 q 269 469 269 333 m 492 1275 l 410 1054 l 564 1022 l 710 1275 l 492 1275 z "},"Ô":{"ha":1042,"x_min":44,"x_max":997,"o":"m 521 965 q 274 900 382 964 q 105 724 165 836 q 44 468 44 611 q 102 221 44 332 q 267 45 160 110 q 521 -19 375 -19 q 768 45 660 -18 q 937 221 876 108 q 997 478 997 333 q 940 725 997 614 q 776 901 883 836 q 521 965 668 965 m 269 469 q 304 634 269 563 q 397 744 339 706 q 524 783 454 783 q 655 744 599 783 q 742 635 711 704 q 772 478 772 565 q 739 304 772 375 q 648 198 706 233 q 519 163 590 163 q 337 248 404 163 q 269 469 269 333 m 806 1051 l 579 1279 l 454 1279 l 228 1051 l 438 1026 l 519 1114 l 601 1026 l 806 1051 z "},"Õ":{"ha":1042,"x_min":44,"x_max":997,"o":"m 521 965 q 274 900 382 964 q 105 724 165 836 q 44 468 44 611 q 102 221 44 332 q 267 45 160 110 q 521 -19 375 -19 q 768 45 660 -18 q 937 221 876 108 q 997 478 997 333 q 940 725 997 614 q 776 901 883 836 q 521 965 668 965 m 269 469 q 304 634 269 563 q 397 744 339 706 q 524 783 454 783 q 655 744 599 783 q 742 635 711 704 q 772 478 772 565 q 739 304 772 375 q 648 198 706 233 q 519 163 590 163 q 337 248 404 163 q 269 469 269 333 m 613 1231 q 602 1202 613 1215 q 578 1189 592 1189 q 542 1194 557 1189 q 508 1211 528 1200 q 471 1230 488 1224 q 431 1236 454 1236 q 315 1190 363 1236 q 268 1042 268 1143 l 415 1042 q 426 1069 415 1056 q 450 1083 438 1083 q 487 1078 472 1083 q 518 1060 501 1072 q 553 1041 538 1047 q 593 1035 568 1035 q 707 1082 661 1035 q 753 1231 753 1129 l 613 1231 z "},"Ö":{"ha":1042,"x_min":44,"x_max":997,"o":"m 521 965 q 274 900 382 964 q 105 724 165 836 q 44 468 44 611 q 102 221 44 332 q 267 45 160 110 q 521 -19 375 -19 q 768 45 660 -18 q 937 221 876 108 q 997 478 997 333 q 940 725 997 614 q 776 901 883 836 q 521 965 668 965 m 269 469 q 304 634 269 563 q 397 744 339 706 q 524 783 454 783 q 655 744 599 783 q 742 635 711 704 q 772 478 772 565 q 739 304 772 375 q 648 198 706 233 q 519 163 590 163 q 337 248 404 163 q 269 469 269 333 m 382 1046 q 454 1075 425 1046 q 483 1149 483 1104 q 454 1221 483 1190 q 382 1251 425 1251 q 308 1221 339 1251 q 278 1149 278 1190 q 308 1076 278 1106 q 382 1046 339 1046 m 660 1046 q 734 1075 704 1046 q 764 1149 764 1104 q 734 1221 764 1190 q 660 1251 704 1251 q 588 1221 619 1251 q 557 1149 557 1190 q 588 1076 557 1106 q 660 1046 618 1046 z "},"Ō":{"ha":1042,"x_min":44,"x_max":997,"o":"m 521 965 q 274 900 382 964 q 105 724 165 836 q 44 468 44 611 q 102 221 44 332 q 267 45 160 110 q 521 -19 375 -19 q 768 45 660 -18 q 937 221 876 108 q 997 478 997 333 q 940 725 997 614 q 776 901 883 836 q 521 965 668 965 m 269 469 q 304 634 269 563 q 397 744 339 706 q 524 783 454 783 q 655 744 599 783 q 742 635 711 704 q 772 478 772 565 q 739 304 772 375 q 648 198 706 233 q 519 163 590 163 q 337 248 404 163 q 269 469 269 333 m 693 1231 l 324 1231 l 324 1060 l 707 1060 l 693 1231 z "},"Ő":{"ha":1042,"x_min":44,"x_max":997,"o":"m 521 965 q 274 900 382 964 q 105 724 165 836 q 44 468 44 611 q 102 221 44 332 q 267 45 160 110 q 521 -19 375 -19 q 768 45 660 -18 q 937 221 876 108 q 997 478 997 333 q 940 725 997 614 q 776 901 883 836 q 521 965 668 965 m 269 469 q 304 634 269 563 q 397 744 339 706 q 524 783 454 783 q 655 744 599 783 q 742 635 711 704 q 772 478 772 565 q 739 304 772 375 q 648 198 706 233 q 519 163 590 163 q 337 248 404 163 q 269 469 269 333 m 568 1029 l 564 1022 l 408 1054 l 490 1275 l 747 1275 l 601 1022 l 568 1029 z "},"Ŕ":{"ha":933,"x_min":114,"x_max":919,"o":"m 331 0 l 331 328 l 500 328 l 676 0 l 919 0 l 699 389 q 804 490 765 426 q 843 638 843 554 q 736 867 843 790 q 463 944 629 944 l 114 944 l 114 0 l 331 0 m 456 769 q 575 736 533 769 q 617 633 617 703 q 573 535 617 571 q 458 500 529 500 l 331 500 l 331 769 l 456 769 m 429 1275 l 347 1054 l 501 1022 l 647 1275 l 429 1275 z "},"Ř":{"ha":933,"x_min":114,"x_max":919,"o":"m 331 0 l 331 328 l 500 328 l 676 0 l 919 0 l 699 389 q 804 490 765 426 q 843 638 843 554 q 736 867 843 790 q 463 944 629 944 l 114 944 l 114 0 l 331 0 m 456 769 q 575 736 533 769 q 617 633 617 703 q 573 535 617 571 q 458 500 529 500 l 331 500 l 331 769 l 456 769 m 168 1254 l 394 1026 l 519 1026 l 746 1254 l 542 1279 l 460 1190 l 378 1279 l 168 1254 z "},"Ś":{"ha":746,"x_min":44,"x_max":715,"o":"m 56 60 q 195 6 106 29 q 350 -18 285 -18 q 545 17 463 -18 q 672 113 628 51 q 715 251 715 174 q 675 380 715 324 q 582 473 635 436 q 429 568 529 510 q 383 593 406 583 q 297 648 324 625 q 269 701 269 671 q 302 760 269 739 q 386 782 335 782 q 479 771 436 782 q 589 732 522 760 l 656 890 q 526 944 600 924 q 383 964 453 964 q 204 930 281 964 q 87 837 128 896 q 44 703 46 778 q 85 575 44 632 q 180 481 126 518 q 328 386 233 443 q 369 363 356 369 q 462 303 433 325 q 490 254 490 281 q 453 190 490 214 q 346 165 415 165 q 228 185 294 165 q 118 229 163 206 l 56 60 m 356 1275 l 274 1054 l 428 1022 l 574 1275 l 356 1275 z "},"Š":{"ha":746,"x_min":44,"x_max":715,"o":"m 56 60 q 195 6 106 29 q 350 -18 285 -18 q 545 17 463 -18 q 672 113 628 51 q 715 251 715 174 q 675 380 715 324 q 582 473 635 436 q 429 568 529 510 q 383 593 406 583 q 297 648 324 625 q 269 701 269 671 q 302 760 269 739 q 386 782 335 782 q 479 771 436 782 q 589 732 522 760 l 656 890 q 526 944 600 924 q 383 964 453 964 q 204 930 281 964 q 87 837 128 896 q 44 703 46 778 q 85 575 44 632 q 180 481 126 518 q 328 386 233 443 q 369 363 356 369 q 462 303 433 325 q 490 254 490 281 q 453 190 490 214 q 346 165 415 165 q 228 185 294 165 q 118 229 163 206 l 56 60 m 94 1254 l 321 1026 l 446 1026 l 672 1254 l 468 1279 l 386 1190 l 304 1279 l 94 1254 z "},"Ť":{"ha":840,"x_min":14,"x_max":826,"o":"m 14 774 l 296 774 l 296 0 l 514 0 l 514 774 l 826 774 l 800 944 l 14 944 l 14 774 m 121 1254 l 347 1026 l 472 1026 l 699 1254 l 494 1279 l 413 1190 l 331 1279 l 121 1254 z "},"Ù":{"ha":1014,"x_min":100,"x_max":914,"o":"m 101 353 q 151 157 101 240 q 294 28 201 74 q 507 -18 386 -18 q 720 28 628 -18 q 863 157 813 74 q 914 353 914 240 l 914 944 l 696 944 l 696 365 q 644 215 696 267 q 507 163 593 163 q 369 214 421 163 q 318 365 318 265 l 318 944 l 100 944 l 101 353 m 524 1275 l 306 1275 l 451 1022 l 606 1054 l 524 1275 z "},"Ú":{"ha":1014,"x_min":100,"x_max":914,"o":"m 101 353 q 151 157 101 240 q 294 28 201 74 q 507 -18 386 -18 q 720 28 628 -18 q 863 157 813 74 q 914 353 914 240 l 914 944 l 696 944 l 696 365 q 644 215 696 267 q 507 163 593 163 q 369 214 421 163 q 318 365 318 265 l 318 944 l 100 944 l 101 353 m 479 1275 l 397 1054 l 551 1022 l 697 1275 l 479 1275 z "},"Û":{"ha":1014,"x_min":100,"x_max":914,"o":"m 101 353 q 151 157 101 240 q 294 28 201 74 q 507 -18 386 -18 q 720 28 628 -18 q 863 157 813 74 q 914 353 914 240 l 914 944 l 696 944 l 696 365 q 644 215 696 267 q 507 163 593 163 q 369 214 421 163 q 318 365 318 265 l 318 944 l 100 944 l 101 353 m 792 1051 l 565 1279 l 440 1279 l 214 1051 l 424 1026 l 506 1114 l 588 1026 l 792 1051 z "},"Ü":{"ha":1014,"x_min":100,"x_max":914,"o":"m 101 353 q 151 157 101 240 q 294 28 201 74 q 507 -18 386 -18 q 720 28 628 -18 q 863 157 813 74 q 914 353 914 240 l 914 944 l 696 944 l 696 365 q 644 215 696 267 q 507 163 593 163 q 369 214 421 163 q 318 365 318 265 l 318 944 l 100 944 l 101 353 m 368 1046 q 440 1075 411 1046 q 469 1149 469 1104 q 440 1221 469 1190 q 368 1251 411 1251 q 294 1221 325 1251 q 264 1149 264 1190 q 294 1076 264 1106 q 368 1046 325 1046 m 646 1046 q 720 1075 690 1046 q 750 1149 750 1104 q 720 1221 750 1190 q 646 1251 690 1251 q 574 1221 606 1251 q 543 1149 543 1190 q 574 1076 543 1106 q 646 1046 604 1046 z "},"Ū":{"ha":1014,"x_min":100,"x_max":914,"o":"m 101 353 q 151 157 101 240 q 294 28 201 74 q 507 -18 386 -18 q 720 28 628 -18 q 863 157 813 74 q 914 353 914 240 l 914 944 l 696 944 l 696 365 q 644 215 696 267 q 507 163 593 163 q 369 214 421 163 q 318 365 318 265 l 318 944 l 100 944 l 101 353 m 679 1231 l 310 1231 l 310 1060 l 693 1060 l 679 1231 z "},"Ů":{"ha":1014,"x_min":100,"x_max":914,"o":"m 101 353 q 151 157 101 240 q 294 28 201 74 q 507 -18 386 -18 q 720 28 628 -18 q 863 157 813 74 q 914 353 914 240 l 914 944 l 696 944 l 696 365 q 644 215 696 267 q 507 163 593 163 q 369 214 421 163 q 318 365 318 265 l 318 944 l 100 944 l 101 353 m 504 1333 q 392 1289 439 1333 q 344 1182 344 1244 q 391 1076 344 1118 q 504 1033 438 1033 q 617 1076 569 1033 q 664 1182 664 1118 q 616 1289 664 1244 q 504 1333 568 1333 m 506 1133 q 472 1148 486 1133 q 457 1182 457 1163 q 472 1214 457 1200 q 506 1228 486 1228 q 539 1215 525 1228 q 553 1182 553 1201 q 539 1148 553 1163 q 506 1133 525 1133 z "},"Ű":{"ha":1014,"x_min":100,"x_max":914,"o":"m 101 353 q 151 157 101 240 q 294 28 201 74 q 507 -18 386 -18 q 720 28 628 -18 q 863 157 813 74 q 914 353 914 240 l 914 944 l 696 944 l 696 365 q 644 215 696 267 q 507 163 593 163 q 369 214 421 163 q 318 365 318 265 l 318 944 l 100 944 l 101 353 m 556 1029 l 551 1022 l 396 1054 l 478 1275 l 735 1275 l 589 1022 l 556 1029 z "},"Ų":{"ha":1014,"x_min":100,"x_max":914,"o":"m 914 353 q 826 108 914 204 q 588 -12 738 11 q 561 -64 572 -36 q 550 -112 550 -92 q 561 -142 550 -129 q 592 -154 572 -154 q 651 -128 621 -154 l 719 -256 q 651 -297 692 -282 q 563 -311 610 -311 q 429 -258 479 -311 q 379 -129 379 -204 q 389 -72 379 -107 q 413 -10 399 -37 q 185 110 268 14 q 101 353 101 207 l 100 944 l 318 944 l 318 365 q 369 214 318 265 q 507 163 421 163 q 644 215 593 163 q 696 365 696 267 l 696 944 l 914 944 l 914 353 z "},"Ý":{"ha":876,"x_min":14,"x_max":863,"o":"m 863 944 l 638 944 l 425 578 l 224 964 l 14 904 l 318 371 l 318 0 l 535 0 l 535 365 l 863 944 m 397 1275 l 315 1054 l 469 1022 l 615 1275 l 397 1275 z "},"Ÿ":{"ha":876,"x_min":14,"x_max":863,"o":"m 863 944 l 638 944 l 425 578 l 224 964 l 14 904 l 318 371 l 318 0 l 535 0 l 535 365 l 863 944 m 286 1046 q 358 1075 329 1046 q 388 1149 388 1104 q 358 1221 388 1190 q 286 1251 329 1251 q 213 1221 243 1251 q 182 1149 182 1190 q 213 1076 182 1106 q 286 1046 243 1046 m 564 1046 q 638 1075 608 1046 q 668 1149 668 1104 q 638 1221 668 1190 q 564 1251 608 1251 q 492 1221 524 1251 q 461 1149 461 1190 q 492 1076 461 1106 q 564 1046 522 1046 z "},"Ź":{"ha":807,"x_min":17,"x_max":788,"o":"m 783 783 l 760 944 l 57 944 l 79 774 l 528 774 l 17 160 l 42 0 l 788 0 l 765 169 l 261 169 l 783 783 m 368 1275 l 286 1054 l 440 1022 l 586 1275 l 368 1275 z "},"Ż":{"ha":807,"x_min":17,"x_max":788,"o":"m 783 783 l 760 944 l 57 944 l 79 774 l 528 774 l 17 160 l 42 0 l 788 0 l 765 169 l 261 169 l 783 783 m 397 1033 q 478 1067 446 1033 q 510 1149 510 1100 q 478 1231 510 1197 q 397 1264 446 1264 q 316 1231 350 1264 q 282 1149 282 1197 q 315 1067 282 1100 q 397 1033 349 1033 z "},"Ž":{"ha":807,"x_min":17,"x_max":788,"o":"m 783 783 l 760 944 l 57 944 l 79 774 l 528 774 l 17 160 l 42 0 l 788 0 l 765 169 l 261 169 l 783 783 m 107 1254 l 333 1026 l 458 1026 l 685 1254 l 481 1279 l 399 1190 l 317 1279 l 107 1254 z "},"Ş":{"ha":746,"x_min":44,"x_max":715,"o":"m 715 251 q 638 74 715 146 q 422 -14 560 1 l 408 -47 q 478 -102 453 -62 q 504 -181 504 -142 q 450 -295 504 -254 q 319 -336 396 -336 q 242 -322 285 -336 q 172 -287 200 -308 l 219 -175 q 303 -200 274 -200 q 335 -194 322 -200 q 349 -175 349 -187 q 313 -137 349 -151 q 228 -118 278 -122 l 272 -11 q 152 18 213 -1 q 56 60 92 38 l 118 229 q 228 185 163 206 q 346 165 294 165 q 453 190 415 165 q 490 254 490 214 q 462 303 490 281 q 369 363 433 325 q 328 386 356 369 q 180 481 233 443 q 85 575 126 518 q 44 703 44 632 q 87 837 46 778 q 204 930 128 896 q 383 964 281 964 q 526 944 453 964 q 656 890 600 924 l 589 732 q 479 771 522 760 q 386 782 436 782 q 302 760 335 782 q 269 701 269 739 q 297 648 269 671 q 383 593 324 625 q 429 568 406 583 q 582 473 529 510 q 675 380 635 436 q 715 251 715 324 z "},"Ţ":{"ha":840,"x_min":14,"x_max":826,"o":"m 468 -47 q 538 -102 513 -62 q 564 -181 564 -142 q 510 -295 564 -254 q 379 -336 456 -336 q 302 -322 344 -336 q 232 -287 260 -308 l 279 -175 q 363 -200 333 -200 q 395 -194 382 -200 q 408 -175 408 -187 q 373 -137 408 -151 q 288 -118 338 -122 l 336 0 l 296 0 l 296 774 l 14 774 l 14 944 l 800 944 l 826 774 l 514 774 l 514 0 l 488 0 l 468 -47 z "},"Ș":{"ha":746,"x_min":44,"x_max":715,"o":"m 56 60 q 195 6 106 29 q 350 -18 285 -18 q 545 17 463 -18 q 672 113 628 51 q 715 251 715 174 q 675 380 715 324 q 582 473 635 436 q 429 568 529 510 q 383 593 406 583 q 297 648 324 625 q 269 701 269 671 q 302 760 269 739 q 386 782 335 782 q 479 771 436 782 q 589 732 522 760 l 656 890 q 526 944 600 924 q 383 964 453 964 q 204 930 281 964 q 87 837 128 896 q 44 703 46 778 q 85 575 44 632 q 180 481 126 518 q 328 386 233 443 q 369 363 356 369 q 462 303 433 325 q 490 254 490 281 q 453 190 490 214 q 346 165 415 165 q 228 185 294 165 q 118 229 163 206 l 56 60 m 353 -29 q 272 -65 306 -29 q 238 -144 238 -101 q 258 -210 238 -179 q 306 -249 279 -242 q 277 -292 299 -271 q 233 -324 256 -312 l 278 -421 q 413 -315 358 -386 q 468 -167 468 -244 q 435 -67 468 -106 q 353 -29 401 -29 z "},"à":{"ha":703,"x_min":51,"x_max":636,"o":"m 138 465 q 228 496 176 483 q 319 508 279 508 q 388 484 363 508 q 417 415 414 460 l 311 415 q 121 364 190 415 q 51 210 51 313 q 114 45 51 106 q 299 -15 176 -15 q 464 71 389 -15 l 515 0 l 636 0 l 636 429 q 601 567 636 507 q 500 661 565 628 q 350 694 435 694 q 206 676 286 694 q 79 632 125 657 l 138 465 m 235 211 q 256 264 235 243 q 313 285 278 285 l 418 285 l 418 203 q 300 150 361 150 q 253 168 271 150 q 235 211 235 186 m 388 1069 l 169 1069 l 315 817 l 469 850 l 388 1069 z "},"á":{"ha":703,"x_min":51,"x_max":636,"o":"m 138 465 q 228 496 176 483 q 319 508 279 508 q 388 484 363 508 q 417 415 414 460 l 311 415 q 121 364 190 415 q 51 210 51 313 q 114 45 51 106 q 299 -15 176 -15 q 464 71 389 -15 l 515 0 l 636 0 l 636 429 q 601 567 636 507 q 500 661 565 628 q 350 694 435 694 q 206 676 286 694 q 79 632 125 657 l 138 465 m 235 211 q 256 264 235 243 q 313 285 278 285 l 418 285 l 418 203 q 300 150 361 150 q 253 168 271 150 q 235 211 235 186 m 319 1069 l 238 850 l 392 817 l 538 1069 l 319 1069 z "},"â":{"ha":703,"x_min":51,"x_max":640,"o":"m 138 465 q 228 496 176 483 q 319 508 279 508 q 388 484 363 508 q 417 415 414 460 l 311 415 q 121 364 190 415 q 51 210 51 313 q 114 45 51 106 q 299 -15 176 -15 q 464 71 389 -15 l 515 0 l 636 0 l 636 429 q 601 567 636 507 q 500 661 565 628 q 350 694 435 694 q 206 676 286 694 q 79 632 125 657 l 138 465 m 235 211 q 256 264 235 243 q 313 285 278 285 l 418 285 l 418 203 q 300 150 361 150 q 253 168 271 150 q 235 211 235 186 m 640 843 l 414 1069 l 289 1069 l 63 843 l 272 817 l 354 906 l 436 817 l 640 843 z "},"ã":{"ha":703,"x_min":51,"x_max":636,"o":"m 138 465 q 228 496 176 483 q 319 508 279 508 q 388 484 363 508 q 417 415 414 460 l 311 415 q 121 364 190 415 q 51 210 51 313 q 114 45 51 106 q 299 -15 176 -15 q 464 71 389 -15 l 515 0 l 636 0 l 636 429 q 601 567 636 507 q 500 661 565 628 q 350 694 435 694 q 206 676 286 694 q 79 632 125 657 l 138 465 m 235 211 q 256 264 235 243 q 313 285 278 285 l 418 285 l 418 203 q 300 150 361 150 q 253 168 271 150 q 235 211 235 186 m 449 1022 q 438 994 449 1007 q 414 981 428 981 q 378 986 393 981 q 344 1003 364 992 q 307 1022 324 1015 q 267 1028 290 1028 q 151 981 199 1028 q 104 833 104 935 l 251 833 q 263 861 251 847 q 286 875 274 875 q 323 869 308 875 q 354 851 338 864 q 389 833 374 839 q 429 826 404 826 q 543 874 497 826 q 589 1022 589 921 l 449 1022 z "},"ä":{"ha":703,"x_min":51,"x_max":636,"o":"m 138 465 q 228 496 176 483 q 319 508 279 508 q 388 484 363 508 q 417 415 414 460 l 311 415 q 121 364 190 415 q 51 210 51 313 q 114 45 51 106 q 299 -15 176 -15 q 464 71 389 -15 l 515 0 l 636 0 l 636 429 q 601 567 636 507 q 500 661 565 628 q 350 694 435 694 q 206 676 286 694 q 79 632 125 657 l 138 465 m 235 211 q 256 264 235 243 q 313 285 278 285 l 418 285 l 418 203 q 300 150 361 150 q 253 168 271 150 q 235 211 235 186 m 208 838 q 281 867 251 838 q 310 940 310 896 q 281 1013 310 982 q 208 1043 251 1043 q 135 1013 165 1043 q 104 940 104 982 q 135 867 104 897 q 208 838 165 838 m 486 838 q 560 867 531 838 q 590 940 590 896 q 560 1013 590 982 q 486 1043 531 1043 q 415 1013 446 1043 q 383 940 383 982 q 414 867 383 897 q 486 838 444 838 z "},"å":{"ha":703,"x_min":51,"x_max":636,"o":"m 138 465 q 228 496 176 483 q 319 508 279 508 q 388 484 363 508 q 417 415 414 460 l 311 415 q 121 364 190 415 q 51 210 51 313 q 114 45 51 106 q 299 -15 176 -15 q 464 71 389 -15 l 515 0 l 636 0 l 636 429 q 601 567 636 507 q 500 661 565 628 q 350 694 435 694 q 206 676 286 694 q 79 632 125 657 l 138 465 m 235 211 q 256 264 235 243 q 313 285 278 285 l 418 285 l 418 203 q 300 150 361 150 q 253 168 271 150 q 235 211 235 186 m 351 1125 q 239 1081 286 1125 q 192 974 192 1036 q 238 867 192 910 q 351 825 285 825 q 464 867 417 825 q 511 974 511 910 q 463 1081 511 1036 q 351 1125 415 1125 m 353 925 q 319 940 333 925 q 304 974 304 954 q 319 1006 304 992 q 353 1019 333 1019 q 386 1006 372 1019 q 400 974 400 993 q 386 940 400 954 q 353 925 372 925 z "},"ā":{"ha":703,"x_min":51,"x_max":636,"o":"m 138 465 q 228 496 176 483 q 319 508 279 508 q 388 484 363 508 q 417 415 414 460 l 311 415 q 121 364 190 415 q 51 210 51 313 q 114 45 51 106 q 299 -15 176 -15 q 464 71 389 -15 l 515 0 l 636 0 l 636 429 q 601 567 636 507 q 500 661 565 628 q 350 694 435 694 q 206 676 286 694 q 79 632 125 657 l 138 465 m 235 211 q 256 264 235 243 q 313 285 278 285 l 418 285 l 418 203 q 300 150 361 150 q 253 168 271 150 q 235 211 235 186 m 526 1022 l 157 1022 l 157 851 l 540 851 l 526 1022 z "},"ă":{"ha":703,"x_min":51,"x_max":636,"o":"m 138 465 q 228 496 176 483 q 319 508 279 508 q 388 484 363 508 q 417 415 414 460 l 311 415 q 121 364 190 415 q 51 210 51 313 q 114 45 51 106 q 299 -15 176 -15 q 464 71 389 -15 l 515 0 l 636 0 l 636 429 q 601 567 636 507 q 500 661 565 628 q 350 694 435 694 q 206 676 286 694 q 79 632 125 657 l 138 465 m 235 211 q 256 264 235 243 q 313 285 278 285 l 418 285 l 418 203 q 300 150 361 150 q 253 168 271 150 q 235 211 235 186 m 433 1063 q 413 1000 433 1025 q 357 975 393 975 q 300 1000 319 975 q 281 1063 281 1025 l 129 1063 q 190 887 129 956 q 357 817 250 818 q 524 887 463 818 q 585 1063 585 956 l 433 1063 z "},"ą":{"ha":703,"x_min":51,"x_max":792,"o":"m 792 -256 q 723 -297 764 -282 q 635 -311 682 -311 q 501 -258 551 -311 q 451 -129 451 -204 q 465 -60 451 -103 q 494 7 479 -18 l 510 7 l 464 71 q 299 -15 389 -15 q 114 45 176 -15 q 51 210 51 106 q 121 364 51 313 q 311 415 190 415 l 417 415 q 388 484 414 460 q 319 508 363 508 q 228 496 279 508 q 138 465 176 483 l 79 632 q 206 676 125 657 q 350 694 286 694 q 500 661 435 694 q 601 567 565 628 q 636 429 636 507 l 636 7 l 675 7 q 640 -49 657 -12 q 622 -112 622 -86 q 633 -142 622 -129 q 664 -154 644 -154 q 724 -128 693 -154 l 792 -256 m 313 285 q 256 264 278 285 q 235 211 235 243 q 253 168 235 186 q 300 150 271 150 q 418 203 361 150 l 418 285 l 313 285 z "},"ç":{"ha":644,"x_min":31,"x_max":626,"o":"m 626 53 q 458 -11 564 3 l 443 -47 q 513 -102 488 -62 q 539 -181 539 -142 q 485 -295 539 -254 q 354 -336 431 -336 q 277 -322 319 -336 q 207 -287 235 -308 l 254 -175 q 338 -200 308 -200 q 370 -194 357 -200 q 383 -175 383 -187 q 348 -137 383 -151 q 263 -118 313 -122 l 307 -8 q 105 106 179 17 q 31 336 31 196 q 76 526 31 444 q 203 651 121 607 q 394 694 286 694 q 513 678 447 694 q 626 625 578 661 l 565 474 q 483 505 518 496 q 408 514 449 514 q 299 464 343 514 q 256 336 256 414 q 299 211 256 258 q 408 164 343 164 q 483 174 447 164 q 565 206 519 183 l 626 53 z "},"ć":{"ha":644,"x_min":31,"x_max":626,"o":"m 626 625 q 513 678 578 661 q 394 694 447 694 q 203 651 286 694 q 76 526 121 607 q 31 336 31 444 q 76 148 31 228 q 203 26 121 68 q 394 -15 286 -15 q 515 0 450 -15 q 626 53 579 15 l 565 206 q 483 174 519 183 q 408 164 447 164 q 299 211 343 164 q 256 336 256 258 q 299 464 256 414 q 408 514 343 514 q 483 505 449 514 q 565 474 518 496 l 626 625 m 324 1069 l 242 850 l 396 817 l 542 1069 l 324 1069 z "},"č":{"ha":644,"x_min":31,"x_max":651,"o":"m 626 625 q 513 678 578 661 q 394 694 447 694 q 203 651 286 694 q 76 526 121 607 q 31 336 31 444 q 76 148 31 228 q 203 26 121 68 q 394 -15 286 -15 q 515 0 450 -15 q 626 53 579 15 l 565 206 q 483 174 519 183 q 408 164 447 164 q 299 211 343 164 q 256 336 256 258 q 299 464 256 414 q 408 514 343 514 q 483 505 449 514 q 565 474 518 496 l 626 625 m 74 1044 l 300 817 l 425 817 l 651 1044 l 447 1069 l 365 982 l 283 1069 l 74 1044 z "},"ď":{"ha":1086,"x_min":31,"x_max":1044,"o":"m 928 1031 q 1010 992 976 1031 q 1044 894 1044 954 q 987 734 1044 814 q 843 614 929 654 l 799 713 q 881 811 869 764 q 834 850 856 819 q 813 915 813 881 q 847 994 813 958 q 928 1031 881 1031 m 715 981 l 715 0 l 604 0 l 564 54 q 474 3 522 22 q 374 -15 425 -15 q 124 76 217 -15 q 31 336 31 168 q 125 599 31 504 q 382 694 219 694 q 497 667 439 694 l 497 965 l 715 981 m 256 338 q 293 206 256 254 q 397 158 331 158 q 497 197 443 158 l 497 485 q 392 519 447 519 q 293 469 331 519 q 256 338 256 419 z "},"è":{"ha":728,"x_min":31,"x_max":697,"o":"m 697 343 q 662 521 697 442 q 556 647 626 600 q 382 694 485 694 q 199 651 279 694 q 75 526 119 607 q 31 336 31 444 q 137 78 31 171 q 428 -15 243 -15 q 578 6 510 -15 q 694 61 647 26 l 633 213 q 443 160 539 160 q 265 278 296 160 l 697 278 l 697 343 m 263 401 q 299 484 268 453 q 376 515 331 515 q 453 484 425 515 q 490 401 482 453 l 263 401 m 410 1069 l 192 1069 l 338 817 l 492 850 l 410 1069 z "},"é":{"ha":728,"x_min":31,"x_max":697,"o":"m 697 343 q 662 521 697 442 q 556 647 626 600 q 382 694 485 694 q 199 651 279 694 q 75 526 119 607 q 31 336 31 444 q 137 78 31 171 q 428 -15 243 -15 q 578 6 510 -15 q 694 61 647 26 l 633 213 q 443 160 539 160 q 265 278 296 160 l 697 278 l 697 343 m 263 401 q 299 484 268 453 q 376 515 331 515 q 453 484 425 515 q 490 401 482 453 l 263 401 m 343 1069 l 261 850 l 415 817 l 561 1069 l 343 1069 z "},"ê":{"ha":728,"x_min":31,"x_max":697,"o":"m 697 343 q 662 521 697 442 q 556 647 626 600 q 382 694 485 694 q 199 651 279 694 q 75 526 119 607 q 31 336 31 444 q 137 78 31 171 q 428 -15 243 -15 q 578 6 510 -15 q 694 61 647 26 l 633 213 q 443 160 539 160 q 265 278 296 160 l 697 278 l 697 343 m 263 401 q 299 484 268 453 q 376 515 331 515 q 453 484 425 515 q 490 401 482 453 l 263 401 m 664 843 l 438 1069 l 313 1069 l 86 843 l 296 817 l 378 906 l 460 817 l 664 843 z "},"ë":{"ha":728,"x_min":31,"x_max":697,"o":"m 697 343 q 662 521 697 442 q 556 647 626 600 q 382 694 485 694 q 199 651 279 694 q 75 526 119 607 q 31 336 31 444 q 137 78 31 171 q 428 -15 243 -15 q 578 6 510 -15 q 694 61 647 26 l 633 213 q 443 160 539 160 q 265 278 296 160 l 697 278 l 697 343 m 263 401 q 299 484 268 453 q 376 515 331 515 q 453 484 425 515 q 490 401 482 453 l 263 401 m 232 838 q 304 867 275 838 q 333 940 333 896 q 304 1013 333 982 q 232 1043 275 1043 q 158 1013 189 1043 q 128 940 128 982 q 158 867 128 897 q 232 838 189 838 m 510 838 q 584 867 554 838 q 614 940 614 896 q 584 1013 614 982 q 510 1043 554 1043 q 438 1013 469 1043 q 407 940 407 982 q 438 867 407 897 q 510 838 468 838 z "},"ē":{"ha":728,"x_min":31,"x_max":697,"o":"m 697 343 q 662 521 697 442 q 556 647 626 600 q 382 694 485 694 q 199 651 279 694 q 75 526 119 607 q 31 336 31 444 q 137 78 31 171 q 428 -15 243 -15 q 578 6 510 -15 q 694 61 647 26 l 633 213 q 443 160 539 160 q 265 278 296 160 l 697 278 l 697 343 m 263 401 q 299 484 268 453 q 376 515 331 515 q 453 484 425 515 q 490 401 482 453 l 263 401 m 550 1022 l 181 1022 l 181 851 l 564 851 l 550 1022 z "},"ė":{"ha":728,"x_min":31,"x_max":697,"o":"m 697 343 q 662 521 697 442 q 556 647 626 600 q 382 694 485 694 q 199 651 279 694 q 75 526 119 607 q 31 336 31 444 q 137 78 31 171 q 428 -15 243 -15 q 578 6 510 -15 q 694 61 647 26 l 633 213 q 443 160 539 160 q 265 278 296 160 l 697 278 l 697 343 m 263 401 q 299 484 268 453 q 376 515 331 515 q 453 484 425 515 q 490 401 482 453 l 263 401 m 382 825 q 463 858 431 825 q 494 940 494 892 q 463 1022 494 989 q 382 1056 431 1056 q 301 1022 335 1056 q 267 940 267 989 q 300 858 267 892 q 382 825 333 825 z "},"ę":{"ha":728,"x_min":31,"x_max":713,"o":"m 713 -256 q 643 -297 685 -282 q 556 -311 601 -311 q 422 -258 472 -311 q 372 -129 372 -204 q 381 -74 372 -107 q 403 -15 390 -42 q 130 84 229 -8 q 31 336 31 176 q 75 526 31 444 q 199 651 119 607 q 382 694 279 694 q 556 647 485 694 q 662 521 626 600 q 697 343 697 442 l 697 278 l 265 278 q 443 160 296 160 q 633 213 539 160 l 694 61 q 583 7 646 26 l 596 7 q 560 -49 578 -12 q 543 -112 543 -86 q 554 -142 543 -129 q 585 -154 565 -154 q 644 -128 614 -154 l 713 -256 m 376 515 q 299 484 331 515 q 263 401 268 453 l 490 401 q 453 484 482 453 q 376 515 425 515 z "},"ě":{"ha":728,"x_min":31,"x_max":697,"o":"m 697 343 q 662 521 697 442 q 556 647 626 600 q 382 694 485 694 q 199 651 279 694 q 75 526 119 607 q 31 336 31 444 q 137 78 31 171 q 428 -15 243 -15 q 578 6 510 -15 q 694 61 647 26 l 633 213 q 443 160 539 160 q 265 278 296 160 l 697 278 l 697 343 m 263 401 q 299 484 268 453 q 376 515 331 515 q 453 484 425 515 q 490 401 482 453 l 263 401 m 93 1044 l 319 817 l 444 817 l 671 1044 l 467 1069 l 385 982 l 303 1069 l 93 1044 z "},"ğ":{"ha":797,"x_min":31,"x_max":715,"o":"m 715 -26 q 670 -182 715 -115 q 542 -284 625 -249 q 351 -319 460 -319 q 204 -299 296 -319 q 58 -242 113 -278 l 124 -89 q 339 -144 236 -144 q 453 -112 410 -144 q 497 -25 497 -79 l 497 13 q 374 -15 435 -15 q 124 76 217 -15 q 31 336 31 168 q 125 599 31 504 q 382 694 219 694 q 478 676 429 694 q 568 622 526 657 l 604 672 l 715 672 l 715 -26 m 397 158 q 497 197 443 158 l 497 485 q 392 519 447 519 q 293 469 331 519 q 256 338 256 419 q 293 206 256 254 q 397 158 331 158 m 450 1063 q 430 1000 450 1025 q 374 975 410 975 q 317 1000 336 975 q 297 1063 297 1025 l 146 1063 q 206 887 146 956 q 374 817 267 818 q 540 887 479 818 q 601 1063 601 956 l 450 1063 z "},"ì":{"ha":363,"x_min":-7,"x_max":293,"o":"m 72 674 l 72 0 l 290 0 l 290 674 l 72 674 m 211 1069 l -7 1069 l 139 817 l 293 850 l 211 1069 z "},"í":{"ha":363,"x_min":63,"x_max":363,"o":"m 72 674 l 72 0 l 290 0 l 290 674 l 72 674 m 144 1069 l 63 850 l 217 817 l 363 1069 l 144 1069 z "},"î":{"ha":363,"x_min":-112,"x_max":465,"o":"m 72 674 l 72 0 l 290 0 l 290 674 l 72 674 m 465 843 l 239 1069 l 114 1069 l -112 843 l 97 817 l 179 906 l 261 817 l 465 843 z "},"ï":{"ha":363,"x_min":-71,"x_max":415,"o":"m 72 674 l 72 0 l 290 0 l 290 674 l 72 674 m 33 838 q 106 867 76 838 q 135 940 135 896 q 106 1013 135 982 q 33 1043 76 1043 q -40 1013 -10 1043 q -71 940 -71 982 q -40 867 -71 897 q 33 838 -10 838 m 311 838 q 385 867 356 838 q 415 940 415 896 q 385 1013 415 982 q 311 1043 356 1043 q 240 1013 271 1043 q 208 940 208 982 q 239 867 208 897 q 311 838 269 838 z "},"ī":{"ha":363,"x_min":-18,"x_max":365,"o":"m 72 674 l 72 0 l 290 0 l 290 674 l 72 674 m 351 1022 l -18 1022 l -18 851 l 365 851 l 351 1022 z "},"į":{"ha":363,"x_min":14,"x_max":354,"o":"m 183 825 q 101 858 135 825 q 68 940 68 892 q 102 1022 68 989 q 183 1056 136 1056 q 264 1022 232 1056 q 296 940 296 989 q 264 858 296 892 q 183 825 232 825 m 354 -256 q 285 -297 326 -282 q 197 -311 244 -311 q 64 -258 114 -311 q 14 -129 14 -204 q 28 -60 14 -103 q 57 7 42 -18 l 72 7 l 72 674 l 290 674 l 290 0 l 232 0 q 199 -54 214 -21 q 185 -112 185 -87 q 196 -142 185 -129 q 226 -154 207 -154 q 286 -128 256 -154 l 354 -256 z "},"ľ":{"ha":672,"x_min":86,"x_max":631,"o":"m 513 1031 q 433 994 467 1031 q 399 915 399 958 q 420 850 399 881 q 467 811 442 819 q 385 713 456 764 l 429 614 q 573 734 515 654 q 631 894 631 814 q 597 992 631 954 q 513 1031 563 1031 m 86 965 l 86 0 l 303 0 l 303 981 l 86 965 z "},"ñ":{"ha":817,"x_min":72,"x_max":750,"o":"m 290 460 q 449 518 390 518 q 511 490 490 518 q 532 413 532 461 l 532 0 l 750 0 l 750 429 q 694 624 750 553 q 513 696 638 696 q 377 670 449 696 q 244 603 306 644 l 207 674 l 72 674 l 72 0 l 290 0 l 290 460 m 543 1022 q 533 994 543 1007 q 508 981 522 981 q 473 986 488 981 q 439 1003 458 992 q 401 1022 418 1015 q 361 1028 385 1028 q 246 981 293 1028 q 199 833 199 935 l 346 833 q 357 861 346 847 q 381 875 368 875 q 417 869 403 875 q 449 851 432 864 q 483 833 468 839 q 524 826 499 826 q 638 874 592 826 q 683 1022 683 921 l 543 1022 z "},"ń":{"ha":817,"x_min":72,"x_max":750,"o":"m 290 460 q 449 518 390 518 q 511 490 490 518 q 532 413 532 461 l 532 0 l 750 0 l 750 429 q 694 624 750 553 q 513 696 638 696 q 377 670 449 696 q 244 603 306 644 l 207 674 l 72 674 l 72 0 l 290 0 l 290 460 m 415 1069 l 333 850 l 488 817 l 633 1069 l 415 1069 z "},"ň":{"ha":817,"x_min":72,"x_max":750,"o":"m 290 460 q 449 518 390 518 q 511 490 490 518 q 532 413 532 461 l 532 0 l 750 0 l 750 429 q 694 624 750 553 q 513 696 638 696 q 377 670 449 696 q 244 603 306 644 l 207 674 l 72 674 l 72 0 l 290 0 l 290 460 m 165 1044 l 392 817 l 517 817 l 743 1044 l 539 1069 l 457 982 l 375 1069 l 165 1044 z "},"ò":{"ha":804,"x_min":31,"x_max":774,"o":"m 774 336 q 726 149 774 228 q 593 27 678 69 q 400 -15 508 -15 q 207 26 290 -15 q 77 147 124 67 q 31 339 31 226 q 78 528 31 447 q 210 651 126 608 q 403 694 294 694 q 597 652 513 694 q 727 529 681 610 q 774 336 774 449 m 401 164 q 508 211 468 164 q 549 336 549 258 q 509 464 549 414 q 404 514 469 514 q 296 466 336 514 q 256 339 256 418 q 295 212 256 260 q 401 164 335 164 m 431 1069 l 213 1069 l 358 817 l 513 850 l 431 1069 z "},"ó":{"ha":804,"x_min":31,"x_max":774,"o":"m 774 336 q 726 149 774 228 q 593 27 678 69 q 400 -15 508 -15 q 207 26 290 -15 q 77 147 124 67 q 31 339 31 226 q 78 528 31 447 q 210 651 126 608 q 403 694 294 694 q 597 652 513 694 q 727 529 681 610 q 774 336 774 449 m 401 164 q 508 211 468 164 q 549 336 549 258 q 509 464 549 414 q 404 514 469 514 q 296 466 336 514 q 256 339 256 418 q 295 212 256 260 q 401 164 335 164 m 364 1069 l 282 850 l 436 817 l 582 1069 l 364 1069 z "},"ô":{"ha":804,"x_min":31,"x_max":774,"o":"m 774 336 q 726 149 774 228 q 593 27 678 69 q 400 -15 508 -15 q 207 26 290 -15 q 77 147 124 67 q 31 339 31 226 q 78 528 31 447 q 210 651 126 608 q 403 694 294 694 q 597 652 513 694 q 727 529 681 610 q 774 336 774 449 m 401 164 q 508 211 468 164 q 549 336 549 258 q 509 464 549 414 q 404 514 469 514 q 296 466 336 514 q 256 339 256 418 q 295 212 256 260 q 401 164 335 164 m 683 843 l 457 1069 l 332 1069 l 106 843 l 315 817 l 397 906 l 479 817 l 683 843 z "},"õ":{"ha":804,"x_min":31,"x_max":774,"o":"m 774 336 q 726 149 774 228 q 593 27 678 69 q 400 -15 508 -15 q 207 26 290 -15 q 77 147 124 67 q 31 339 31 226 q 78 528 31 447 q 210 651 126 608 q 403 694 294 694 q 597 652 513 694 q 727 529 681 610 q 774 336 774 449 m 401 164 q 508 211 468 164 q 549 336 549 258 q 509 464 549 414 q 404 514 469 514 q 296 466 336 514 q 256 339 256 418 q 295 212 256 260 q 401 164 335 164 m 492 1022 q 481 994 492 1007 q 457 981 471 981 q 422 986 436 981 q 388 1003 407 992 q 350 1022 367 1015 q 310 1028 333 1028 q 194 981 242 1028 q 147 833 147 935 l 294 833 q 306 861 294 847 q 329 875 317 875 q 366 869 351 875 q 397 851 381 864 q 432 833 417 839 q 472 826 447 826 q 586 874 540 826 q 632 1022 632 921 l 492 1022 z "},"ö":{"ha":804,"x_min":31,"x_max":774,"o":"m 774 336 q 726 149 774 228 q 593 27 678 69 q 400 -15 508 -15 q 207 26 290 -15 q 77 147 124 67 q 31 339 31 226 q 78 528 31 447 q 210 651 126 608 q 403 694 294 694 q 597 652 513 694 q 727 529 681 610 q 774 336 774 449 m 401 164 q 508 211 468 164 q 549 336 549 258 q 509 464 549 414 q 404 514 469 514 q 296 466 336 514 q 256 339 256 418 q 295 212 256 260 q 401 164 335 164 m 251 838 q 324 867 294 838 q 353 940 353 896 q 324 1013 353 982 q 251 1043 294 1043 q 178 1013 208 1043 q 147 940 147 982 q 178 867 147 897 q 251 838 208 838 m 529 838 q 603 867 574 838 q 633 940 633 896 q 603 1013 633 982 q 529 1043 574 1043 q 458 1013 489 1043 q 426 940 426 982 q 457 867 426 897 q 529 838 488 838 z "},"ō":{"ha":804,"x_min":31,"x_max":774,"o":"m 774 336 q 726 149 774 228 q 593 27 678 69 q 400 -15 508 -15 q 207 26 290 -15 q 77 147 124 67 q 31 339 31 226 q 78 528 31 447 q 210 651 126 608 q 403 694 294 694 q 597 652 513 694 q 727 529 681 610 q 774 336 774 449 m 401 164 q 508 211 468 164 q 549 336 549 258 q 509 464 549 414 q 404 514 469 514 q 296 466 336 514 q 256 339 256 418 q 295 212 256 260 q 401 164 335 164 m 569 1022 l 200 1022 l 200 851 l 583 851 l 569 1022 z "},"ő":{"ha":804,"x_min":31,"x_max":774,"o":"m 774 336 q 726 149 774 228 q 593 27 678 69 q 400 -15 508 -15 q 207 26 290 -15 q 77 147 124 67 q 31 339 31 226 q 78 528 31 447 q 210 651 126 608 q 403 694 294 694 q 597 652 513 694 q 727 529 681 610 q 774 336 774 449 m 401 164 q 508 211 468 164 q 549 336 549 258 q 509 464 549 414 q 404 514 469 514 q 296 466 336 514 q 256 339 256 418 q 295 212 256 260 q 401 164 335 164 m 449 824 l 444 817 l 289 850 l 371 1069 l 628 1069 l 482 817 l 449 824 z "},"ŕ":{"ha":529,"x_min":72,"x_max":515,"o":"m 290 403 q 403 473 340 446 q 515 500 467 500 l 472 674 q 357 644 421 674 q 244 576 293 614 l 183 672 l 72 672 l 72 0 l 290 0 l 290 403 m 242 1069 l 160 850 l 314 817 l 460 1069 l 242 1069 z "},"ř":{"ha":529,"x_min":-8,"x_max":569,"o":"m 290 403 q 403 473 340 446 q 515 500 467 500 l 472 674 q 357 644 421 674 q 244 576 293 614 l 183 672 l 72 672 l 72 0 l 290 0 l 290 403 m -8 1044 l 218 817 l 343 817 l 569 1044 l 365 1069 l 283 982 l 201 1069 l -8 1044 z "},"ś":{"ha":607,"x_min":33,"x_max":575,"o":"m 33 58 q 160 3 81 21 q 294 -15 239 -15 q 503 42 432 -15 q 575 203 575 99 q 343 428 575 347 q 256 481 256 458 q 276 513 256 500 q 329 525 297 525 q 501 482 404 525 l 564 624 q 445 677 515 660 q 322 694 375 694 q 117 637 192 694 q 42 479 42 579 q 107 349 42 400 q 274 263 172 297 q 341 232 317 249 q 365 197 365 215 q 340 165 365 176 q 281 153 314 153 q 192 166 244 153 q 97 200 140 179 l 33 58 m 285 1069 l 203 850 l 357 817 l 503 1069 l 285 1069 z "},"š":{"ha":607,"x_min":33,"x_max":613,"o":"m 33 58 q 160 3 81 21 q 294 -15 239 -15 q 503 42 432 -15 q 575 203 575 99 q 343 428 575 347 q 256 481 256 458 q 276 513 256 500 q 329 525 297 525 q 501 482 404 525 l 564 624 q 445 677 515 660 q 322 694 375 694 q 117 637 192 694 q 42 479 42 579 q 107 349 42 400 q 274 263 172 297 q 341 232 317 249 q 365 197 365 215 q 340 165 365 176 q 281 153 314 153 q 192 166 244 153 q 97 200 140 179 l 33 58 m 35 1044 l 261 817 l 386 817 l 613 1044 l 408 1069 l 326 982 l 244 1069 l 35 1044 z "},"ť":{"ha":828,"x_min":14,"x_max":786,"o":"m 669 1031 q 590 994 624 1031 q 556 915 556 958 q 576 850 556 881 q 624 811 597 819 q 596 760 617 783 q 542 713 575 738 l 586 614 q 728 733 671 653 q 786 894 786 814 q 752 992 786 954 q 669 1031 718 1031 m 328 863 l 111 829 l 111 658 l 14 658 l 14 489 l 111 489 l 111 235 q 193 46 111 113 q 403 -21 275 -21 q 493 -6 444 -21 q 565 29 542 10 l 503 181 q 417 158 460 158 q 351 188 375 158 q 328 264 328 217 l 328 489 l 517 489 l 478 658 l 328 658 l 328 863 z "},"ù":{"ha":817,"x_min":67,"x_max":744,"o":"m 526 214 q 369 154 432 154 q 306 183 326 154 q 285 261 285 211 l 285 672 l 67 672 l 67 244 q 123 49 67 121 q 306 -24 179 -24 q 440 3 369 -24 q 572 69 510 29 l 624 -1 l 744 -1 l 744 672 l 526 672 l 526 214 m 440 1069 l 222 1069 l 368 817 l 522 850 l 440 1069 z "},"ú":{"ha":817,"x_min":67,"x_max":744,"o":"m 526 214 q 369 154 432 154 q 306 183 326 154 q 285 261 285 211 l 285 672 l 67 672 l 67 244 q 123 49 67 121 q 306 -24 179 -24 q 440 3 369 -24 q 572 69 510 29 l 624 -1 l 744 -1 l 744 672 l 526 672 l 526 214 m 374 1069 l 292 850 l 446 817 l 592 1069 l 374 1069 z "},"û":{"ha":817,"x_min":67,"x_max":744,"o":"m 526 214 q 369 154 432 154 q 306 183 326 154 q 285 261 285 211 l 285 672 l 67 672 l 67 244 q 123 49 67 121 q 306 -24 179 -24 q 440 3 369 -24 q 572 69 510 29 l 624 -1 l 744 -1 l 744 672 l 526 672 l 526 214 m 693 843 l 467 1069 l 342 1069 l 115 843 l 325 817 l 407 906 l 489 817 l 693 843 z "},"ü":{"ha":817,"x_min":67,"x_max":744,"o":"m 526 214 q 369 154 432 154 q 306 183 326 154 q 285 261 285 211 l 285 672 l 67 672 l 67 244 q 123 49 67 121 q 306 -24 179 -24 q 440 3 369 -24 q 572 69 510 29 l 624 -1 l 744 -1 l 744 672 l 526 672 l 526 214 m 261 838 q 333 867 304 838 q 363 940 363 896 q 333 1013 363 982 q 261 1043 304 1043 q 188 1013 218 1043 q 157 940 157 982 q 188 867 157 897 q 261 838 218 838 m 539 838 q 613 867 583 838 q 643 940 643 896 q 613 1013 643 982 q 539 1043 583 1043 q 467 1013 499 1043 q 436 940 436 982 q 467 867 436 897 q 539 838 497 838 z "},"ū":{"ha":817,"x_min":67,"x_max":744,"o":"m 526 214 q 369 154 432 154 q 306 183 326 154 q 285 261 285 211 l 285 672 l 67 672 l 67 244 q 123 49 67 121 q 306 -24 179 -24 q 440 3 369 -24 q 572 69 510 29 l 624 -1 l 744 -1 l 744 672 l 526 672 l 526 214 m 579 1022 l 210 1022 l 210 851 l 593 851 l 579 1022 z "},"ů":{"ha":817,"x_min":67,"x_max":744,"o":"m 526 214 q 369 154 432 154 q 306 183 326 154 q 285 261 285 211 l 285 672 l 67 672 l 67 244 q 123 49 67 121 q 306 -24 179 -24 q 440 3 369 -24 q 572 69 510 29 l 624 -1 l 744 -1 l 744 672 l 526 672 l 526 214 m 404 1125 q 292 1081 339 1125 q 244 974 244 1036 q 291 867 244 910 q 404 825 338 825 q 517 867 469 825 q 564 974 564 910 q 516 1081 564 1036 q 404 1125 468 1125 m 406 925 q 372 940 386 925 q 357 974 357 954 q 372 1006 357 992 q 406 1019 386 1019 q 439 1006 425 1019 q 453 974 453 993 q 439 940 453 954 q 406 925 425 925 z "},"ű":{"ha":817,"x_min":67,"x_max":744,"o":"m 526 214 q 369 154 432 154 q 306 183 326 154 q 285 261 285 211 l 285 672 l 67 672 l 67 244 q 123 49 67 121 q 306 -24 179 -24 q 440 3 369 -24 q 572 69 510 29 l 624 -1 l 744 -1 l 744 672 l 526 672 l 526 214 m 458 824 l 454 817 l 299 850 l 381 1069 l 638 1069 l 492 817 l 458 824 z "},"ų":{"ha":817,"x_min":67,"x_max":890,"o":"m 890 -256 q 822 -297 863 -282 q 733 -311 781 -311 q 600 -258 650 -311 q 550 -129 550 -204 q 564 -60 550 -103 q 593 7 578 -18 l 618 7 l 572 69 q 440 3 510 29 q 306 -24 369 -24 q 123 49 179 -24 q 67 244 67 121 l 67 672 l 285 672 l 285 261 q 306 183 285 211 q 369 154 326 154 q 526 214 432 154 l 526 672 l 744 672 l 744 7 l 774 7 q 738 -49 756 -12 q 721 -112 721 -86 q 732 -142 721 -129 q 763 -154 743 -154 q 822 -128 792 -154 l 890 -256 z "},"ý":{"ha":740,"x_min":14,"x_max":726,"o":"m 232 -17 q 175 -76 219 -50 q 58 -133 131 -103 l 132 -306 q 313 -223 231 -283 q 428 -83 396 -162 l 726 674 l 504 674 l 367 279 l 219 699 l 14 639 l 251 29 l 232 -17 m 326 1069 l 244 850 l 399 817 l 544 1069 l 326 1069 z "},"ÿ":{"ha":740,"x_min":14,"x_max":726,"o":"m 232 -17 q 175 -76 219 -50 q 58 -133 131 -103 l 132 -306 q 313 -223 231 -283 q 428 -83 396 -162 l 726 674 l 504 674 l 367 279 l 219 699 l 14 639 l 251 29 l 232 -17 m 215 838 q 288 867 258 838 q 317 940 317 896 q 288 1013 317 982 q 215 1043 258 1043 q 142 1013 172 1043 q 111 940 111 982 q 142 867 111 897 q 215 838 172 838 m 493 838 q 567 867 538 838 q 597 940 597 896 q 567 1013 597 982 q 493 1043 538 1043 q 422 1013 453 1043 q 390 940 390 982 q 421 867 390 897 q 493 838 451 838 z "},"ź":{"ha":622,"x_min":14,"x_max":607,"o":"m 67 500 l 319 500 l 14 114 l 42 0 l 607 0 l 589 172 l 283 172 l 588 551 l 576 674 l 39 674 l 67 500 m 267 1069 l 185 850 l 339 817 l 485 1069 l 267 1069 z "},"ż":{"ha":622,"x_min":14,"x_max":607,"o":"m 67 500 l 319 500 l 14 114 l 42 0 l 607 0 l 589 172 l 283 172 l 588 551 l 576 674 l 39 674 l 67 500 m 304 825 q 385 858 353 825 q 417 940 417 892 q 385 1022 417 989 q 304 1056 353 1056 q 223 1022 257 1056 q 189 940 189 989 q 222 858 189 892 q 304 825 256 825 z "},"ž":{"ha":622,"x_min":14,"x_max":607,"o":"m 67 500 l 319 500 l 14 114 l 42 0 l 607 0 l 589 172 l 283 172 l 588 551 l 576 674 l 39 674 l 67 500 m 17 1044 l 243 817 l 368 817 l 594 1044 l 390 1069 l 308 982 l 226 1069 l 17 1044 z "},"ş":{"ha":607,"x_min":33,"x_max":575,"o":"m 575 203 q 523 59 575 114 q 369 -10 471 4 l 354 -47 q 424 -102 399 -62 q 450 -181 450 -142 q 396 -295 450 -254 q 265 -336 342 -336 q 188 -322 231 -336 q 118 -287 146 -308 l 165 -175 q 249 -200 219 -200 q 281 -194 268 -200 q 294 -175 294 -187 q 259 -137 294 -151 q 174 -118 224 -122 l 218 -8 q 33 58 92 11 l 97 200 q 192 166 140 179 q 281 153 244 153 q 340 165 314 153 q 365 197 365 176 q 341 232 365 215 q 274 263 317 249 q 107 349 172 297 q 42 479 42 400 q 117 637 42 579 q 322 694 192 694 q 445 677 375 694 q 564 624 515 660 l 501 482 q 329 525 404 525 q 276 513 297 525 q 256 481 256 500 q 343 428 256 458 q 575 203 575 347 z "},"ţ":{"ha":582,"x_min":14,"x_max":565,"o":"m 404 -47 q 474 -102 449 -62 q 500 -181 500 -142 q 446 -295 500 -254 q 315 -336 392 -336 q 238 -322 281 -336 q 168 -287 196 -308 l 215 -175 q 299 -200 269 -200 q 331 -194 318 -200 q 344 -175 344 -187 q 309 -137 344 -151 q 224 -118 274 -122 l 272 1 q 154 88 197 28 q 111 235 111 147 l 111 489 l 14 489 l 14 658 l 111 658 l 111 829 l 328 863 l 328 658 l 478 658 l 517 489 l 328 489 l 328 264 q 351 188 328 217 q 417 158 375 158 q 503 181 460 158 l 565 29 q 499 -3 543 11 q 415 -21 456 -18 l 404 -47 z "},"ș":{"ha":607,"x_min":33,"x_max":575,"o":"m 33 58 q 160 3 81 21 q 294 -15 239 -15 q 503 42 432 -15 q 575 203 575 99 q 343 428 575 347 q 256 481 256 458 q 276 513 256 500 q 329 525 297 525 q 501 482 404 525 l 564 624 q 445 677 515 660 q 322 694 375 694 q 117 637 192 694 q 42 479 42 579 q 107 349 42 400 q 274 263 172 297 q 341 232 317 249 q 365 197 365 215 q 340 165 365 176 q 281 153 314 153 q 192 166 244 153 q 97 200 140 179 l 33 58 m 299 -29 q 217 -65 251 -29 q 183 -144 183 -101 q 204 -210 183 -179 q 251 -249 225 -242 q 223 -292 244 -271 q 179 -324 201 -312 l 224 -421 q 359 -315 304 -386 q 414 -167 414 -244 q 381 -67 414 -106 q 299 -29 347 -29 z "},"­":{"ha":167,"x_min":0,"x_max":0,"o":""},"µ":{"ha":831,"x_min":81,"x_max":758,"o":"m 758 -1 l 624 -1 l 586 69 q 453 3 524 29 q 319 -24 383 -24 l 299 -24 l 299 -290 l 81 -304 l 81 672 l 299 672 l 299 261 q 319 183 299 211 q 383 154 340 154 q 540 214 446 154 l 540 672 l 758 672 l 758 -1 z "},"ˉ":{"ha":411,"x_min":14,"x_max":397,"o":"m 383 1022 l 14 1022 l 14 851 l 397 851 l 383 1022 z "},"ℓ":{"ha":646,"x_min":14,"x_max":604,"o":"m 65 219 q 129 247 79 225 l 129 224 q 203 45 129 106 q 408 -15 278 -15 q 505 3 454 -15 q 589 51 556 22 l 521 196 q 426 165 481 165 q 347 253 347 165 l 347 381 q 533 567 463 468 q 604 763 604 667 q 540 917 604 860 q 375 975 475 975 q 253 947 310 975 q 163 868 197 919 q 129 750 129 817 l 129 464 q 14 406 97 444 l 65 219 m 404 754 q 343 607 404 682 l 343 742 q 351 782 343 767 q 374 797 358 797 q 396 785 388 797 q 404 754 404 774 z "},"Ω":{"ha":996,"x_min":44,"x_max":950,"o":"m 722 474 q 688 287 722 372 q 590 172 654 201 l 590 0 l 935 0 l 950 172 l 847 172 q 921 313 894 232 q 947 475 947 394 q 893 731 947 619 q 737 903 839 842 q 497 965 635 965 q 258 903 360 965 q 103 731 157 842 q 49 475 49 619 q 75 312 49 393 q 149 172 101 231 l 44 172 l 60 0 l 404 0 l 404 172 q 306 287 340 201 q 272 474 272 372 q 333 700 272 617 q 497 783 394 783 q 661 700 600 783 q 722 474 722 617 z "},"∆":{"ha":943,"x_min":14,"x_max":929,"o":"m 929 0 l 929 25 l 549 944 l 396 944 l 14 0 l 929 0 m 468 631 l 653 172 l 288 172 l 468 631 z "},"∕":{"ha":667,"x_min":14,"x_max":653,"o":"m 238 -3 l 653 981 l 428 983 l 14 0 l 238 -3 z "},"∙":{"ha":407,"x_min":42,"x_max":365,"o":"m 203 299 q 317 346 269 299 q 365 460 365 393 q 317 573 365 525 q 203 621 269 621 q 89 573 136 621 q 42 460 42 525 q 89 345 42 392 q 203 299 136 299 z "},"₺":{"ha":814,"x_min":0,"x_max":786,"o":"m 332 0 q 572 58 469 0 q 731 222 675 115 q 786 469 786 328 l 563 469 q 533 320 563 383 q 450 224 503 257 q 332 189 397 190 l 332 476 l 547 553 l 508 700 l 332 639 l 332 690 l 547 765 l 508 913 l 332 851 l 332 982 l 114 963 l 114 774 l 0 733 l 19 579 l 114 613 l 114 561 l 0 521 l 19 368 l 114 400 l 114 0 l 332 0 z "},"₽":{"ha":875,"x_min":17,"x_max":843,"o":"m 331 254 l 668 254 l 682 97 l 331 97 l 331 0 l 114 0 l 114 97 l 32 97 l 17 254 l 114 254 l 114 317 l 32 317 l 17 472 l 114 472 l 114 944 l 463 944 q 736 864 629 944 q 843 625 843 783 q 789 448 843 519 q 645 342 735 376 q 450 308 556 308 l 331 308 l 331 254 m 458 483 q 572 519 529 483 q 617 619 615 554 q 574 732 617 694 q 456 769 532 769 l 331 769 l 331 483 l 458 483 z "},"¢":{"ha":644,"x_min":31,"x_max":626,"o":"m 626 53 q 501 -3 579 15 l 501 -167 l 306 -167 l 306 -7 q 104 106 178 17 q 31 336 31 196 q 104 569 31 476 q 304 686 178 661 l 304 844 l 500 863 l 500 681 q 626 625 574 664 l 565 474 q 483 505 518 496 q 408 514 449 514 q 299 464 343 514 q 256 336 256 414 q 299 211 256 258 q 408 164 343 164 q 483 174 447 164 q 565 206 519 183 l 626 53 z "},"£":{"ha":714,"x_min":58,"x_max":700,"o":"m 675 169 l 368 169 q 385 269 385 207 l 385 388 l 601 388 l 560 557 l 385 557 l 385 664 q 408 741 385 713 q 478 769 432 769 q 519 764 496 769 q 564 747 543 758 l 626 897 q 554 934 603 918 q 464 950 506 950 q 251 881 333 950 q 168 690 168 813 l 168 557 l 58 557 l 58 388 l 168 388 l 168 275 q 144 198 168 225 q 60 169 119 171 l 74 0 l 700 0 l 675 169 z "},"¤":{"ha":1053,"x_min":42,"x_max":1011,"o":"m 854 169 q 899 344 896 243 q 856 515 896 440 l 1003 663 l 860 815 l 708 660 q 528 701 625 701 q 344 658 431 701 l 197 811 l 42 663 l 200 511 q 158 340 158 432 q 199 171 158 249 l 50 22 l 193 -131 l 344 26 q 529 -17 426 -14 q 708 25 629 -14 l 856 -128 l 1011 22 l 854 169 m 681 343 q 635 233 679 278 q 528 188 592 188 q 422 233 465 189 q 376 342 378 278 q 421 450 378 406 q 526 496 464 494 q 634 451 589 496 q 681 343 679 407 z "},"¥":{"ha":876,"x_min":14,"x_max":863,"o":"m 535 225 l 742 225 l 756 78 l 535 78 l 535 0 l 318 0 l 318 78 l 135 78 l 121 225 l 318 225 l 318 290 l 135 290 l 121 438 l 281 438 l 14 904 l 224 964 l 425 578 l 638 944 l 863 944 l 575 438 l 742 438 l 756 290 l 535 290 l 535 225 z "},"€":{"ha":888,"x_min":0,"x_max":871,"o":"m 871 47 q 741 -1 818 17 q 597 -18 664 -18 q 315 62 429 -18 q 156 281 201 142 l 17 281 l 0 428 l 128 428 l 126 468 q 128 515 126 500 l 17 515 l 0 664 l 160 664 q 326 882 210 801 q 597 963 442 963 q 732 944 658 963 q 861 893 806 926 l 796 743 q 684 775 721 767 q 596 783 647 783 q 486 752 538 783 q 400 664 435 721 l 663 664 l 676 515 l 354 515 q 351 469 351 485 q 353 428 351 442 l 663 428 l 676 281 l 399 281 q 483 192 432 224 q 596 161 535 161 q 789 208 694 161 l 871 47 z "},"$":{"ha":746,"x_min":44,"x_max":715,"o":"m 571 929 q 656 890 614 914 l 589 732 q 479 771 522 760 q 386 782 436 782 q 302 760 335 782 q 269 701 269 739 q 297 648 269 671 q 383 593 324 625 q 429 568 406 583 q 582 473 529 510 q 675 380 635 436 q 715 251 715 324 q 672 113 715 174 q 549 18 629 53 l 549 -174 l 404 -174 l 404 -15 q 350 -18 368 -18 l 331 -18 l 331 -171 l 188 -171 l 188 7 q 56 60 99 33 l 118 229 q 228 185 163 206 q 346 165 294 165 q 453 190 415 165 q 490 254 490 214 q 462 303 490 281 q 369 363 433 325 q 328 386 356 369 q 180 481 233 443 q 85 575 126 518 q 44 703 44 632 q 90 842 46 781 q 213 935 133 903 l 213 1099 l 356 1115 l 356 964 l 383 964 q 426 963 413 964 l 426 1099 l 571 1115 l 571 929 z "},",":{"ha":315,"x_min":28,"x_max":274,"o":"m 157 204 q 76 168 110 204 q 43 88 43 132 q 64 22 43 53 q 111 -17 85 -8 q 83 -67 104 -44 q 28 -115 63 -90 l 74 -214 q 216 -94 158 -175 q 274 67 274 -12 q 240 165 274 126 q 157 204 206 204 z "},".":{"ha":313,"x_min":42,"x_max":271,"o":"m 157 0 q 238 33 206 0 q 271 114 271 67 q 238 196 271 163 q 157 229 206 229 q 75 196 108 229 q 42 114 42 163 q 75 33 42 67 q 157 0 108 0 z "},"!":{"ha":313,"x_min":42,"x_max":271,"o":"m 267 983 l 46 983 l 71 342 l 243 281 l 267 983 m 157 229 q 75 196 108 229 q 42 114 42 163 q 75 33 42 67 q 157 0 108 0 q 238 33 206 0 q 271 114 271 67 q 238 196 271 163 q 157 229 206 229 z "},"¡":{"ha":313,"x_min":42,"x_max":271,"o":"m 156 754 q 238 788 204 754 q 271 869 271 821 q 238 951 271 918 q 156 983 204 983 q 75 950 108 983 q 42 869 42 917 q 75 788 42 821 q 156 754 108 754 m 44 0 l 265 0 l 242 642 l 69 703 l 44 0 z "},":":{"ha":313,"x_min":42,"x_max":271,"o":"m 157 431 q 238 464 206 431 q 271 544 271 497 q 238 626 271 593 q 157 660 204 660 q 76 626 110 660 q 42 544 42 593 q 75 464 42 497 q 157 431 108 431 m 157 0 q 238 33 206 0 q 271 114 271 67 q 238 196 271 163 q 157 229 206 229 q 75 196 108 229 q 42 114 42 163 q 75 33 42 67 q 157 0 108 0 z "},";":{"ha":317,"x_min":28,"x_max":275,"o":"m 161 660 q 78 626 113 660 q 44 544 44 592 q 78 464 44 497 q 161 431 113 431 q 242 464 210 431 q 275 544 275 497 q 242 626 275 593 q 161 660 208 660 m 157 229 q 77 193 111 229 q 43 114 43 157 q 64 48 43 79 q 111 10 85 17 q 83 -42 104 -18 q 28 -89 61 -65 l 74 -189 q 216 -69 158 -150 q 274 92 274 13 q 240 190 274 151 q 157 229 206 229 z "},"?":{"ha":626,"x_min":14,"x_max":585,"o":"m 281 974 q 14 899 139 974 l 42 714 q 173 776 113 757 q 276 796 233 796 q 344 774 318 796 q 371 717 371 753 q 310 624 371 671 q 153 546 250 576 l 164 321 l 328 267 l 347 442 q 523 562 461 489 q 585 715 585 635 q 503 903 585 832 q 281 974 422 974 m 233 229 q 151 196 185 229 q 118 114 118 163 q 151 33 118 67 q 233 0 185 0 q 315 33 282 0 q 349 114 349 65 q 315 196 349 163 q 233 229 282 229 z "},"¿":{"ha":626,"x_min":42,"x_max":613,"o":"m 392 693 q 474 726 440 693 q 508 808 508 760 q 474 889 508 856 q 392 922 440 922 q 311 890 344 922 q 278 808 278 857 q 310 726 278 760 q 392 693 343 693 m 344 -51 q 613 24 488 -51 l 585 208 q 349 126 453 126 q 282 148 308 126 q 256 206 256 169 q 316 299 256 251 q 474 378 376 346 l 463 603 l 299 656 l 279 482 q 103 360 165 432 q 42 207 42 288 q 123 19 42 90 q 344 -51 204 -51 z "},"*":{"ha":564,"x_min":14,"x_max":550,"o":"m 196 940 l 58 975 l 14 822 l 149 796 l 51 665 l 188 571 l 282 704 l 378 571 l 513 665 l 415 796 l 550 822 l 506 975 l 369 940 l 368 1076 l 197 1076 l 196 940 z "},"\"":{"ha":589,"x_min":28,"x_max":547,"o":"m 157 1031 q 76 994 110 1031 q 42 915 42 958 q 63 850 42 881 q 110 811 85 819 q 28 713 99 764 l 72 614 q 216 734 158 654 q 274 894 274 814 q 240 992 274 954 q 157 1031 206 1031 m 432 1031 q 351 994 385 1031 q 317 915 317 958 q 338 850 317 881 q 385 811 358 819 q 356 760 378 783 q 301 713 335 736 l 347 614 q 490 733 432 653 q 547 894 547 814 q 514 992 547 954 q 432 1031 481 1031 z "},"'":{"ha":315,"x_min":28,"x_max":274,"o":"m 157 1031 q 76 994 110 1031 q 42 915 42 958 q 63 850 42 881 q 110 811 85 819 q 28 713 99 764 l 72 614 q 216 734 158 654 q 274 894 274 814 q 240 992 274 954 q 157 1031 206 1031 z "},"‘":{"ha":315,"x_min":35,"x_max":281,"o":"m 151 614 q 231 650 197 614 q 265 729 265 686 q 244 794 265 764 q 199 833 224 825 q 226 884 206 861 q 281 933 246 907 l 236 1031 q 92 912 150 992 q 35 751 35 832 q 69 653 35 692 q 151 614 103 614 z "},"’":{"ha":315,"x_min":28,"x_max":274,"o":"m 157 1031 q 76 994 110 1031 q 42 915 42 958 q 63 850 42 881 q 110 811 85 819 q 28 713 99 764 l 72 614 q 216 734 158 654 q 274 894 274 814 q 240 992 274 954 q 157 1031 206 1031 z "},"‚":{"ha":315,"x_min":28,"x_max":274,"o":"m 157 204 q 76 168 110 204 q 42 88 42 132 q 63 23 42 54 q 110 -17 85 -8 q 82 -67 103 -44 q 28 -115 61 -89 l 72 -214 q 215 -94 157 -175 q 274 67 274 -12 q 240 165 274 126 q 157 204 206 204 z "},"“":{"ha":590,"x_min":42,"x_max":563,"o":"m 158 614 q 238 650 204 614 q 272 729 272 686 q 251 795 272 764 q 204 833 231 826 q 232 885 211 861 q 288 933 253 908 l 243 1031 q 99 912 157 992 q 42 751 42 832 q 76 653 42 692 q 158 614 110 614 m 432 614 q 514 650 479 614 q 549 729 549 686 q 526 794 549 764 q 479 833 504 825 q 507 885 486 861 q 563 933 528 908 l 517 1031 q 374 912 432 992 q 317 751 317 832 q 350 653 317 692 q 432 614 383 614 z "},"”":{"ha":589,"x_min":28,"x_max":547,"o":"m 157 1031 q 76 994 110 1031 q 42 915 42 958 q 63 850 42 881 q 110 811 85 819 q 28 713 99 764 l 72 614 q 216 734 158 654 q 274 894 274 814 q 240 992 274 954 q 157 1031 206 1031 m 432 1031 q 351 994 385 1031 q 317 915 317 958 q 338 850 317 881 q 385 811 358 819 q 356 760 378 783 q 301 713 335 736 l 347 614 q 490 733 432 653 q 547 894 547 814 q 514 992 547 954 q 432 1031 481 1031 z "},"„":{"ha":589,"x_min":28,"x_max":547,"o":"m 157 204 q 76 168 110 204 q 42 88 42 132 q 63 23 42 54 q 110 -17 85 -8 q 82 -67 103 -44 q 28 -115 61 -89 l 72 -214 q 215 -94 157 -175 q 274 67 274 -12 q 240 165 274 126 q 157 204 206 204 m 432 204 q 351 168 385 204 q 317 88 317 132 q 338 22 317 53 q 385 -17 358 -8 q 357 -66 378 -43 q 301 -115 336 -89 l 347 -214 q 490 -94 432 -175 q 547 67 547 -12 q 514 165 547 126 q 432 204 481 204 z "},"·":{"ha":313,"x_min":42,"x_max":271,"o":"m 157 250 q 238 283 206 250 q 271 365 271 317 q 238 447 271 414 q 157 479 206 479 q 75 446 108 479 q 42 365 42 413 q 75 283 42 317 q 157 250 108 250 z "},"(":{"ha":472,"x_min":69,"x_max":431,"o":"m 429 -1 q 325 206 369 71 q 281 447 281 340 q 325 681 281 550 q 431 896 369 811 l 246 947 q 114 699 158 822 q 69 446 69 576 q 115 184 69 311 q 246 -54 161 57 l 429 -1 z "},")":{"ha":472,"x_min":42,"x_max":403,"o":"m 43 894 q 147 688 103 824 q 190 446 190 553 q 146 212 190 343 q 42 -3 101 81 l 225 -54 q 358 194 313 71 q 403 447 403 317 q 356 708 403 581 q 226 947 310 835 l 43 894 z "},"[":{"ha":585,"x_min":139,"x_max":571,"o":"m 546 49 l 356 49 l 356 796 l 546 796 l 571 967 l 139 967 l 139 -121 l 571 -121 l 546 49 z "},"]":{"ha":585,"x_min":14,"x_max":446,"o":"m 38 796 l 228 796 l 228 49 l 38 49 l 14 -121 l 446 -121 l 446 967 l 14 967 l 38 796 z "},"{":{"ha":447,"x_min":42,"x_max":433,"o":"m 308 431 q 357 542 357 469 q 351 588 357 569 q 332 629 344 607 q 314 665 319 649 q 308 704 308 681 q 322 735 308 722 q 361 747 335 747 l 415 747 l 433 915 l 314 915 q 165 869 214 915 q 117 740 117 822 q 144 629 117 699 q 163 560 163 578 q 145 519 163 535 q 104 503 128 503 l 42 503 l 42 356 l 104 356 q 145 340 128 356 q 163 299 163 324 q 142 219 163 274 q 117 119 117 153 q 165 -9 117 38 q 314 -56 214 -56 l 433 -56 l 415 113 l 361 113 q 322 125 335 113 q 308 156 308 138 q 314 194 308 179 q 332 235 319 210 q 351 275 344 257 q 357 318 357 293 q 308 431 357 385 z "},"}":{"ha":446,"x_min":13,"x_max":404,"o":"m 138 431 q 89 318 89 385 q 95 275 89 293 q 114 235 101 257 q 132 194 126 210 q 138 156 138 179 q 124 125 138 138 q 85 113 111 113 l 31 113 l 13 -56 l 132 -56 q 281 -9 232 -56 q 329 119 329 38 q 318 180 329 146 q 304 222 307 214 q 283 299 283 276 q 301 340 283 324 q 342 356 318 356 l 404 356 l 404 503 l 342 503 q 301 519 318 503 q 283 560 283 535 q 292 600 283 575 q 303 631 301 625 q 323 693 317 669 q 329 740 329 717 q 281 869 329 822 q 132 915 232 915 l 13 915 l 31 747 l 85 747 q 124 735 111 747 q 138 704 138 722 q 131 663 138 679 q 114 626 125 646 q 95 586 101 604 q 89 542 89 568 q 138 431 89 469 z "},"/":{"ha":667,"x_min":14,"x_max":653,"o":"m 238 -3 l 653 981 l 428 983 l 14 0 l 238 -3 z "},"\\":{"ha":667,"x_min":14,"x_max":653,"o":"m 14 983 l 429 -3 l 653 0 l 239 986 l 14 983 z "},"|":{"ha":446,"x_min":114,"x_max":331,"o":"m 331 -18 l 331 972 l 114 990 l 114 0 l 331 -18 z "},"¦":{"ha":446,"x_min":114,"x_max":331,"o":"m 331 556 l 331 972 l 114 990 l 114 574 l 331 556 m 331 -18 l 331 399 l 114 417 l 114 0 l 331 -18 z "},"«":{"ha":571,"x_min":42,"x_max":543,"o":"m 301 242 l 196 342 l 301 440 l 261 576 l 42 374 l 42 310 l 261 108 l 301 242 m 543 242 l 439 342 l 543 440 l 506 576 l 285 374 l 285 310 l 506 108 l 543 242 z "},"»":{"ha":572,"x_min":28,"x_max":531,"o":"m 28 442 l 132 342 l 28 243 l 67 108 l 286 310 l 286 375 l 67 576 l 28 442 m 272 442 l 376 342 l 272 243 l 310 108 l 531 310 l 531 375 l 310 576 l 272 442 z "},"π":{"ha":960,"x_min":14,"x_max":946,"o":"m 586 504 l 586 0 l 803 0 l 803 504 l 946 504 l 946 674 l 14 674 l 14 504 l 156 504 l 156 0 l 372 0 l 372 504 l 586 504 z "},"†":{"ha":663,"x_min":42,"x_max":621,"o":"m 42 868 l 68 685 l 222 685 l 229 0 l 429 -3 l 438 685 l 621 685 l 596 868 l 444 868 l 444 1083 l 222 1085 l 222 868 l 42 868 z "},"‡":{"ha":681,"x_min":42,"x_max":639,"o":"m 639 214 l 614 399 l 456 399 l 456 685 l 639 685 l 614 868 l 456 868 l 458 1083 l 222 1085 l 226 868 l 42 868 l 68 685 l 226 685 l 225 399 l 42 399 l 68 214 l 226 214 l 219 -8 l 458 1 l 451 214 l 639 214 z "},"•":{"ha":407,"x_min":42,"x_max":365,"o":"m 203 299 q 317 346 269 299 q 365 460 365 393 q 317 573 365 525 q 203 621 269 621 q 89 573 136 621 q 42 460 42 525 q 89 345 42 392 q 203 299 136 299 z "},"…":{"ha":806,"x_min":42,"x_max":764,"o":"m 147 0 q 222 30 192 0 q 251 104 251 60 q 222 178 251 149 q 147 208 192 208 q 72 178 103 208 q 42 104 42 147 q 72 30 42 60 q 147 0 103 0 m 404 0 q 478 30 449 0 q 508 104 508 60 q 478 178 508 149 q 404 208 449 208 q 330 178 360 208 q 300 104 300 149 q 330 30 300 60 q 404 0 360 0 m 660 0 q 734 30 704 0 q 764 104 764 60 q 734 178 764 149 q 660 208 704 208 q 586 178 617 208 q 556 104 556 147 q 586 30 556 60 q 660 0 617 0 z "},"‹":{"ha":350,"x_min":42,"x_max":322,"o":"m 322 256 l 219 346 l 322 433 l 283 593 l 42 385 l 42 306 l 283 97 l 322 256 z "},"›":{"ha":349,"x_min":28,"x_max":307,"o":"m 28 435 l 128 346 l 28 257 l 67 97 l 307 306 l 307 385 l 67 593 l 28 435 z "},"-":{"ha":475,"x_min":42,"x_max":433,"o":"m 57 294 l 433 294 l 419 465 l 42 465 l 57 294 z "},"_":{"ha":624,"x_min":42,"x_max":582,"o":"m 57 0 l 582 0 l 568 169 l 42 169 l 57 0 z "},"–":{"ha":624,"x_min":42,"x_max":582,"o":"m 57 294 l 582 294 l 568 465 l 42 465 l 57 294 z "},"—":{"ha":779,"x_min":42,"x_max":738,"o":"m 57 294 l 738 294 l 725 465 l 42 465 l 57 294 z "},"#":{"ha":856,"x_min":42,"x_max":814,"o":"m 406 579 l 439 718 l 258 719 l 225 579 l 42 579 l 57 419 l 186 419 l 157 288 l 42 288 l 57 128 l 118 128 l 88 -14 l 265 -21 l 300 128 l 450 128 l 418 -14 l 597 -21 l 631 128 l 814 128 l 800 288 l 669 288 l 699 419 l 814 419 l 800 579 l 738 579 l 769 718 l 588 719 l 554 579 l 406 579 m 339 288 l 368 419 l 517 419 l 486 288 l 339 288 z "},"%":{"ha":1324,"x_min":99,"x_max":1225,"o":"m 564 -3 l 342 0 l 756 983 l 978 981 l 564 -3 m 400 613 q 346 566 378 582 q 279 550 314 550 q 156 601 211 550 q 99 721 99 654 q 144 846 99 782 q 267 910 192 910 q 385 860 333 910 q 444 736 444 808 q 400 613 444 675 m 274 719 q 278 724 275 721 q 282 729 282 726 q 271 739 282 733 q 267 735 271 738 q 264 729 264 732 q 268 722 264 724 q 274 719 272 719 m 1164 375 q 1225 250 1225 322 q 1181 128 1225 190 q 1126 81 1158 97 q 1058 65 1094 65 q 936 115 992 65 q 879 236 879 171 q 925 360 879 296 q 979 408 947 392 q 1047 425 1011 425 q 1164 375 1110 425 m 1054 233 q 1058 238 1056 235 q 1061 244 1061 242 q 1051 253 1061 249 q 1048 249 1051 251 q 1044 244 1044 247 q 1049 236 1044 239 q 1054 233 1053 233 z "},"+":{"ha":779,"x_min":42,"x_max":738,"o":"m 494 736 l 292 739 l 292 465 l 42 465 l 56 296 l 292 296 l 292 11 l 494 3 l 494 296 l 738 296 l 724 465 l 494 465 l 494 736 z "},"÷":{"ha":710,"x_min":42,"x_max":668,"o":"m 354 635 q 342 622 342 635 q 354 611 342 611 q 362 614 358 611 q 365 622 365 617 q 354 635 365 635 m 56 299 l 668 299 l 653 463 l 42 463 l 56 299 m 354 146 q 342 133 342 146 q 354 122 342 122 q 362 125 358 122 q 365 133 365 128 q 354 146 365 146 z "},"×":{"ha":817,"x_min":42,"x_max":775,"o":"m 533 40 l 407 208 l 264 40 l 42 40 l 308 361 l 65 672 l 283 672 l 410 504 l 553 672 l 775 672 l 508 351 l 753 40 l 533 40 z "},"±":{"ha":706,"x_min":43,"x_max":664,"o":"m 446 765 l 265 767 l 265 557 l 43 557 l 58 410 l 265 410 l 265 210 l 446 201 l 446 410 l 664 410 l 650 557 l 446 557 l 446 765 m 57 0 l 663 0 l 653 149 l 43 149 l 57 0 z "},"<":{"ha":507,"x_min":42,"x_max":479,"o":"m 479 493 l 440 678 l 42 394 l 42 297 l 440 11 l 479 197 l 269 346 l 479 493 z "},"=":{"ha":736,"x_min":42,"x_max":694,"o":"m 57 419 l 694 419 l 681 579 l 42 579 l 57 419 m 57 128 l 694 128 l 681 288 l 42 288 l 57 128 z "},">":{"ha":507,"x_min":28,"x_max":465,"o":"m 28 492 l 238 344 l 28 196 l 67 11 l 465 296 l 465 393 l 67 678 l 28 492 z "},"°":{"ha":385,"x_min":14,"x_max":371,"o":"m 193 1003 q 104 980 146 1003 q 38 917 63 957 q 14 832 14 878 q 67 711 14 760 q 193 663 119 663 q 281 685 240 663 q 347 746 322 707 q 371 832 371 785 q 347 917 371 878 q 281 980 322 957 q 193 1003 240 1003 m 239 828 q 226 797 239 811 q 194 783 213 783 q 163 799 176 783 q 149 832 149 814 q 163 863 149 849 q 194 876 176 876 q 226 862 213 876 q 239 828 239 847 z "},"¹":{"ha":449,"x_min":14,"x_max":361,"o":"m 244 1061 l 14 956 l 69 817 l 185 868 l 185 468 l 361 468 l 361 1061 l 244 1061 z "},"²":{"ha":525,"x_min":19,"x_max":497,"o":"m 247 1071 q 126 1052 181 1071 q 19 1003 71 1033 l 90 882 q 168 915 133 904 q 238 926 203 926 q 290 913 271 926 q 310 879 310 899 q 289 813 308 844 q 226 744 269 781 l 42 588 l 42 468 l 497 468 l 479 606 l 286 606 l 339 649 q 446 768 414 713 q 478 889 478 824 q 453 976 478 935 q 376 1044 428 1018 q 247 1071 324 1071 z "},"³":{"ha":542,"x_min":0,"x_max":503,"o":"m 254 1071 q 22 994 128 1071 l 100 874 q 166 913 135 900 q 232 926 197 926 q 290 914 269 926 q 310 878 310 901 q 287 831 310 850 q 213 811 264 811 l 136 811 l 153 674 l 228 674 q 296 653 271 674 q 321 596 321 633 q 296 549 321 568 q 232 531 271 531 q 163 542 196 531 q 86 581 131 554 l 0 460 q 116 406 51 425 q 240 388 181 388 q 378 414 318 388 q 470 488 438 440 q 503 594 503 535 q 474 690 503 646 q 410 751 446 735 q 466 806 440 764 q 492 886 492 847 q 428 1019 492 968 q 254 1071 365 1071 z "},"¼":{"ha":1324,"x_min":14,"x_max":1296,"o":"m 14 956 l 69 817 l 185 868 l 185 468 l 361 468 l 361 1061 l 244 1061 l 14 956 m 1108 972 l 893 972 l 72 -186 l 286 -186 l 1108 972 m 1178 36 l 1178 450 l 1049 450 l 690 31 l 710 -108 l 997 -108 l 997 -231 l 1178 -231 l 1178 -108 l 1283 -108 l 1296 36 l 1178 36 m 997 163 l 997 36 l 890 36 l 997 163 z "},"½":{"ha":1325,"x_min":14,"x_max":1297,"o":"m 244 1061 l 14 956 l 69 817 l 185 868 l 185 468 l 361 468 l 361 1061 l 244 1061 m 286 -186 l 1108 972 l 893 972 l 72 -186 l 286 -186 m 1046 451 q 924 433 979 451 q 819 382 869 414 l 890 261 q 967 295 932 283 q 1038 307 1003 307 q 1089 291 1069 307 q 1108 254 1108 275 q 1089 190 1108 219 q 1025 124 1069 161 l 842 -32 l 842 -151 l 1297 -151 l 1279 -15 l 1086 -15 l 1139 29 q 1244 149 1213 93 q 1276 268 1276 204 q 1252 356 1276 314 q 1176 424 1228 397 q 1046 451 1124 451 z "},"¾":{"ha":1317,"x_min":0,"x_max":1289,"o":"m 254 1071 q 22 994 128 1071 l 100 874 q 166 913 135 900 q 232 926 197 926 q 290 914 269 926 q 310 878 310 901 q 287 831 310 850 q 213 811 264 811 l 136 811 l 153 674 l 228 674 q 296 653 271 674 q 321 596 321 633 q 296 549 321 568 q 232 531 271 531 q 163 542 196 531 q 86 581 131 554 l 0 460 q 116 406 51 425 q 240 388 181 388 q 378 414 318 388 q 470 488 438 440 q 503 594 503 535 q 474 690 503 646 q 410 751 446 735 q 466 806 440 764 q 492 886 492 847 q 428 1019 492 968 q 254 1071 365 1071 m 321 -186 l 1143 972 l 929 972 l 108 -186 l 321 -186 m 683 31 l 704 -108 l 992 -108 l 992 -231 l 1172 -231 l 1172 -108 l 1276 -108 l 1289 36 l 1172 36 l 1172 450 l 1042 450 l 683 31 m 992 36 l 883 36 l 992 163 l 992 36 z "},"℮":{"ha":728,"x_min":31,"x_max":697,"o":"m 697 343 q 662 521 697 442 q 556 647 626 600 q 382 694 485 694 q 199 651 279 694 q 75 526 119 607 q 31 336 31 444 q 137 78 31 171 q 428 -15 243 -15 q 578 6 510 -15 q 694 61 647 26 l 633 213 q 443 160 539 160 q 265 278 296 160 l 697 278 l 697 343 m 263 401 q 299 484 268 453 q 376 515 331 515 q 453 484 425 515 q 490 401 482 453 l 263 401 z "},"∂":{"ha":804,"x_min":31,"x_max":774,"o":"m 158 1042 q 474 892 333 997 q 694 646 615 786 q 774 364 774 506 q 728 162 774 247 q 599 31 682 76 q 407 -15 515 -15 q 212 26 297 -15 q 78 147 126 67 q 31 339 31 226 q 77 527 31 446 q 204 651 124 608 q 382 694 285 694 q 411 693 401 694 q 81 897 288 829 l 158 1042 m 401 164 q 508 211 468 164 q 549 336 549 258 q 528 486 549 415 q 404 514 471 514 q 296 466 336 514 q 256 339 256 418 q 295 212 256 260 q 401 164 335 164 z "},"∏":{"ha":994,"x_min":114,"x_max":881,"o":"m 331 775 l 663 775 l 663 0 l 881 0 l 881 944 l 114 944 l 114 0 l 331 0 l 331 775 z "},"∑":{"ha":692,"x_min":42,"x_max":664,"o":"m 44 783 l 263 478 l 42 161 l 42 0 l 664 0 l 638 169 l 283 169 l 467 444 l 467 515 l 288 774 l 611 774 l 585 944 l 44 944 l 44 783 z "},"−":{"ha":678,"x_min":42,"x_max":636,"o":"m 56 294 l 636 294 l 621 465 l 42 465 l 56 294 z "},"√":{"ha":967,"x_min":14,"x_max":953,"o":"m 251 467 l 14 464 l 264 0 l 539 -3 l 953 981 l 732 983 l 400 193 l 251 467 z "},"∞":{"ha":1181,"x_min":31,"x_max":1150,"o":"m 357 668 q 190 626 264 668 q 73 508 115 583 q 31 338 31 433 q 73 174 31 246 q 190 63 115 103 q 360 24 265 24 q 486 56 425 24 q 582 135 547 88 q 690 55 626 85 q 824 25 753 25 q 991 68 917 25 q 1108 186 1065 111 q 1150 354 1150 261 q 1109 519 1150 447 q 994 630 1068 590 q 821 669 919 669 q 695 638 757 669 q 599 558 633 606 q 491 638 553 608 q 357 668 429 668 m 671 300 q 728 428 689 378 q 817 479 768 479 q 909 443 872 479 q 946 357 946 407 q 909 257 946 299 q 817 215 872 215 q 735 240 774 217 q 671 300 696 263 m 510 393 q 452 264 492 314 q 364 214 413 214 q 272 250 308 214 q 235 335 235 286 q 272 435 235 393 q 364 476 308 476 q 444 453 406 476 q 510 393 483 431 z "},"∫":{"ha":683,"x_min":0,"x_max":683,"o":"m 450 803 q 472 879 450 851 q 538 907 493 907 q 621 886 579 907 l 683 1036 q 613 1072 660 1057 q 525 1088 565 1088 q 313 1019 394 1088 q 232 829 232 951 l 232 38 q 210 -40 232 -12 q 144 -68 189 -68 q 61 -46 111 -68 l 0 -197 q 70 -233 24 -218 q 157 -249 117 -249 q 369 -180 288 -249 q 450 11 450 -111 l 450 803 z "},"≈":{"ha":761,"x_min":42,"x_max":719,"o":"m 563 633 q 545 588 561 606 q 508 569 529 569 q 378 594 458 568 q 249 621 300 621 q 99 574 157 621 q 42 421 42 528 l 197 392 q 222 438 199 418 q 267 457 244 457 q 403 431 331 457 q 528 406 469 406 q 667 453 615 406 q 719 606 719 500 l 563 633 m 563 351 q 545 305 561 324 q 508 286 529 286 q 378 313 457 286 q 249 339 294 339 q 99 291 157 339 q 42 138 42 243 l 197 110 q 221 154 199 136 q 267 172 243 172 q 403 147 333 172 q 528 121 468 121 q 667 169 615 121 q 719 322 719 218 l 563 351 z "},"≠":{"ha":757,"x_min":42,"x_max":715,"o":"m 42 582 l 57 414 l 307 414 l 250 288 l 42 288 l 57 121 l 176 121 l 117 -14 l 314 -17 l 378 121 l 715 121 l 703 288 l 453 288 l 508 414 l 715 414 l 703 582 l 582 582 l 643 718 l 443 719 l 381 582 l 42 582 z "},"≤":{"ha":531,"x_min":42,"x_max":501,"o":"m 499 578 l 461 750 l 47 525 l 47 414 l 461 189 l 499 361 l 286 469 l 499 578 m 54 0 l 501 0 l 492 149 l 42 149 l 54 0 z "},"≥":{"ha":532,"x_min":28,"x_max":488,"o":"m 33 576 l 244 468 l 33 360 l 71 189 l 485 413 l 485 524 l 71 750 l 33 576 m 40 0 l 488 0 l 476 149 l 28 149 l 40 0 z "},"‰":{"ha":1864,"x_min":31,"x_max":1832,"o":"m 565 -3 l 979 981 l 757 983 l 343 0 l 565 -3 m 272 975 q 149 945 204 975 q 63 860 94 915 q 31 731 31 804 q 97 552 31 618 q 268 486 164 486 q 393 516 338 486 q 481 601 449 546 q 514 729 514 656 q 446 908 514 840 q 272 975 378 975 m 274 824 q 324 799 307 824 q 342 728 342 774 q 322 659 342 683 q 271 635 303 635 q 220 659 238 635 q 203 731 203 683 q 223 799 203 775 q 274 824 243 824 m 1053 489 q 881 423 949 489 q 813 244 813 357 q 878 67 813 133 q 1049 1 944 1 q 1174 31 1118 1 q 1261 116 1229 61 q 1293 244 1293 171 q 1226 423 1293 357 q 1053 489 1158 489 m 1592 489 q 1469 459 1524 489 q 1382 374 1414 429 q 1350 244 1350 319 q 1417 67 1350 133 q 1588 1 1483 1 q 1711 31 1656 1 q 1799 116 1767 61 q 1832 244 1832 171 q 1765 423 1832 357 q 1592 489 1697 489 m 1054 338 q 1104 313 1086 338 q 1122 243 1122 288 q 1103 174 1122 199 q 1051 149 1083 149 q 1001 174 1019 149 q 983 246 983 199 q 1003 314 983 290 q 1054 338 1024 338 m 1593 338 q 1643 313 1625 338 q 1661 243 1661 288 q 1642 174 1661 199 q 1590 149 1622 149 q 1539 174 1557 149 q 1521 246 1521 199 q 1542 314 1521 290 q 1593 338 1563 338 z "},"⁄":{"ha":667,"x_min":14,"x_max":653,"o":"m 238 -3 l 653 981 l 428 983 l 14 0 l 238 -3 z "},"◊":{"ha":829,"x_min":42,"x_max":788,"o":"m 788 447 l 458 833 l 372 833 l 42 447 l 42 385 l 374 0 l 457 0 l 788 385 l 788 447 m 414 213 l 244 414 l 414 617 l 585 414 l 414 213 z "},"©":{"ha":1144,"x_min":31,"x_max":1114,"o":"m 1114 467 q 1047 735 1114 614 q 856 926 979 856 q 572 996 732 996 q 290 926 413 996 q 99 735 167 856 q 31 467 31 614 q 99 200 31 321 q 290 9 167 79 q 572 -61 413 -61 q 856 9 732 -61 q 1047 200 979 79 q 1114 467 1114 321 m 183 468 q 231 668 183 579 q 367 808 279 757 q 572 860 456 860 q 781 809 693 860 q 914 669 868 758 q 960 468 960 581 q 912 268 960 357 q 776 128 864 179 q 572 78 689 78 q 367 128 456 78 q 231 269 279 179 q 183 468 183 358 m 593 151 q 699 165 642 151 q 797 213 756 179 l 742 356 q 671 326 701 335 q 606 318 640 318 q 515 358 550 318 q 479 467 479 397 q 515 578 479 538 q 606 619 550 619 q 671 611 642 619 q 742 582 700 603 l 797 726 q 696 773 753 758 q 593 788 639 788 q 427 748 500 788 q 313 636 354 708 q 272 467 272 564 q 359 235 272 319 q 593 151 446 151 z "},"®":{"ha":1011,"x_min":31,"x_max":979,"o":"m 979 668 q 921 909 979 801 q 755 1078 863 1017 q 504 1140 647 1140 q 255 1078 363 1140 q 89 909 147 1017 q 31 668 31 801 q 89 431 31 538 q 255 262 147 324 q 504 200 363 200 q 755 262 647 200 q 921 431 863 324 q 979 668 979 538 m 163 669 q 203 849 163 771 q 322 972 244 928 q 504 1017 400 1017 q 688 972 610 1017 q 807 849 765 928 q 849 669 849 771 q 807 492 849 571 q 687 368 765 414 q 504 322 608 322 q 322 367 400 322 q 203 492 244 413 q 163 669 163 571 m 638 625 q 700 683 676 647 q 724 764 724 718 q 663 886 724 844 q 514 928 603 928 l 307 928 l 307 419 l 443 419 l 443 596 l 506 596 l 579 419 l 733 419 l 638 625 m 489 818 q 555 806 533 818 q 576 761 576 794 q 489 703 576 703 l 443 703 l 443 818 l 489 818 z "},"™":{"ha":1090,"x_min":14,"x_max":1044,"o":"m 14 822 l 169 822 l 169 413 l 319 413 l 319 822 l 492 822 l 475 944 l 14 944 l 14 822 m 893 413 l 1044 413 l 1044 944 l 953 944 l 797 743 l 628 944 l 532 944 l 532 413 l 683 413 l 683 663 l 771 567 l 826 575 l 893 650 l 893 413 z "},"&":{"ha":953,"x_min":44,"x_max":922,"o":"m 703 889 q 576 947 646 926 q 432 967 507 967 q 275 929 344 967 q 167 829 206 892 q 129 693 129 767 q 171 554 129 618 q 79 436 114 504 q 44 300 44 368 q 94 123 44 196 q 230 13 144 50 q 421 -25 315 -24 q 565 0 497 -25 q 689 69 633 25 l 793 -24 l 922 136 l 814 228 q 885 483 875 354 l 692 561 q 649 371 682 457 l 449 549 q 369 631 393 599 q 346 694 346 663 q 374 758 346 732 q 450 785 401 785 q 638 731 540 785 l 703 889 m 540 201 q 424 161 486 161 q 313 199 356 161 q 271 304 271 236 q 308 410 274 364 l 540 201 z "},"@":{"ha":1096,"x_min":31,"x_max":1064,"o":"m 625 610 q 468 578 543 610 q 346 479 393 546 q 299 314 299 413 q 363 144 299 207 q 553 81 426 81 q 665 111 611 81 q 769 78 707 78 q 914 119 846 78 q 1023 239 982 160 q 1064 428 1064 318 q 1002 644 1064 546 q 833 800 940 743 q 593 857 725 857 q 296 783 424 857 q 99 588 168 710 q 31 322 31 465 q 101 74 31 181 q 288 -88 172 -32 q 536 -144 404 -144 q 690 -132 619 -144 q 835 -82 761 -119 l 782 57 q 668 26 735 36 q 550 17 601 17 q 386 52 461 17 q 267 156 311 88 q 222 317 222 224 q 273 511 222 426 q 409 642 324 596 q 596 689 494 689 q 752 653 686 689 q 852 557 818 618 q 886 421 886 496 q 869 330 886 369 q 827 268 851 290 q 783 246 803 246 q 769 253 775 246 q 764 274 764 261 l 796 536 l 743 610 l 625 610 m 593 301 q 578 266 590 281 q 550 251 567 251 q 497 272 514 251 q 479 319 479 292 q 517 421 479 382 q 614 460 554 460 l 593 301 z "},"^":{"ha":646,"x_min":14,"x_max":632,"o":"m 632 197 l 401 565 l 246 565 l 14 197 l 231 197 l 325 354 l 418 197 l 632 197 z "},"~":{"ha":726,"x_min":42,"x_max":685,"o":"m 222 242 q 238 283 222 265 q 271 301 253 301 q 324 296 301 301 q 382 279 347 290 q 443 262 417 268 q 503 256 469 256 q 637 324 589 256 q 685 519 685 393 l 517 519 q 501 476 515 494 q 468 458 488 458 q 417 464 440 458 q 363 479 393 469 q 298 497 322 492 q 240 503 274 503 q 96 434 150 503 q 42 242 42 365 l 222 242 z "},"§":{"ha":913,"x_min":44,"x_max":881,"o":"m 881 369 q 837 231 881 292 q 713 138 793 171 q 715 104 715 118 q 672 -35 715 26 q 545 -131 628 -96 q 350 -165 463 -165 q 195 -142 285 -165 q 56 -87 106 -118 l 118 82 q 228 38 163 58 q 346 18 294 18 q 453 42 415 18 q 490 107 490 67 q 462 156 490 133 q 369 215 433 178 q 328 239 356 222 q 180 333 233 296 q 85 428 126 371 q 44 556 44 485 q 90 694 46 633 q 214 785 135 754 q 211 821 211 810 q 252 956 211 896 q 369 1049 293 1015 q 549 1083 446 1083 q 692 1063 618 1083 q 822 1008 765 1042 l 754 851 q 642 890 683 879 q 551 901 600 901 q 467 879 500 901 q 435 819 435 857 q 461 769 435 790 q 547 714 488 747 l 596 686 q 747 592 694 629 q 840 499 800 556 q 881 369 881 443 m 429 421 q 534 358 493 383 q 610 304 575 333 q 644 333 632 315 q 657 372 657 351 q 628 422 657 399 q 536 479 599 444 l 493 504 q 389 568 426 544 q 318 622 351 592 q 269 554 269 600 q 297 501 269 524 q 383 446 324 478 q 429 421 407 435 z "},"ª":{"ha":468,"x_min":31,"x_max":438,"o":"m 92 799 q 155 819 119 810 q 215 828 190 828 q 272 792 258 828 l 211 792 q 80 752 129 792 q 31 642 31 713 q 74 528 31 571 q 203 486 118 486 q 272 499 238 486 q 331 533 307 513 l 363 496 l 438 496 l 438 792 q 385 926 438 876 q 238 975 333 975 q 138 963 189 975 q 50 932 86 950 l 92 799 m 181 650 q 191 668 181 661 q 218 675 201 675 l 279 675 l 279 653 q 211 628 253 628 q 188 634 196 628 q 181 650 181 640 z "},"¬":{"ha":742,"x_min":14,"x_max":700,"o":"m 29 406 l 507 406 l 507 163 l 700 154 l 700 496 l 682 576 l 14 576 l 29 406 z "},"¶":{"ha":1365,"x_min":31,"x_max":1333,"o":"m 954 774 l 954 0 l 1172 0 l 1172 774 l 1333 774 l 1333 944 l 422 944 q 140 866 249 944 q 31 625 31 788 q 86 443 31 517 q 234 333 142 369 q 439 297 326 297 l 472 297 l 472 0 l 690 0 l 690 774 l 954 774 z "},"º":{"ha":547,"x_min":31,"x_max":515,"o":"m 272 975 q 96 909 161 975 q 31 731 31 843 q 92 551 31 617 q 265 486 154 486 q 447 551 379 486 q 515 728 515 617 q 451 908 515 842 q 272 975 388 975 m 275 826 q 327 801 311 826 q 343 726 343 775 q 269 632 343 632 q 219 656 235 632 q 204 731 204 681 q 223 803 204 779 q 275 826 242 826 z "},"Ģ":{"ha":900,"x_min":44,"x_max":842,"o":"m 646 172 q 533 161 582 161 q 401 197 461 161 q 306 301 342 232 q 269 469 269 371 q 309 641 269 569 q 413 748 349 713 q 550 783 478 783 q 647 774 603 783 q 764 743 692 765 l 829 893 q 693 944 775 926 q 547 963 611 963 q 292 901 407 963 q 110 726 176 839 q 44 468 44 614 q 104 214 44 324 q 274 43 164 104 q 532 -18 385 -18 q 701 1 614 -18 q 842 51 788 19 l 842 531 l 485 531 l 467 368 l 646 368 l 646 172 m 536 -29 q 455 -65 489 -29 q 421 -144 421 -101 q 442 -210 421 -179 q 489 -249 463 -242 q 460 -292 482 -271 q 417 -324 439 -312 l 461 -421 q 597 -315 542 -386 q 651 -167 651 -244 q 618 -67 651 -106 q 536 -29 585 -29 z "},"Ķ":{"ha":965,"x_min":114,"x_max":951,"o":"m 332 289 l 332 0 l 114 0 l 114 944 l 332 944 l 332 583 l 726 965 l 892 843 l 568 524 l 951 0 l 678 0 l 415 372 l 332 289 m 511 -29 q 430 -65 464 -29 q 396 -144 396 -101 q 417 -210 396 -179 q 464 -249 438 -242 q 435 -292 457 -271 q 392 -324 414 -312 l 436 -421 q 572 -315 517 -386 q 626 -167 626 -244 q 593 -67 626 -106 q 511 -29 560 -29 z "},"Ļ":{"ha":779,"x_min":114,"x_max":765,"o":"m 331 944 l 114 944 l 114 0 l 765 0 l 740 169 l 331 169 l 331 944 m 490 -29 q 409 -65 443 -29 q 375 -144 375 -101 q 396 -210 375 -179 q 443 -249 417 -242 q 415 -292 436 -271 q 371 -324 393 -312 l 415 -421 q 551 -315 496 -386 q 606 -167 606 -244 q 572 -67 606 -106 q 490 -29 539 -29 z "},"Ņ":{"ha":1054,"x_min":114,"x_max":939,"o":"m 731 0 l 939 0 l 939 944 l 722 944 l 722 374 l 322 944 l 114 944 l 114 0 l 331 0 l 331 564 l 731 0 m 542 -29 q 460 -65 494 -29 q 426 -144 426 -101 q 447 -210 426 -179 q 494 -249 468 -242 q 466 -292 488 -271 q 422 -324 444 -312 l 467 -421 q 602 -315 547 -386 q 657 -167 657 -244 q 624 -67 657 -106 q 542 -29 590 -29 z "},"Ŗ":{"ha":933,"x_min":114,"x_max":919,"o":"m 331 0 l 331 328 l 500 328 l 676 0 l 919 0 l 699 389 q 804 490 765 426 q 843 638 843 554 q 736 867 843 790 q 463 944 629 944 l 114 944 l 114 0 l 331 0 m 456 769 q 575 736 533 769 q 617 633 617 703 q 573 535 617 571 q 458 500 529 500 l 331 500 l 331 769 l 456 769 m 510 -29 q 428 -65 463 -29 q 394 -144 394 -101 q 415 -210 394 -179 q 463 -249 436 -242 q 434 -292 456 -271 q 390 -324 413 -312 l 435 -421 q 570 -315 515 -386 q 625 -167 625 -244 q 592 -67 625 -106 q 510 -29 558 -29 z "},"Ț":{"ha":840,"x_min":14,"x_max":826,"o":"m 14 774 l 296 774 l 296 0 l 514 0 l 514 774 l 826 774 l 800 944 l 14 944 l 14 774 m 413 -29 q 331 -65 365 -29 q 297 -144 297 -101 q 318 -210 297 -179 q 365 -249 339 -242 q 337 -292 358 -271 q 293 -324 315 -312 l 338 -421 q 473 -315 418 -386 q 528 -167 528 -244 q 494 -67 528 -106 q 413 -29 461 -29 z "},"ģ":{"ha":797,"x_min":31,"x_max":715,"o":"m 378 751 q 294 790 328 751 q 261 889 261 828 q 316 1037 261 965 q 451 1143 371 1108 l 496 1044 q 453 1014 475 1035 q 424 971 431 993 q 471 932 449 963 q 493 867 493 901 q 459 788 493 824 q 378 751 425 751 m 715 -26 q 670 -182 715 -115 q 542 -284 625 -249 q 351 -319 460 -319 q 204 -299 296 -319 q 58 -242 113 -278 l 124 -89 q 339 -144 236 -144 q 453 -112 410 -144 q 497 -25 497 -79 l 497 17 q 374 -15 429 -15 q 124 76 217 -15 q 31 336 31 168 q 125 599 31 504 q 382 694 219 694 q 471 674 419 694 q 567 621 522 654 l 604 672 l 715 672 l 715 -26 m 397 158 q 497 197 443 158 l 497 485 q 392 519 447 519 q 293 469 331 519 q 256 338 256 419 q 293 206 256 254 q 397 158 331 158 z "},"ķ":{"ha":753,"x_min":86,"x_max":753,"o":"m 363 268 l 514 0 l 753 0 l 517 392 l 700 542 l 574 693 l 303 454 l 303 981 l 86 965 l 86 0 l 303 0 l 303 218 l 363 268 m 408 -29 q 327 -65 361 -29 q 293 -144 293 -101 q 314 -210 293 -179 q 361 -249 335 -242 q 333 -292 354 -271 q 289 -324 311 -312 l 333 -421 q 469 -315 414 -386 q 524 -167 524 -244 q 490 -67 524 -106 q 408 -29 457 -29 z "},"ļ":{"ha":390,"x_min":86,"x_max":322,"o":"m 86 965 l 86 0 l 303 0 l 303 981 l 86 965 m 207 -29 q 126 -65 160 -29 q 92 -144 92 -101 q 113 -210 92 -179 q 160 -249 133 -242 q 131 -292 153 -271 q 88 -324 110 -312 l 132 -421 q 267 -315 213 -386 q 322 -167 322 -244 q 289 -67 322 -106 q 207 -29 256 -29 z "},"ņ":{"ha":817,"x_min":72,"x_max":750,"o":"m 290 460 q 449 518 390 518 q 511 490 490 518 q 532 413 532 461 l 532 0 l 750 0 l 750 429 q 694 624 750 553 q 513 696 638 696 q 377 670 449 696 q 244 603 306 644 l 207 674 l 72 674 l 72 0 l 290 0 l 290 460 m 417 -29 q 335 -65 369 -29 q 301 -144 301 -101 q 322 -210 301 -179 q 369 -249 343 -242 q 341 -292 363 -271 q 297 -324 319 -312 l 342 -421 q 477 -315 422 -386 q 532 -167 532 -244 q 499 -67 532 -106 q 417 -29 465 -29 z "},"ŗ":{"ha":529,"x_min":64,"x_max":515,"o":"m 290 403 q 403 473 340 446 q 515 500 467 500 l 472 674 q 357 644 421 674 q 244 576 293 614 l 183 672 l 72 672 l 72 0 l 290 0 l 290 403 m 183 -29 q 102 -65 136 -29 q 68 -144 68 -101 q 89 -210 68 -179 q 136 -249 110 -242 q 108 -292 129 -271 q 64 -324 86 -312 l 108 -421 q 244 -315 189 -386 q 299 -167 299 -244 q 265 -67 299 -106 q 183 -29 232 -29 z "},"ț":{"ha":582,"x_min":14,"x_max":565,"o":"m 328 863 l 111 829 l 111 658 l 14 658 l 14 489 l 111 489 l 111 235 q 193 46 111 113 q 403 -21 275 -21 q 493 -6 444 -21 q 565 29 542 10 l 503 181 q 417 158 460 158 q 351 188 375 158 q 328 264 328 217 l 328 489 l 517 489 l 478 658 l 328 658 l 328 863 m 349 -29 q 267 -65 301 -29 q 233 -144 233 -101 q 254 -210 233 -179 q 301 -249 275 -242 q 273 -292 294 -271 q 229 -324 251 -312 l 274 -421 q 409 -315 354 -386 q 464 -167 464 -244 q 431 -67 464 -106 q 349 -29 397 -29 z "},"அ":{"ha":1551,"x_min":35,"x_max":1433,"o":"m 1433 -175 l 1238 -175 l 1238 64 l 974 64 q 762 -129 901 -58 q 433 -200 622 -200 q 224 -169 315 -200 q 84 -84 133 -139 q 35 39 35 -29 q 92 169 35 121 q 261 217 149 217 l 825 217 q 835 311 835 257 q 774 502 835 429 q 615 578 714 575 q 663 458 663 531 q 605 320 661 375 q 464 265 549 265 q 313 321 372 265 q 253 461 253 376 q 299 603 253 540 q 426 702 344 667 q 608 738 507 738 q 829 682 731 738 q 983 529 928 626 q 1039 311 1039 432 q 1031 217 1039 263 l 1238 217 l 1238 713 l 1433 713 l 1433 -175 m 461 404 q 499 419 485 404 q 514 457 514 435 q 499 493 514 479 q 463 507 485 507 q 423 493 439 507 q 407 457 407 479 q 422 419 407 433 q 461 404 438 404 m 433 -37 q 744 64 640 -37 l 272 64 q 228 33 228 64 q 283 -17 228 4 q 433 -37 338 -37 z "},"ஆ":{"ha":1833,"x_min":35,"x_max":1819,"o":"m 1563 161 q 1700 127 1642 161 q 1789 34 1758 93 q 1819 -99 1819 -25 q 1744 -317 1819 -221 q 1533 -469 1668 -414 q 1225 -524 1399 -524 q 1028 -492 1111 -524 q 901 -407 944 -461 q 858 -285 858 -353 q 925 -143 858 -199 q 1104 -87 992 -87 l 1133 -87 l 1133 -240 l 1104 -240 q 1063 -253 1079 -240 q 1046 -289 1046 -267 q 1092 -340 1046 -319 q 1218 -361 1138 -361 q 1510 -292 1404 -361 q 1615 -103 1615 -224 q 1592 -31 1615 -60 q 1532 -3 1569 -3 q 1460 -31 1488 -3 q 1433 -101 1433 -58 l 1433 -175 l 1238 -175 l 1238 64 l 974 64 q 762 -129 901 -58 q 433 -200 622 -200 q 224 -169 315 -200 q 84 -84 133 -139 q 35 39 35 -29 q 92 169 35 121 q 261 217 149 217 l 825 217 q 835 311 835 257 q 774 502 835 429 q 615 578 714 575 q 663 458 663 531 q 605 320 661 375 q 464 265 549 265 q 313 321 372 265 q 253 461 253 376 q 299 603 253 540 q 426 702 344 667 q 608 738 507 738 q 829 682 731 738 q 983 529 928 626 q 1039 311 1039 432 q 1031 217 1039 263 l 1238 217 l 1238 713 l 1433 713 l 1433 129 q 1563 161 1494 161 m 461 404 q 499 419 485 404 q 514 457 514 435 q 499 493 514 479 q 463 507 485 507 q 423 493 439 507 q 407 457 407 479 q 422 419 407 433 q 461 404 438 404 m 433 -37 q 744 64 640 -37 l 272 64 q 228 33 228 64 q 283 -17 228 4 q 433 -37 338 -37 z "},"ஐ":{"ha":1132,"x_min":58,"x_max":1072,"o":"m 1000 140 q 1041 46 1029 86 q 1053 -37 1053 6 q 1019 -165 1053 -110 q 921 -253 985 -221 q 771 -285 857 -285 q 661 -264 714 -285 q 569 -206 608 -243 q 469 -264 528 -243 q 346 -285 411 -285 q 197 -251 263 -285 q 95 -159 132 -218 q 58 -25 58 -100 q 149 183 58 99 q 433 293 239 267 l 685 326 q 822 380 776 339 q 868 481 867 421 q 845 548 868 521 q 785 575 822 575 q 713 547 739 575 q 686 476 686 519 l 686 381 l 500 381 l 500 458 q 467 544 500 513 q 376 576 435 576 q 340 574 365 576 q 395 522 376 554 q 414 446 414 489 q 363 334 414 379 q 235 289 311 289 q 108 341 158 290 q 58 469 58 392 q 98 610 58 549 q 207 704 138 671 q 364 738 276 738 q 592 653 510 738 q 797 738 674 738 q 941 704 879 738 q 1038 613 1003 671 q 1072 481 1072 554 q 978 270 1072 353 q 685 161 883 188 l 433 128 q 263 -21 265 106 q 290 -93 263 -64 q 361 -122 317 -122 q 444 -94 413 -122 q 475 -24 475 -67 l 475 72 l 663 72 l 663 -24 q 690 -94 663 -67 q 761 -122 717 -122 q 826 -96 803 -122 q 849 -25 849 -69 q 836 46 849 3 q 800 132 824 89 l 1000 140 m 242 394 q 279 409 264 394 q 294 446 294 424 q 280 487 294 471 q 242 503 265 503 q 203 487 218 503 q 188 447 188 471 q 203 409 188 424 q 242 394 218 394 z "},"ஔ":{"ha":2971,"x_min":51,"x_max":2957,"o":"m 807 161 q 852 101 817 119 q 957 83 888 83 l 1085 83 l 1085 -64 l 957 -64 l 946 -64 q 897 -188 940 -133 q 778 -274 853 -243 q 607 -304 703 -304 q 430 -270 507 -304 q 310 -176 353 -236 q 267 -37 267 -115 l 267 13 l 456 13 l 456 -31 q 496 -110 456 -81 q 606 -140 536 -140 q 717 -112 676 -140 q 758 -37 758 -83 l 758 -18 q 640 210 640 50 l 640 374 l 803 374 q 824 322 804 342 q 878 303 844 303 q 928 328 908 303 q 947 392 947 353 q 899 488 947 444 q 769 554 851 531 q 588 578 688 578 q 383 545 475 578 q 244 458 290 513 q 321 475 278 475 q 462 426 407 475 q 517 300 517 376 q 457 164 517 218 q 306 110 397 110 q 173 142 231 110 q 83 230 115 174 q 51 358 51 286 q 121 556 51 468 q 313 692 190 643 q 588 742 435 742 q 874 697 744 742 q 1077 572 1003 651 q 1151 392 1151 492 q 1118 265 1151 321 q 1026 177 1085 208 q 892 146 967 146 q 807 161 849 146 m 308 363 q 258 344 278 363 q 239 299 239 326 q 258 251 239 271 q 307 232 278 232 q 354 251 335 232 q 374 299 374 271 q 355 344 374 326 q 308 363 336 363 m 2722 560 l 2722 0 l 2528 0 l 2528 560 l 2264 560 l 2264 0 l 2069 0 l 2069 310 q 2028 447 2069 386 q 1916 541 1988 507 q 1757 575 1844 575 q 1602 543 1668 575 q 1501 456 1536 511 q 1467 329 1467 400 q 1481 247 1467 283 q 1557 385 1492 332 q 1717 439 1622 439 q 1850 410 1790 439 q 1943 329 1910 381 q 1976 214 1976 278 q 1940 90 1976 144 q 1839 6 1904 36 q 1688 -25 1774 -25 q 1468 21 1565 -25 q 1316 147 1371 67 q 1261 329 1261 228 q 1322 540 1261 447 q 1493 685 1382 633 q 1751 738 1604 738 q 1928 708 1847 738 q 2069 625 2008 679 l 2069 713 l 2935 713 l 2957 560 l 2722 560 m 1714 293 q 1655 270 1678 293 q 1632 211 1632 247 q 1655 152 1632 175 q 1714 129 1678 129 q 1772 153 1749 129 q 1794 211 1794 176 q 1772 269 1794 246 q 1714 293 1749 293 z "},"ச":{"ha":1004,"x_min":44,"x_max":972,"o":"m 972 285 l 717 285 q 669 121 717 192 q 538 13 621 50 q 350 -25 454 -25 q 124 41 204 -25 q 44 213 44 107 q 83 335 44 282 q 194 415 121 389 l 194 713 l 950 713 l 972 560 l 717 560 l 717 439 l 950 439 l 972 285 m 386 439 l 526 439 l 526 560 l 386 560 l 386 439 m 356 138 q 476 176 426 138 q 526 285 526 215 l 353 285 q 277 265 304 285 q 250 213 250 244 q 278 158 250 179 q 356 138 306 138 z "},"எ":{"ha":1299,"x_min":58,"x_max":1285,"o":"m 1050 558 l 1050 0 l 856 0 l 856 560 l 558 560 q 337 497 410 560 q 264 329 264 435 q 278 247 264 283 q 354 385 289 332 q 514 439 419 439 q 647 410 588 439 q 740 329 707 381 q 774 214 774 278 q 738 90 774 144 q 636 6 701 36 q 485 -25 571 -25 q 265 21 363 -25 q 113 147 168 67 q 58 329 58 228 q 116 528 58 442 q 285 664 174 615 q 551 713 396 713 l 1261 713 l 1285 558 l 1050 558 m 511 293 q 452 270 475 293 q 429 211 429 247 q 452 152 429 175 q 511 129 475 129 q 569 153 546 129 q 592 211 592 176 q 569 269 592 246 q 511 293 546 293 z "},"ஏ":{"ha":1299,"x_min":58,"x_max":1285,"o":"m 1050 558 l 1050 17 q 1033 -124 1050 -74 q 956 -192 1017 -175 l 382 -347 l 321 -201 l 785 -65 q 833 -40 818 -56 q 851 1 847 -24 q 856 76 856 25 l 856 560 l 558 560 q 337 497 410 560 q 264 329 264 435 q 278 247 264 283 q 354 385 289 332 q 514 439 419 439 q 647 410 588 439 q 740 329 707 381 q 774 214 774 278 q 738 90 774 144 q 636 6 701 36 q 485 -25 571 -25 q 265 21 363 -25 q 113 147 168 67 q 58 329 58 228 q 116 528 58 442 q 285 664 174 615 q 551 713 396 713 l 1261 713 l 1285 558 l 1050 558 m 511 293 q 452 270 475 293 q 429 211 429 247 q 452 152 429 175 q 511 129 475 129 q 569 153 546 129 q 592 211 592 176 q 569 269 592 246 q 511 293 546 293 z "},"ஹ":{"ha":2436,"x_min":58,"x_max":2378,"o":"m 2018 738 q 2213 683 2132 738 q 2335 531 2293 628 q 2378 307 2378 433 q 2323 7 2378 136 q 2157 -195 2268 -122 q 1882 -268 2046 -268 l 428 -268 q 192 -337 238 -268 l 58 -236 q 175 -147 88 -179 q 410 -114 263 -114 l 1882 -114 q 2101 -1 2031 -114 q 2171 307 2171 113 q 2135 503 2171 432 q 2019 575 2099 575 q 1917 526 1951 575 q 1882 394 1882 478 l 1882 0 l 1686 0 l 1686 361 q 1649 515 1686 454 q 1542 575 1613 575 q 1451 528 1482 575 q 1419 392 1419 481 l 1419 0 l 828 0 l 828 153 q 879 347 879 250 q 799 512 879 449 q 576 575 719 575 q 413 543 483 575 q 303 456 342 511 q 264 329 264 400 q 278 247 264 283 q 354 385 289 332 q 514 439 419 439 q 647 410 588 439 q 740 329 707 381 q 774 214 774 278 q 738 90 774 144 q 636 6 701 36 q 485 -25 571 -25 q 265 21 363 -25 q 113 147 168 67 q 58 329 58 228 q 124 540 58 447 q 308 685 190 633 q 575 738 425 738 q 838 688 722 738 q 1019 549 954 638 q 1085 347 1085 460 q 1036 153 1085 243 l 1224 153 l 1224 411 q 1304 649 1224 560 q 1528 738 1385 738 q 1663 707 1601 738 q 1765 619 1724 676 q 1876 706 1810 675 q 2018 738 1942 738 m 511 293 q 452 270 475 293 q 429 211 429 247 q 452 152 429 175 q 511 129 475 129 q 569 153 546 129 q 592 211 592 176 q 569 269 592 246 q 511 293 546 293 z "},"இ":{"ha":1547,"x_min":31,"x_max":1433,"o":"m 792 988 q 1126 922 981 988 q 1353 741 1272 857 q 1433 479 1433 625 l 1433 -204 l 1238 -206 l 1238 475 q 1183 657 1238 578 q 1027 781 1128 736 q 792 825 926 825 q 533 779 639 825 q 373 651 426 733 q 319 460 319 568 q 386 197 319 322 q 639 224 507 224 q 843 203 749 224 q 894 425 894 306 q 858 533 894 492 q 754 578 821 574 q 801 458 801 531 q 743 320 800 375 q 601 265 686 265 q 450 321 510 265 q 390 461 390 376 q 435 603 390 540 q 559 702 479 667 q 740 738 639 738 q 924 697 846 738 q 1045 586 1003 657 q 1088 425 1088 515 q 1015 142 1088 275 q 1144 38 1099 99 q 1190 -96 1190 -24 q 1126 -226 1190 -176 q 957 -275 1061 -275 q 610 -210 779 -275 q 265 -275 447 -275 q 95 -226 160 -275 q 31 -96 31 -176 q 76 31 31 -28 q 204 132 121 89 q 119 460 119 283 q 201 733 119 613 q 434 920 282 853 q 792 988 586 988 m 599 390 q 647 409 628 390 q 665 457 665 428 q 647 503 665 485 q 600 521 628 521 q 550 503 569 521 q 531 457 531 485 q 550 409 531 428 q 599 390 569 390 m 640 74 q 486 63 561 74 q 615 -39 547 1 q 749 67 694 8 q 640 74 690 74 m 990 -85 q 925 10 990 -32 q 793 -110 867 -57 q 925 -125 861 -125 q 972 -113 953 -125 q 990 -85 990 -101 m 296 -125 q 426 -111 367 -125 q 299 3 357 -62 q 231 -85 231 -36 q 249 -113 231 -101 q 296 -125 267 -125 z "},"ஈ":{"ha":1214,"x_min":114,"x_max":1200,"o":"m 310 560 l 310 0 l 114 0 l 114 713 l 1178 713 l 1200 558 l 860 558 l 860 0 l 664 0 l 664 560 l 310 560 m 486 169 q 569 201 536 169 q 601 282 601 232 q 569 365 601 332 q 486 397 536 397 q 404 365 436 397 q 372 282 372 332 q 404 201 372 232 q 486 169 436 169 m 1035 169 q 1118 201 1086 169 q 1150 282 1150 232 q 1118 365 1150 332 q 1035 397 1086 397 q 954 365 986 397 q 922 282 922 332 q 954 201 922 232 q 1035 169 986 169 z "},"ஜ":{"ha":1132,"x_min":58,"x_max":1072,"o":"m 832 144 q 1007 83 942 144 q 1072 -76 1072 22 q 1003 -226 1072 -168 q 815 -283 933 -283 l 713 -283 l 713 -136 l 799 -136 q 854 -119 833 -136 q 875 -74 875 -101 q 860 -28 875 -46 q 818 -11 844 -11 q 756 -35 785 -11 q 685 -107 726 -58 q 596 -197 636 -162 q 494 -258 556 -232 q 353 -285 433 -285 q 199 -251 265 -285 q 95 -159 132 -218 q 58 -25 58 -100 q 149 183 58 99 q 433 293 239 267 l 685 326 q 822 380 776 339 q 868 481 867 421 q 845 548 868 521 q 785 575 822 575 q 713 547 739 575 q 686 476 686 519 l 686 381 l 500 381 l 500 458 q 467 544 500 513 q 376 576 435 576 q 340 574 365 576 q 395 522 376 554 q 414 446 414 489 q 363 334 414 379 q 235 289 311 289 q 108 341 158 290 q 58 469 58 392 q 98 610 58 549 q 207 704 138 671 q 364 738 276 738 q 592 653 510 738 q 797 738 674 738 q 941 704 879 738 q 1038 613 1003 671 q 1072 481 1072 554 q 978 270 1072 353 q 685 161 883 188 l 433 128 q 263 -21 263 104 q 291 -93 263 -64 q 367 -122 319 -122 q 448 -96 411 -122 q 543 -11 485 -69 q 632 69 594 39 q 720 122 669 100 q 832 144 771 144 m 242 394 q 279 409 264 394 q 294 446 294 424 q 280 487 294 471 q 242 503 265 503 q 203 487 218 503 q 188 447 188 471 q 203 409 188 424 q 242 394 218 394 z "},"க":{"ha":1067,"x_min":44,"x_max":1036,"o":"m 743 439 q 899 409 833 439 q 1001 326 965 379 q 1036 206 1036 274 q 999 87 1036 139 q 894 5 963 35 q 733 -25 826 -25 l 733 129 q 808 149 783 129 q 833 206 833 169 q 812 264 833 243 q 744 285 790 285 l 717 285 q 669 121 717 192 q 538 13 621 50 q 350 -25 454 -25 q 124 41 204 -25 q 44 213 44 107 q 83 335 44 282 q 194 415 121 389 l 194 713 l 950 713 l 972 560 l 717 560 l 717 439 l 743 439 m 386 439 l 526 439 l 526 560 l 386 560 l 386 439 m 356 138 q 476 176 426 138 q 526 285 526 215 l 353 285 q 277 265 304 285 q 250 213 250 244 q 278 158 250 179 q 356 138 306 138 z "},"ல":{"ha":1574,"x_min":58,"x_max":1514,"o":"m 1396 732 q 1484 531 1454 636 q 1514 343 1514 425 q 1426 76 1514 176 q 1172 -25 1338 -25 q 935 65 1021 -25 q 849 303 849 154 l 849 347 q 813 466 849 414 q 714 547 778 518 q 567 575 650 575 q 408 543 476 575 q 301 455 339 511 q 264 329 264 399 q 278 247 264 283 q 354 385 289 332 q 514 439 419 439 q 647 410 588 439 q 740 329 707 381 q 774 214 774 278 q 738 90 774 144 q 636 6 701 36 q 485 -25 571 -25 q 265 21 363 -25 q 113 147 168 67 q 58 329 58 228 q 122 540 58 447 q 302 685 186 633 q 565 738 418 738 q 814 688 706 738 q 983 549 922 638 q 1043 347 1043 461 l 1043 303 q 1076 181 1043 225 q 1174 138 1110 138 q 1275 193 1242 138 q 1308 343 1308 249 q 1278 527 1308 422 q 1194 713 1247 632 l 1396 732 m 511 293 q 452 270 475 293 q 429 211 429 247 q 452 152 429 175 q 511 129 475 129 q 569 153 546 129 q 592 211 592 176 q 569 269 592 246 q 511 293 546 293 z "},"ள":{"ha":1768,"x_min":58,"x_max":1754,"o":"m 1519 560 l 1519 0 l 1325 0 l 1325 560 l 1061 560 l 1061 0 l 867 0 l 867 310 q 826 447 867 386 q 713 541 785 507 q 554 575 642 575 q 399 543 465 575 q 299 456 333 511 q 264 329 264 400 q 278 247 264 283 q 354 385 289 332 q 514 439 419 439 q 647 410 588 439 q 740 329 707 381 q 774 214 774 278 q 738 90 774 144 q 636 6 701 36 q 485 -25 571 -25 q 265 21 363 -25 q 113 147 168 67 q 58 329 58 228 q 119 540 58 447 q 290 685 179 633 q 549 738 401 738 q 725 708 644 738 q 867 625 806 679 l 867 713 l 1732 713 l 1754 560 l 1519 560 m 511 293 q 452 270 475 293 q 429 211 429 247 q 452 152 429 175 q 511 129 475 129 q 569 153 546 129 q 592 211 592 176 q 569 269 592 246 q 511 293 546 293 z "},"ழ":{"ha":1289,"x_min":114,"x_max":1231,"o":"m 744 -35 q 768 -110 744 -89 q 839 -132 792 -132 l 1040 -132 l 1063 -285 l 785 -285 q 663 -384 740 -349 q 489 -419 586 -419 q 317 -382 393 -419 q 199 -279 242 -344 q 157 -132 157 -214 l 353 -132 q 390 -220 353 -185 q 488 -256 428 -256 q 580 -239 544 -256 q 624 -194 615 -222 q 569 -140 589 -176 q 550 -56 550 -103 l 550 0 l 114 0 l 114 713 l 310 719 l 310 153 l 550 153 l 550 406 q 633 646 550 554 q 869 738 717 738 q 1060 686 978 738 q 1186 543 1142 635 q 1231 336 1231 451 q 1140 92 1231 185 q 881 0 1050 0 l 744 0 l 744 -35 m 881 153 q 993 200 961 153 q 1025 336 1025 247 q 985 509 1025 443 q 871 575 944 575 q 774 527 803 575 q 744 394 744 479 l 744 153 l 881 153 z "},"ம":{"ha":1289,"x_min":114,"x_max":1231,"o":"m 869 738 q 1060 686 978 738 q 1186 543 1142 635 q 1231 336 1231 451 q 1140 92 1231 185 q 881 0 1050 0 l 114 0 l 114 713 l 310 719 l 310 153 l 550 153 l 550 406 q 633 646 550 554 q 869 738 717 738 m 881 153 q 993 200 961 153 q 1025 336 1025 247 q 985 509 1025 443 q 871 575 944 575 q 774 527 803 575 q 744 394 744 479 l 744 153 l 881 153 z "},"ந":{"ha":1147,"x_min":114,"x_max":1088,"o":"m 807 474 q 957 429 893 474 q 1054 307 1021 385 q 1088 129 1088 229 q 1043 -76 1088 14 q 915 -217 999 -165 q 714 -268 831 -268 l 483 -268 q 247 -337 293 -268 l 114 -236 q 227 -144 146 -174 q 464 -114 308 -114 l 714 -114 q 842 -49 800 -114 q 883 125 883 17 q 854 258 883 207 q 775 308 825 308 q 705 281 732 308 q 678 213 678 254 l 678 0 l 483 0 l 483 560 l 310 560 l 310 0 l 114 0 l 114 713 l 889 713 l 913 558 l 678 558 l 678 442 q 807 474 733 474 z "},"ங":{"ha":1474,"x_min":114,"x_max":1358,"o":"m 1358 0 l 476 0 l 476 153 l 699 153 q 805 181 769 153 q 840 257 840 210 q 819 319 840 294 q 761 343 797 343 q 697 319 722 343 q 671 260 671 294 l 671 228 l 476 228 l 476 560 l 310 560 l 310 0 l 114 0 l 114 713 l 883 713 l 906 558 l 671 558 l 671 483 q 792 507 725 507 q 923 475 865 507 q 1013 387 981 443 q 1046 258 1046 331 q 1021 153 1046 199 l 1164 153 l 1164 713 l 1358 713 l 1358 0 z "},"ண":{"ha":2538,"x_min":58,"x_max":2524,"o":"m 2289 560 l 2289 0 l 2094 0 l 2094 560 l 1978 560 q 1864 546 1922 560 q 1975 249 1975 417 q 1940 106 1975 168 q 1841 10 1904 44 q 1694 -25 1778 -25 q 1547 10 1611 -25 q 1447 106 1482 44 q 1411 249 1411 168 q 1447 411 1411 333 q 1546 550 1482 489 q 1394 575 1478 575 q 1228 544 1307 575 q 1335 406 1297 482 q 1374 249 1374 331 q 1338 106 1374 168 q 1239 10 1303 44 q 1093 -25 1175 -25 q 945 10 1010 -25 q 845 106 881 44 q 810 249 810 168 q 838 399 810 326 q 917 532 865 471 q 664 575 799 575 q 449 542 540 575 q 311 451 358 510 q 264 319 264 393 q 278 242 264 275 q 352 384 286 329 q 514 439 418 439 q 647 410 588 439 q 740 329 707 381 q 774 214 774 278 q 738 90 774 144 q 636 6 701 36 q 485 -25 571 -25 q 265 20 363 -25 q 113 144 168 65 q 58 319 58 222 q 132 535 58 440 q 343 683 206 629 q 664 738 481 738 q 1063 653 885 738 q 1393 738 1213 738 q 1717 661 1572 738 q 1978 713 1836 713 l 2501 713 l 2524 560 l 2289 560 m 1693 132 q 1754 163 1732 132 q 1776 243 1776 194 q 1697 453 1776 365 q 1633 358 1656 411 q 1611 243 1611 304 q 1633 163 1611 194 q 1693 132 1656 132 m 1092 132 q 1151 163 1129 132 q 1174 243 1174 194 q 1078 438 1174 353 q 1008 243 1008 353 q 1031 163 1008 194 q 1092 132 1054 132 m 511 293 q 452 270 475 293 q 429 211 429 247 q 452 152 429 175 q 511 129 475 129 q 569 153 546 129 q 592 211 592 176 q 569 269 592 246 q 511 293 546 293 z "},"ன":{"ha":1936,"x_min":58,"x_max":1922,"o":"m 1688 560 l 1688 0 l 1493 0 l 1493 560 l 1375 560 q 1236 538 1299 560 q 1338 403 1301 476 q 1374 250 1374 331 q 1338 107 1374 169 q 1239 10 1303 44 q 1093 -25 1175 -25 q 945 10 1010 -25 q 845 107 881 44 q 810 250 810 169 q 839 399 810 328 q 924 529 868 469 q 664 575 801 575 q 449 542 540 575 q 311 451 358 510 q 264 319 264 393 q 278 242 264 275 q 352 384 286 329 q 514 439 418 439 q 647 410 588 439 q 740 329 707 381 q 774 214 774 278 q 738 90 774 144 q 636 6 701 36 q 485 -25 571 -25 q 265 20 363 -25 q 113 144 168 65 q 58 319 58 222 q 132 535 58 440 q 343 683 206 629 q 664 738 481 738 q 1079 644 890 738 q 1375 713 1215 713 l 1900 713 l 1922 560 l 1688 560 m 1092 132 q 1151 163 1129 132 q 1174 243 1174 194 q 1149 347 1174 297 q 1079 436 1125 396 q 1008 243 1008 354 q 1031 163 1008 194 q 1092 132 1054 132 m 511 293 q 452 270 475 293 q 429 211 429 247 q 452 152 429 175 q 511 129 475 129 q 569 153 546 129 q 592 211 592 176 q 569 269 592 246 q 511 293 546 293 z "},"ஞ":{"ha":1869,"x_min":86,"x_max":1811,"o":"m 1526 474 q 1737 385 1663 474 q 1811 149 1811 296 q 1708 -140 1811 -14 q 1415 -335 1606 -265 q 971 -404 1225 -404 q 507 -324 707 -404 q 197 -97 307 -243 q 86 243 86 50 q 142 506 86 372 q 289 726 199 639 l 489 713 q 346 504 401 633 q 290 240 290 375 q 374 -15 290 94 q 613 -183 458 -124 q 969 -242 767 -242 q 1308 -194 1164 -242 q 1530 -60 1453 -147 q 1607 144 1607 28 q 1578 266 1607 221 q 1500 311 1550 311 q 1426 280 1456 311 q 1396 206 1396 249 l 1396 0 l 1201 0 l 1201 560 l 935 560 q 715 497 788 560 q 642 329 642 435 q 656 250 642 283 q 731 386 667 333 q 890 439 796 439 q 1023 410 964 439 q 1115 329 1082 381 q 1149 214 1149 278 q 1113 90 1149 144 q 1011 6 1076 36 q 861 -25 946 -25 q 642 21 740 -25 q 490 147 544 67 q 435 329 435 228 q 492 528 435 442 q 661 664 550 615 q 928 713 772 713 l 1608 713 l 1631 558 l 1396 558 l 1396 439 q 1526 474 1454 474 m 888 293 q 828 270 851 293 q 806 211 806 247 q 828 152 806 175 q 888 129 851 129 q 946 152 922 129 q 969 211 969 175 q 946 269 969 246 q 888 293 922 293 z "},"ஒ":{"ha":1203,"x_min":51,"x_max":1151,"o":"m 807 161 q 852 101 817 119 q 957 83 888 83 l 1085 83 l 1085 -64 l 957 -64 l 946 -64 q 897 -188 940 -133 q 778 -274 853 -243 q 607 -304 703 -304 q 430 -270 507 -304 q 310 -176 353 -236 q 267 -37 267 -115 l 267 13 l 456 13 l 456 -31 q 496 -110 456 -81 q 606 -140 536 -140 q 717 -112 676 -140 q 758 -37 758 -83 l 758 -18 q 640 210 640 50 l 640 374 l 803 374 q 824 322 804 342 q 878 303 844 303 q 928 328 908 303 q 947 392 947 353 q 899 488 947 444 q 769 554 851 531 q 588 578 688 578 q 383 545 475 578 q 244 458 290 513 q 321 475 278 475 q 462 426 407 475 q 517 300 517 376 q 457 164 517 218 q 306 110 397 110 q 173 142 231 110 q 83 230 115 174 q 51 358 51 286 q 121 556 51 468 q 313 692 190 643 q 588 742 435 742 q 874 697 744 742 q 1077 572 1003 651 q 1151 392 1151 492 q 1118 265 1151 321 q 1026 177 1085 208 q 892 146 967 146 q 807 161 849 146 m 308 363 q 258 344 278 363 q 239 299 239 326 q 258 251 239 271 q 307 232 278 232 q 354 251 335 232 q 374 299 374 271 q 355 344 374 326 q 308 363 336 363 z "},"ௐ":{"ha":1196,"x_min":51,"x_max":1151,"o":"m 807 161 q 852 101 817 119 q 957 83 888 83 l 1085 83 l 1085 -64 l 957 -64 l 946 -64 q 897 -188 940 -133 q 778 -274 853 -243 q 607 -304 703 -304 q 430 -270 507 -304 q 310 -176 353 -236 q 267 -37 267 -115 l 267 13 l 456 13 l 456 -31 q 496 -110 456 -81 q 606 -140 536 -140 q 717 -112 676 -140 q 758 -37 758 -83 l 758 -18 q 640 210 640 50 l 640 374 l 803 374 q 824 322 804 342 q 878 303 844 303 q 928 328 908 303 q 947 392 947 353 q 899 488 947 444 q 769 554 851 531 q 588 578 688 578 q 383 545 475 578 q 244 458 290 513 q 321 475 278 475 q 462 426 407 475 q 517 300 517 376 q 457 164 517 218 q 306 110 397 110 q 173 142 231 110 q 83 230 115 174 q 51 358 51 286 q 121 556 51 468 q 313 692 190 643 q 588 742 435 742 q 874 697 744 742 q 1077 572 1003 651 q 1151 392 1151 492 q 1118 265 1151 321 q 1026 177 1085 208 q 892 146 967 146 q 807 161 849 146 m 308 363 q 258 344 278 363 q 239 299 239 326 q 258 251 239 271 q 307 232 278 232 q 354 251 335 232 q 374 299 374 271 q 355 344 374 326 q 308 363 336 363 m 629 67 q 623 51 629 57 q 608 44 617 44 q 591 51 597 44 q 585 67 585 57 q 608 92 585 92 q 623 85 617 92 q 629 67 629 78 m 574 -44 l 592 -44 l 592 -12 q 604 22 592 8 q 639 35 617 35 q 677 19 664 35 q 690 -24 690 3 q 676 -64 690 -49 q 636 -79 661 -79 l 535 -79 l 535 33 l 574 33 l 574 -44 m 639 -44 q 651 -38 647 -44 q 654 -24 654 -32 q 642 1 654 1 q 631 -14 631 1 l 631 -44 l 639 -44 z "},"ஓ":{"ha":1203,"x_min":51,"x_max":1151,"o":"m 807 161 q 852 101 817 119 q 957 83 888 83 l 1085 83 l 1085 -64 l 957 -64 l 950 -64 q 896 -188 944 -133 q 766 -274 847 -243 q 583 -304 685 -304 q 410 -277 486 -304 q 293 -202 335 -250 q 251 -93 251 -154 q 313 44 251 -8 q 488 96 375 96 l 510 96 l 510 -51 l 488 -51 q 456 -63 468 -51 q 444 -93 444 -75 q 482 -132 444 -117 q 583 -147 519 -147 q 712 -118 661 -147 q 763 -44 763 -89 l 763 -21 q 672 71 703 13 q 640 210 640 129 l 640 374 l 803 374 q 824 322 804 342 q 878 303 844 303 q 928 328 908 303 q 947 392 947 353 q 899 488 947 444 q 769 554 851 531 q 588 578 688 578 q 383 545 475 578 q 244 458 290 513 q 321 475 278 475 q 462 426 407 475 q 517 300 517 376 q 457 164 517 218 q 306 110 397 110 q 173 142 231 110 q 83 230 115 174 q 51 358 51 286 q 121 556 51 468 q 313 692 190 643 q 588 742 435 742 q 874 697 744 742 q 1077 572 1003 651 q 1151 392 1151 492 q 1118 265 1151 321 q 1026 177 1085 208 q 892 146 967 146 q 807 161 849 146 m 308 363 q 258 344 278 363 q 239 299 239 326 q 258 251 239 271 q 307 232 278 232 q 354 251 335 232 q 374 299 374 271 q 355 344 374 326 q 308 363 336 363 z "},"ப":{"ha":1065,"x_min":114,"x_max":950,"o":"m 114 0 l 114 713 l 310 719 l 310 153 l 756 153 l 756 713 l 950 713 l 950 0 l 114 0 z "},"ர":{"ha":1015,"x_min":114,"x_max":1001,"o":"m 767 17 q 762 -81 767 -43 q 736 -147 757 -118 q 672 -192 715 -176 l 224 -347 l 163 -186 l 501 -65 q 549 -37 535 -53 q 568 2 564 -22 q 572 76 572 26 l 572 560 l 310 560 l 310 0 l 114 0 l 114 713 l 979 713 l 1001 558 l 767 558 l 767 17 z "},"ற":{"ha":1313,"x_min":100,"x_max":1253,"o":"m 894 738 q 1089 683 1008 738 q 1211 531 1169 628 q 1253 307 1253 433 q 1199 7 1253 136 q 1033 -195 1144 -122 q 757 -268 922 -268 l 469 -268 q 233 -337 281 -268 l 100 -236 q 217 -147 129 -179 q 451 -114 304 -114 l 757 -114 q 976 -1 906 -114 q 1047 307 1047 113 q 1011 503 1047 432 q 896 575 975 575 q 792 526 828 575 q 757 394 757 478 l 757 0 l 563 0 l 563 361 q 526 515 563 454 q 418 575 489 575 q 326 528 357 575 q 296 392 296 481 l 296 0 l 100 0 l 100 411 q 181 649 100 560 q 404 738 261 738 q 538 707 476 738 q 642 619 599 676 q 752 706 686 675 q 894 738 818 738 z "},"ஸ":{"ha":2022,"x_min":58,"x_max":1964,"o":"m 1846 732 q 1933 530 1903 635 q 1964 343 1964 425 q 1875 76 1964 176 q 1621 -25 1786 -25 q 1383 65 1469 -25 q 1297 303 1297 154 l 1297 400 q 1270 529 1297 485 q 1181 574 1243 574 q 1077 513 1111 574 q 1043 347 1043 451 l 1043 0 l 849 0 l 849 347 q 813 466 849 414 q 714 547 778 518 q 567 575 650 575 q 408 543 476 575 q 301 455 339 511 q 264 329 264 399 q 278 247 264 283 q 354 385 289 332 q 514 439 419 439 q 647 410 588 439 q 740 329 707 381 q 774 214 774 278 q 738 90 774 144 q 636 6 701 36 q 485 -25 571 -25 q 265 21 363 -25 q 113 147 168 67 q 58 329 58 228 q 122 540 58 447 q 302 685 186 633 q 565 738 418 738 q 779 702 683 738 q 939 601 875 667 q 1043 701 981 667 q 1186 736 1106 736 q 1415 648 1336 736 q 1493 408 1493 560 l 1493 303 q 1526 181 1493 225 q 1624 138 1560 138 q 1724 193 1690 138 q 1758 343 1758 249 q 1728 527 1758 422 q 1644 713 1697 632 l 1846 732 m 511 293 q 452 270 475 293 q 429 211 429 247 q 452 152 429 175 q 511 129 475 129 q 569 153 546 129 q 592 211 592 176 q 569 269 592 246 q 511 293 546 293 z "},"ஶ":{"ha":1639,"x_min":100,"x_max":1581,"o":"m 1231 713 q 1490 621 1400 713 q 1581 378 1581 529 q 1536 169 1581 261 q 1410 26 1492 78 q 1219 -25 1328 -25 q 983 67 1067 -25 q 899 307 899 158 l 899 560 l 747 560 l 747 297 q 663 64 747 153 q 424 -25 579 -25 q 184 64 268 -25 q 100 297 100 153 l 100 713 l 296 719 l 296 307 q 424 138 296 138 q 551 307 551 138 l 551 713 l 1231 713 m 1221 138 q 1334 204 1294 138 q 1374 378 1374 271 q 1342 513 1374 465 q 1231 560 1311 560 l 1094 560 l 1094 319 q 1124 185 1094 233 q 1221 138 1153 138 z "},"ஷ":{"ha":2144,"x_min":58,"x_max":2029,"o":"m 1676 0 l 1676 -337 l 1482 -337 l 1482 0 l 828 0 l 828 153 q 879 347 879 250 q 799 512 879 449 q 576 575 719 575 q 413 543 485 575 q 303 455 342 511 q 264 329 264 399 q 278 247 264 283 q 354 385 289 332 q 514 439 419 439 q 647 410 588 439 q 740 329 707 381 q 774 214 774 278 q 738 90 774 144 q 636 6 701 36 q 485 -25 571 -25 q 265 21 363 -25 q 113 147 168 67 q 58 329 58 228 q 124 540 58 447 q 308 685 190 633 q 575 738 425 738 q 838 688 722 738 q 1019 549 954 638 q 1085 347 1085 460 q 1036 153 1085 243 l 1482 153 l 1482 242 l 1457 242 q 1283 274 1358 242 q 1167 365 1208 307 q 1126 497 1126 424 q 1163 622 1126 567 q 1263 707 1199 676 q 1408 738 1328 738 q 1548 708 1488 738 q 1642 624 1608 678 q 1676 500 1676 569 l 1676 447 q 1835 560 1775 489 l 2029 560 l 2029 0 l 1676 0 m 1482 406 l 1482 493 q 1463 552 1482 529 q 1408 575 1443 575 q 1353 553 1374 575 q 1332 494 1332 531 q 1365 428 1332 451 q 1456 406 1397 406 l 1482 406 m 1835 357 q 1676 276 1761 303 l 1676 153 l 1835 153 l 1835 357 m 511 293 q 452 270 475 293 q 429 211 429 247 q 452 152 429 175 q 511 129 475 129 q 569 153 546 129 q 592 211 592 176 q 569 269 592 246 q 511 293 546 293 z "},"த":{"ha":1119,"x_min":44,"x_max":1074,"o":"m 724 439 q 904 395 825 439 q 1028 275 983 351 q 1074 101 1074 199 q 1021 -88 1074 -4 q 874 -220 968 -172 q 664 -268 781 -268 l 414 -268 q 178 -337 224 -268 l 44 -236 q 161 -147 74 -179 q 396 -114 249 -114 l 664 -114 q 811 -53 753 -114 q 869 101 869 7 q 829 233 869 181 q 725 285 789 285 l 717 285 q 669 121 717 192 q 538 13 621 50 q 350 -25 454 -25 q 124 41 204 -25 q 44 213 44 107 q 83 335 44 282 q 194 415 121 389 l 194 713 l 950 713 l 972 560 l 717 560 l 717 439 l 724 439 m 386 439 l 526 439 l 526 560 l 386 560 l 386 439 m 356 138 q 476 176 426 138 q 526 285 526 215 l 353 285 q 277 265 304 285 q 250 213 250 244 q 278 158 250 179 q 356 138 306 138 z "},"ட":{"ha":1021,"x_min":114,"x_max":1007,"o":"m 310 719 l 114 713 l 114 0 l 1007 0 l 983 153 l 310 153 l 310 719 z "},"உ":{"ha":1438,"x_min":31,"x_max":1424,"o":"m 1424 0 l 96 0 l 96 153 l 401 153 q 578 214 514 153 q 643 372 643 275 q 588 518 643 461 q 436 575 532 575 q 347 564 392 575 q 447 502 410 549 q 483 389 483 456 q 454 291 483 335 q 374 223 425 247 q 261 199 324 199 q 95 257 160 199 q 31 406 31 315 q 84 577 31 501 q 230 695 138 653 q 435 738 322 738 q 650 690 556 738 q 797 560 744 643 q 849 372 849 476 q 769 153 849 244 l 1424 153 l 1424 0 m 263 322 q 313 342 293 322 q 333 393 333 363 q 313 444 333 424 q 261 465 292 465 q 209 444 229 465 q 189 393 189 424 q 210 342 189 363 q 263 322 231 322 z "},"ஊ":{"ha":2238,"x_min":31,"x_max":2224,"o":"m 2224 0 l 96 0 l 96 153 l 401 153 q 578 214 514 153 q 643 372 643 275 q 588 518 643 461 q 436 575 532 575 q 347 564 392 575 q 447 502 410 549 q 483 389 483 456 q 454 291 483 335 q 374 223 425 247 q 261 199 324 199 q 95 257 160 199 q 31 406 31 315 q 84 577 31 501 q 230 695 138 653 q 435 738 322 738 q 650 690 556 738 q 797 560 744 643 q 849 372 849 476 q 767 153 849 246 l 2224 153 l 2224 0 m 1233 196 q 1068 228 1140 196 q 956 318 996 261 q 917 444 917 375 q 959 597 917 531 q 1083 700 1001 663 q 1275 738 1164 738 q 1486 675 1400 738 l 1486 713 l 2156 713 l 2179 565 l 2022 565 l 2022 218 l 1833 218 l 1833 567 l 1675 567 l 1675 218 l 1486 218 l 1486 435 q 1459 510 1486 475 q 1385 567 1432 546 q 1282 588 1339 588 q 1150 547 1199 588 q 1101 444 1101 507 q 1104 410 1101 432 q 1158 490 1117 460 q 1260 519 1200 519 q 1389 476 1339 519 q 1439 368 1439 433 q 1382 244 1439 293 q 1233 196 1325 196 m 263 322 q 313 342 293 322 q 333 393 333 363 q 313 445 333 425 q 261 465 292 465 q 209 444 229 465 q 189 393 189 424 q 210 342 189 363 q 263 322 231 322 m 1254 414 q 1215 400 1231 414 q 1200 364 1200 386 q 1215 326 1200 342 q 1254 311 1231 311 q 1291 326 1276 311 q 1306 364 1306 340 q 1291 400 1306 386 q 1254 414 1276 414 z "},"வ":{"ha":1571,"x_min":58,"x_max":1457,"o":"m 1457 0 l 828 0 l 828 153 q 879 347 879 250 q 799 512 879 449 q 576 575 719 575 q 413 543 485 575 q 303 455 342 511 q 264 329 264 399 q 278 247 264 283 q 355 385 289 332 q 514 439 421 439 q 647 410 588 439 q 740 329 707 381 q 774 214 774 278 q 738 90 774 144 q 636 6 701 36 q 485 -25 571 -25 q 265 21 363 -25 q 113 147 168 67 q 58 329 58 228 q 124 540 58 447 q 308 685 190 633 q 575 738 425 738 q 838 688 722 738 q 1019 549 954 638 q 1085 347 1085 460 q 1036 153 1085 247 l 1261 153 l 1261 713 l 1457 713 l 1457 0 m 511 293 q 452 270 475 293 q 429 211 429 247 q 452 152 429 175 q 511 129 475 129 q 569 153 546 129 q 592 211 592 176 q 569 269 592 246 q 511 293 546 293 z "},"ஃ":{"ha":997,"x_min":174,"x_max":806,"o":"m 497 378 q 401 402 444 378 q 331 469 357 426 q 306 563 306 511 q 331 658 306 614 q 401 726 357 701 q 497 751 444 751 q 595 726 550 751 q 667 658 640 701 q 693 563 693 614 q 667 469 693 511 q 595 402 640 426 q 497 378 550 378 m 499 619 q 459 603 475 619 q 443 564 443 588 q 459 524 443 540 q 499 508 475 508 q 538 524 522 508 q 554 564 554 540 q 538 603 554 588 q 499 619 522 619 m 744 279 q 787 246 768 279 q 806 167 806 213 q 787 88 806 122 q 744 54 768 54 q 699 99 719 54 q 628 13 678 46 q 518 -19 579 -19 q 393 25 446 -19 q 329 138 340 69 q 301 65 322 93 q 251 38 281 38 q 196 75 218 38 q 174 168 174 113 q 196 260 174 224 q 251 297 218 297 q 301 269 281 297 q 329 197 322 242 q 393 310 340 265 q 518 354 446 354 q 628 322 579 354 q 699 236 678 289 q 744 279 719 279 m 478 113 q 517 128 501 113 q 533 168 533 143 q 517 207 533 192 q 478 222 501 222 q 439 207 454 222 q 424 168 424 192 q 439 128 424 143 q 478 113 454 113 z "},"ய":{"ha":1410,"x_min":100,"x_max":1294,"o":"m 1294 0 l 588 0 l 588 39 q 413 -25 510 -25 q 181 64 263 -25 q 100 303 100 153 l 100 713 l 296 719 l 296 314 q 425 138 296 138 q 547 196 506 138 q 588 353 588 254 l 588 713 l 782 713 l 782 153 l 1099 153 l 1099 713 l 1294 713 l 1294 0 z "},"௮":{"ha":1544,"x_min":31,"x_max":1429,"o":"m 1429 -175 l 1235 -175 l 1235 64 l 969 64 q 759 -130 899 -60 q 429 -200 619 -200 q 220 -169 311 -200 q 80 -84 129 -139 q 31 39 31 -29 q 88 168 31 119 q 258 217 146 217 l 306 217 q 240 404 240 297 q 289 576 240 500 q 423 694 338 651 q 617 738 508 738 q 832 683 736 738 q 982 530 928 628 q 1036 311 1036 432 q 1026 217 1036 260 l 1235 217 l 1235 713 l 1429 713 l 1429 -175 m 821 217 q 831 311 831 257 q 772 503 831 432 q 617 575 714 575 q 493 526 542 575 q 444 401 444 476 q 490 268 444 319 q 607 217 536 217 l 821 217 m 429 -37 q 736 64 632 -37 l 268 64 q 225 33 225 64 q 279 -17 225 4 q 429 -37 333 -37 z "},"௫":{"ha":1963,"x_min":86,"x_max":1847,"o":"m 1653 383 q 1573 681 1653 551 q 1339 884 1493 811 q 969 957 1185 957 q 599 876 751 957 q 368 653 446 794 q 290 331 290 511 q 351 47 290 176 q 540 -160 411 -82 q 861 -239 668 -239 q 1130 -192 1019 -239 q 1297 -61 1240 -144 q 1353 132 1353 22 q 1323 260 1353 211 q 1243 308 1293 308 q 1169 281 1199 308 q 1140 213 1140 254 l 1140 0 l 946 0 l 946 560 l 746 560 l 746 0 l 551 0 l 551 713 l 1353 713 l 1375 560 l 1140 560 l 1140 440 q 1274 474 1200 474 q 1426 431 1361 474 q 1524 312 1490 389 q 1558 136 1558 235 q 1474 -144 1558 -21 q 1233 -335 1390 -267 q 863 -404 1075 -404 q 441 -303 617 -404 q 176 -35 265 -203 q 86 333 86 133 q 190 740 86 561 q 492 1020 293 918 q 968 1122 692 1122 q 1438 1028 1239 1122 q 1742 767 1636 935 q 1847 386 1847 600 l 1847 0 l 1653 0 l 1653 383 z "},"௪":{"ha":1300,"x_min":44,"x_max":1256,"o":"m 1256 285 l 717 285 q 669 121 717 192 q 538 13 621 50 q 350 -25 454 -25 q 124 41 204 -25 q 44 213 44 107 q 83 335 44 282 q 194 415 121 389 l 194 713 l 950 713 l 972 560 l 717 560 l 717 439 l 1069 439 l 1069 713 l 1256 713 l 1256 285 m 386 439 l 526 439 l 526 560 l 386 560 l 386 439 m 356 138 q 476 176 426 138 q 526 285 526 215 l 353 285 q 277 265 304 285 q 250 213 250 244 q 278 158 250 179 q 356 138 306 138 z "},"௯":{"ha":1525,"x_min":44,"x_max":1493,"o":"m 1178 469 q 1342 434 1271 469 q 1453 336 1414 399 q 1493 194 1493 274 q 1481 95 1493 140 q 1440 -8 1468 50 l 1251 0 q 1287 99 1274 44 q 1300 194 1300 154 q 1268 290 1300 254 q 1176 326 1236 326 l 1156 326 q 1213 169 1213 254 q 1152 30 1213 85 q 999 -25 1092 -25 q 844 30 906 -25 q 783 169 783 85 q 813 285 783 229 l 717 285 q 669 121 717 192 q 538 13 621 50 q 350 -25 454 -25 q 124 41 204 -25 q 44 213 44 107 q 83 335 44 282 q 194 415 121 389 l 194 713 l 950 713 l 972 560 l 717 560 l 717 439 l 919 439 q 985 432 950 439 q 1178 469 1078 469 m 386 439 l 526 439 l 526 560 l 386 560 l 386 439 m 356 138 q 476 176 426 138 q 526 285 526 215 l 353 285 q 277 265 304 285 q 250 213 250 244 q 278 158 250 179 q 356 138 306 138 m 1047 169 q 993 268 1047 236 q 949 169 949 228 q 963 128 949 144 q 999 113 976 113 q 1033 128 1019 113 q 1047 169 1047 144 z "},"௧":{"ha":1067,"x_min":44,"x_max":1036,"o":"m 743 439 q 899 409 833 439 q 1001 326 965 379 q 1036 206 1036 274 q 999 87 1036 139 q 894 5 963 35 q 733 -25 826 -25 l 733 129 q 808 149 783 129 q 833 206 833 169 q 812 264 833 243 q 744 285 790 285 l 717 285 q 669 121 717 192 q 538 13 621 50 q 350 -25 454 -25 q 124 41 204 -25 q 44 213 44 107 q 83 335 44 282 q 194 415 121 389 l 194 713 l 950 713 l 972 560 l 717 560 l 717 439 l 743 439 m 386 439 l 526 439 l 526 560 l 386 560 l 386 439 m 356 138 q 476 176 426 138 q 526 285 526 215 l 353 285 q 277 265 304 285 q 250 213 250 244 q 278 158 250 179 q 356 138 306 138 z "},"௭":{"ha":1165,"x_min":58,"x_max":1050,"o":"m 1050 0 l 856 0 l 856 560 l 558 560 q 337 497 410 560 q 264 329 264 435 q 278 247 264 283 q 354 385 289 332 q 514 439 419 439 q 647 410 588 439 q 740 329 707 381 q 774 214 774 278 q 738 90 774 144 q 636 6 701 36 q 485 -25 571 -25 q 265 21 363 -25 q 113 147 168 67 q 58 329 58 228 q 116 528 58 442 q 285 664 174 615 q 551 713 396 713 l 1050 713 l 1050 0 m 511 293 q 452 270 475 293 q 429 211 429 247 q 452 152 429 175 q 511 129 475 129 q 569 153 546 129 q 592 211 592 176 q 569 269 592 246 q 511 293 546 293 z "},"௬":{"ha":1565,"x_min":44,"x_max":1551,"o":"m 1551 0 l 1125 0 l 1125 153 q 1197 175 1172 153 q 1221 233 1221 197 q 1197 291 1221 268 q 1133 314 1174 314 q 1045 280 1078 314 q 1013 193 1013 246 l 1013 0 l 822 0 l 822 206 q 799 263 822 242 q 729 285 775 285 l 717 285 q 669 121 717 192 q 538 13 621 50 q 350 -25 454 -25 q 124 41 204 -25 q 44 213 44 107 q 83 335 44 282 q 194 415 121 389 l 194 713 l 950 713 l 972 560 l 717 560 l 717 439 l 718 439 q 919 383 839 439 q 1017 452 958 428 q 1149 476 1076 476 q 1295 447 1232 476 q 1393 365 1358 418 q 1428 246 1428 313 q 1406 153 1428 193 l 1551 153 l 1551 0 m 386 439 l 526 439 l 526 560 l 386 560 l 386 439 m 356 138 q 476 176 426 138 q 526 285 526 215 l 353 285 q 277 265 304 285 q 250 213 250 244 q 278 158 250 179 q 356 138 306 138 z "},"௩":{"ha":1190,"x_min":114,"x_max":1176,"o":"m 1176 0 l 476 0 l 476 153 l 699 153 q 805 181 769 153 q 840 257 840 210 q 819 319 840 294 q 761 343 797 343 q 697 319 722 343 q 671 260 671 294 l 671 228 l 476 228 l 476 560 l 310 560 l 310 0 l 114 0 l 114 713 l 883 713 l 906 558 l 671 558 l 671 483 q 792 507 725 507 q 923 475 865 507 q 1013 387 981 443 q 1046 258 1046 331 q 1018 153 1046 200 l 1176 153 l 1176 0 z "},"௨":{"ha":1086,"x_min":31,"x_max":1072,"o":"m 1072 0 l 96 0 l 96 153 l 401 153 q 578 214 514 153 q 643 372 643 275 q 588 518 643 461 q 436 575 532 575 q 347 564 392 575 q 447 502 410 549 q 483 389 483 456 q 454 291 483 335 q 374 223 425 247 q 261 199 324 199 q 95 257 160 199 q 31 406 31 315 q 84 577 31 501 q 230 695 138 653 q 435 738 322 738 q 650 690 556 738 q 797 560 744 643 q 849 372 849 476 q 769 153 849 244 l 1072 153 l 1072 0 m 263 322 q 313 342 293 322 q 333 393 333 363 q 313 444 333 424 q 261 465 292 465 q 209 444 229 465 q 189 393 189 424 q 210 342 189 363 q 263 322 231 322 z "},"௦":{"ha":996,"x_min":58,"x_max":938,"o":"m 497 738 q 722 688 622 738 q 879 552 822 639 q 938 357 936 465 q 881 160 938 247 q 723 24 824 74 q 497 -25 622 -25 q 272 24 372 -25 q 115 160 172 74 q 58 357 58 247 q 115 552 58 465 q 272 688 172 639 q 497 738 372 738 m 497 138 q 617 166 564 138 q 701 244 671 194 q 732 357 732 294 q 701 469 732 419 q 617 547 671 519 q 497 575 564 575 q 377 547 431 575 q 293 469 324 519 q 263 357 263 419 q 293 244 263 294 q 377 166 324 194 q 497 138 431 138 z "},"௱":{"ha":1490,"x_min":100,"x_max":1476,"o":"m 1240 0 l 1046 0 l 1046 560 l 782 560 l 782 0 l 588 0 l 588 361 q 547 517 588 458 q 425 575 506 575 q 296 400 296 575 l 296 0 l 100 0 l 100 410 q 181 649 100 560 q 413 738 263 738 q 588 674 510 738 l 588 713 l 1453 713 l 1476 560 l 1240 560 l 1240 0 z "},"௰":{"ha":1254,"x_min":58,"x_max":1196,"o":"m 1078 732 q 1165 530 1135 635 q 1196 343 1196 425 q 1108 76 1196 176 q 856 -25 1021 -25 q 626 57 715 -25 q 526 -3 585 18 q 399 -25 468 -25 q 146 76 233 -25 q 58 343 58 176 q 89 530 58 425 q 176 732 119 635 l 378 713 q 294 527 325 632 q 264 343 264 422 q 297 193 264 249 q 399 138 331 138 q 496 181 463 138 q 529 303 529 225 l 529 499 l 725 499 l 725 303 q 758 181 725 225 q 854 138 790 138 q 956 193 922 138 q 989 343 989 249 q 958 528 989 424 q 875 713 928 633 l 1078 732 z "},"௲":{"ha":1592,"x_min":44,"x_max":1561,"o":"m 1271 211 q 1420 176 1354 211 q 1524 80 1486 142 q 1561 -58 1561 18 q 1521 -208 1561 -142 q 1406 -310 1481 -274 q 1232 -347 1332 -347 l 1015 -347 q 835 -396 868 -347 l 725 -303 q 814 -231 750 -256 q 997 -207 878 -207 l 1232 -207 q 1340 -166 1301 -207 q 1379 -58 1379 -125 q 1349 31 1379 -4 q 1265 65 1319 65 q 1217 -56 1260 -6 q 1110 -133 1175 -107 q 968 -160 1044 -160 q 781 -105 847 -160 q 715 33 715 -50 q 778 162 715 113 q 956 211 842 211 l 1086 211 l 1086 285 l 717 285 q 669 121 717 192 q 538 13 621 50 q 350 -25 454 -25 q 124 41 204 -25 q 44 213 44 107 q 83 335 44 282 q 194 415 121 389 l 194 713 l 950 713 l 972 560 l 717 560 l 717 439 l 1494 439 l 1517 285 l 1267 285 l 1267 211 l 1271 211 m 386 439 l 526 439 l 526 560 l 386 560 l 386 439 m 356 138 q 476 176 426 138 q 526 285 526 215 l 353 285 q 269 265 299 285 q 239 213 239 244 q 269 159 239 181 q 356 138 300 138 m 972 -12 q 1044 7 1014 -12 q 1083 65 1075 26 l 960 65 q 913 56 929 65 q 897 29 897 46 q 917 0 897 13 q 972 -12 938 -12 z "},"௹":{"ha":1672,"x_min":86,"x_max":1614,"o":"m 1329 474 q 1481 431 1417 474 q 1580 312 1546 389 q 1614 136 1614 235 q 1525 -147 1614 -25 q 1276 -337 1436 -269 q 907 -404 1115 -404 q 468 -306 653 -404 q 185 -26 283 -207 q 86 397 86 156 q 196 816 86 628 q 501 1112 306 1004 q 946 1219 697 1219 q 1251 1181 1122 1219 q 1445 1078 1379 1143 q 1511 932 1511 1013 q 1459 799 1511 850 q 1317 749 1407 749 q 1176 801 1231 749 q 1121 936 1121 854 q 1151 1039 1121 996 q 965 1054 1075 1054 q 604 968 757 1054 q 371 732 451 882 q 290 394 290 582 q 363 58 290 200 q 573 -162 435 -85 q 906 -239 711 -239 q 1174 -194 1060 -239 q 1348 -65 1288 -149 q 1408 132 1408 18 q 1378 260 1408 211 q 1299 308 1349 308 q 1225 281 1254 308 q 1196 213 1196 254 l 1196 0 l 1001 0 l 1001 560 l 788 560 l 788 0 l 593 0 l 593 713 l 1408 713 l 1431 560 l 1196 560 l 1196 440 q 1329 474 1254 474 m 1317 871 q 1363 888 1344 871 q 1381 932 1381 906 q 1363 977 1381 960 q 1317 994 1344 994 q 1272 976 1290 994 q 1254 932 1254 958 q 1272 888 1254 906 q 1317 871 1290 871 z "},"௺":{"ha":1547,"x_min":114,"x_max":1547,"o":"m 1547 763 l 1136 763 l 1136 915 q 1185 935 1168 915 q 1203 986 1203 956 q 1166 1060 1203 1031 q 1063 1089 1129 1089 l 1038 1089 q 1088 939 1088 1019 q 1027 799 1088 854 q 874 743 967 743 q 719 799 781 743 q 658 939 658 854 q 706 1074 658 1008 q 579 1017 625 1068 q 533 889 533 967 q 578 761 533 810 q 701 713 624 713 l 889 713 l 913 558 l 678 558 l 678 442 q 807 474 733 474 q 957 429 893 474 q 1054 307 1021 385 q 1088 129 1088 229 q 1043 -76 1088 14 q 915 -217 999 -165 q 714 -268 831 -268 l 483 -268 q 247 -337 293 -268 l 114 -236 q 227 -144 146 -174 q 464 -114 308 -114 l 714 -114 q 842 -49 800 -114 q 883 125 883 17 q 854 258 883 207 q 775 308 825 308 q 705 281 732 308 q 678 213 678 254 l 678 0 l 483 0 l 483 560 l 310 560 l 310 0 l 114 0 l 114 713 l 386 713 q 333 889 333 789 q 383 1067 333 989 q 522 1188 432 1144 q 728 1232 611 1232 q 889 1201 813 1232 q 1069 1232 974 1232 q 1238 1200 1165 1232 q 1351 1112 1311 1168 q 1392 986 1392 1056 q 1378 915 1392 944 l 1547 915 l 1547 763 m 922 939 q 872 1036 922 1000 q 824 939 824 999 q 838 899 824 914 q 874 883 851 883 q 908 899 894 883 q 922 939 922 914 z "},"௴":{"ha":1868,"x_min":114,"x_max":1868,"o":"m 1868 763 l 1457 763 l 1457 915 q 1506 935 1489 915 q 1524 986 1524 956 q 1488 1060 1524 1031 q 1385 1089 1451 1089 l 1358 1088 q 1408 939 1408 1019 q 1348 799 1408 854 q 1194 743 1288 743 q 1040 799 1101 743 q 979 939 979 854 q 1028 1074 979 1010 q 900 1017 946 1068 q 854 889 854 967 q 876 795 854 836 q 936 732 897 754 q 1151 601 1071 710 q 1231 336 1231 493 q 1140 92 1231 185 q 881 0 1050 0 l 114 0 l 114 713 l 310 719 l 310 153 l 550 153 l 550 406 q 592 588 550 510 q 714 704 633 667 q 656 889 656 785 q 704 1067 656 989 q 842 1188 753 1144 q 1049 1232 932 1232 q 1210 1201 1133 1232 q 1392 1232 1297 1232 q 1560 1200 1488 1232 q 1673 1112 1633 1168 q 1713 986 1713 1056 q 1699 915 1713 944 l 1868 915 l 1868 763 m 1243 939 q 1193 1036 1243 1000 q 1144 939 1144 999 q 1158 899 1144 914 q 1194 883 1172 883 q 1229 899 1215 883 q 1243 939 1243 914 m 881 153 q 993 200 961 153 q 1025 336 1025 247 q 985 509 1025 443 q 871 575 944 575 q 774 527 803 575 q 744 394 744 479 l 744 153 l 881 153 z "},"௸":{"ha":2819,"x_min":58,"x_max":2706,"o":"m 2353 0 l 2353 -337 l 2157 -337 l 2157 0 l 1504 0 l 1504 150 q 1535 265 1525 207 q 1546 369 1546 324 q 1500 519 1546 464 q 1357 575 1454 575 q 1222 550 1290 575 q 1334 409 1294 486 q 1374 249 1374 332 q 1338 106 1374 168 q 1239 10 1303 44 q 1093 -25 1175 -25 q 945 10 1010 -25 q 845 106 881 44 q 810 249 810 168 q 837 399 810 326 q 913 533 864 471 q 664 575 794 575 q 449 542 540 575 q 311 451 358 510 q 264 319 264 393 q 278 242 264 275 q 352 384 286 329 q 514 439 418 439 q 647 410 588 439 q 740 329 707 381 q 774 214 774 278 q 738 90 774 144 q 636 6 701 36 q 485 -25 571 -25 q 265 20 363 -25 q 113 144 168 65 q 58 319 58 222 q 132 535 58 440 q 343 683 206 629 q 664 738 481 738 q 869 716 769 738 q 1056 656 969 694 q 1356 738 1193 738 q 1572 691 1483 738 q 1706 561 1661 644 q 1751 369 1751 478 q 1711 150 1751 271 l 2157 150 l 2157 242 l 2133 242 q 1958 274 2033 242 q 1843 365 1883 307 q 1803 497 1803 424 q 1839 622 1803 567 q 1940 707 1875 676 q 2083 738 2004 738 q 2224 708 2163 738 q 2319 624 2285 678 q 2353 500 2353 569 l 2353 449 q 2510 560 2449 488 l 2706 560 l 2706 0 l 2353 0 m 2157 406 l 2157 493 q 2138 552 2157 529 q 2085 575 2119 575 q 2029 553 2050 575 q 2008 494 2008 531 q 2040 428 2008 451 q 2132 406 2072 406 l 2157 406 m 1092 132 q 1151 163 1129 132 q 1174 243 1174 194 q 1148 348 1174 297 q 1076 440 1122 399 q 1008 243 1008 353 q 1031 163 1008 194 q 1092 132 1054 132 m 2510 356 q 2353 276 2439 306 l 2353 150 l 2510 150 l 2510 356 m 511 293 q 452 270 475 293 q 429 211 429 247 q 452 152 429 175 q 511 129 475 129 q 569 153 546 129 q 592 211 592 176 q 569 269 592 246 q 511 293 546 293 z "},"௳":{"ha":1263,"x_min":58,"x_max":1249,"o":"m 1249 0 l 828 0 l 828 153 q 879 347 879 250 q 799 512 879 449 q 576 575 719 575 q 413 543 485 575 q 303 455 342 511 q 264 329 264 399 q 278 247 264 283 q 354 385 289 332 q 514 439 419 439 q 647 410 588 439 q 740 329 707 381 q 774 214 774 278 q 738 90 774 144 q 636 6 701 36 q 485 -25 571 -25 q 265 21 363 -25 q 113 147 168 67 q 58 329 58 228 q 124 540 58 447 q 308 685 190 633 q 575 738 425 738 q 838 688 722 738 q 1019 549 954 638 q 1085 347 1085 460 q 1036 153 1085 243 l 1249 153 l 1249 0 m 511 293 q 452 270 475 293 q 429 211 429 247 q 452 152 429 175 q 511 129 475 129 q 569 153 546 129 q 592 211 592 176 q 569 269 592 246 q 511 293 546 293 z "},"௶":{"ha":1499,"x_min":114,"x_max":1385,"o":"m 929 -233 q 756 -428 885 -357 q 443 -499 628 -499 q 271 -471 346 -499 q 155 -393 196 -443 q 114 -278 114 -343 q 178 -133 114 -187 q 364 -79 242 -79 l 756 -79 l 756 0 l 114 0 l 114 713 l 310 719 l 310 153 l 756 153 l 756 713 l 950 713 l 950 -79 l 1189 -79 l 1189 713 l 1385 713 l 1385 -233 l 929 -233 m 442 -335 q 612 -308 542 -335 q 718 -233 682 -282 l 381 -233 q 319 -278 319 -233 q 352 -320 319 -306 q 442 -335 385 -335 z "},"௷":{"ha":2054,"x_min":58,"x_max":2040,"o":"m 2040 0 l 1629 0 l 1629 153 q 1679 173 1661 153 q 1697 224 1697 193 q 1662 297 1697 268 q 1557 326 1626 326 q 1521 325 1533 326 q 1581 169 1581 257 q 1520 30 1581 85 q 1367 -25 1460 -25 q 1212 29 1272 -25 q 1151 169 1151 83 q 1181 285 1151 232 l 1050 285 l 1050 0 l 856 0 l 856 560 l 558 560 q 337 497 410 560 q 264 329 264 435 q 278 247 264 283 q 354 385 289 332 q 514 439 419 439 q 647 410 588 439 q 740 329 707 381 q 774 214 774 278 q 738 90 774 144 q 636 6 701 36 q 485 -25 571 -25 q 265 21 363 -25 q 113 147 168 67 q 58 329 58 228 q 116 528 58 442 q 285 664 174 615 q 551 713 396 713 l 1261 713 l 1285 558 l 1050 558 l 1050 439 l 1247 439 q 1346 428 1297 439 q 1564 469 1447 469 q 1735 438 1663 469 q 1846 349 1807 406 q 1885 224 1885 293 q 1872 153 1885 186 l 2040 153 l 2040 0 m 511 293 q 452 270 475 293 q 429 211 429 247 q 452 152 429 175 q 511 129 475 129 q 569 153 546 129 q 592 211 592 176 q 569 269 592 246 q 511 293 546 293 m 1417 169 q 1360 265 1417 236 q 1317 169 1317 226 q 1331 131 1317 146 q 1367 115 1344 115 q 1402 131 1388 115 q 1417 169 1417 146 z "},"௵":{"ha":2650,"x_min":86,"x_max":2592,"o":"m 2307 474 q 2459 431 2394 474 q 2558 312 2524 389 q 2592 136 2592 235 q 2493 -150 2592 -26 q 2213 -342 2394 -274 q 1793 -411 2032 -411 l 917 -411 q 481 -329 669 -411 q 190 -99 293 -247 q 86 243 86 50 q 142 506 86 372 q 289 726 199 639 l 489 713 q 346 504 401 633 q 290 240 290 375 q 365 -19 290 94 q 582 -194 440 -132 q 915 -257 724 -257 l 1792 -257 q 2110 -208 1975 -257 q 2315 -70 2244 -158 q 2386 132 2386 18 q 2356 260 2386 211 q 2275 308 2326 308 q 2201 281 2231 308 q 2172 213 2172 254 l 2172 0 l 1978 0 l 1978 560 l 1792 560 l 1792 0 l 1203 0 l 1203 153 q 1256 347 1256 249 q 1176 512 1256 449 q 953 575 1096 575 q 790 543 861 575 q 681 455 719 511 q 642 329 642 399 q 656 250 642 283 q 731 386 667 333 q 890 439 796 439 q 1023 410 964 439 q 1115 329 1082 381 q 1149 214 1149 278 q 1113 90 1149 144 q 1011 6 1076 36 q 861 -25 946 -25 q 642 21 740 -25 q 490 147 544 67 q 435 329 435 228 q 501 540 435 447 q 684 685 567 633 q 951 738 801 738 q 1215 688 1099 738 q 1396 549 1331 638 q 1461 347 1461 460 q 1413 153 1461 243 l 1596 153 l 1596 713 l 2385 713 l 2408 560 l 2172 560 l 2172 440 q 2307 474 2235 474 m 888 293 q 828 270 851 293 q 806 211 806 247 q 828 152 806 175 q 888 129 851 129 q 947 152 924 129 q 969 211 969 175 q 947 269 969 246 q 888 293 924 293 z "},"ௗ":{"ha":1768,"x_min":58,"x_max":1754,"o":"m 1519 560 l 1519 0 l 1325 0 l 1325 560 l 1061 560 l 1061 0 l 867 0 l 867 310 q 826 447 867 386 q 713 541 785 507 q 554 575 642 575 q 399 543 465 575 q 299 456 333 511 q 264 329 264 400 q 278 247 264 283 q 354 385 289 332 q 514 439 419 439 q 647 410 588 439 q 740 329 707 381 q 774 214 774 278 q 738 90 774 144 q 636 6 701 36 q 485 -25 571 -25 q 265 21 363 -25 q 113 147 168 67 q 58 329 58 228 q 119 540 58 447 q 290 685 179 633 q 549 738 401 738 q 725 708 644 738 q 867 625 806 679 l 867 713 l 1732 713 l 1754 560 l 1519 560 m 511 293 q 452 270 475 293 q 429 211 429 247 q 452 152 429 175 q 511 129 475 129 q 569 153 546 129 q 592 211 592 176 q 569 269 592 246 q 511 293 546 293 z "},"ா":{"ha":988,"x_min":114,"x_max":974,"o":"m 544 0 l 544 560 l 310 560 l 310 0 l 114 0 l 114 713 l 951 713 l 974 560 l 739 560 l 739 0 l 544 0 z "},"ை":{"ha":1810,"x_min":58,"x_max":1751,"o":"m 1356 738 q 1572 691 1483 738 q 1706 561 1661 644 q 1751 369 1751 478 q 1721 183 1751 288 q 1633 -19 1690 78 l 1432 0 q 1515 185 1485 81 q 1546 369 1546 290 q 1500 519 1546 464 q 1357 575 1454 575 q 1222 550 1290 575 q 1334 409 1294 486 q 1374 249 1374 332 q 1338 106 1374 168 q 1239 10 1303 44 q 1093 -25 1175 -25 q 945 10 1010 -25 q 845 106 881 44 q 810 249 810 168 q 837 399 810 326 q 913 533 864 471 q 664 575 794 575 q 449 542 540 575 q 311 451 358 510 q 264 319 264 393 q 278 242 264 275 q 352 384 286 329 q 514 439 418 439 q 647 410 588 439 q 740 329 707 381 q 774 214 774 278 q 738 90 774 144 q 636 6 701 36 q 485 -25 571 -25 q 265 20 363 -25 q 113 144 168 65 q 58 319 58 222 q 132 535 58 440 q 343 683 206 629 q 664 738 481 738 q 869 716 769 738 q 1056 656 969 694 q 1356 738 1193 738 m 1092 132 q 1151 163 1129 132 q 1174 243 1174 194 q 1148 348 1174 297 q 1076 440 1122 399 q 1008 243 1008 353 q 1031 163 1008 194 q 1092 132 1054 132 m 511 293 q 452 270 475 293 q 429 211 429 247 q 452 152 429 175 q 511 129 475 129 q 569 153 546 129 q 592 211 592 176 q 569 269 592 246 q 511 293 546 293 z "},"ௌ":{"ha":3692,"x_min":64,"x_max":3678,"o":"m 583 938 q 845 879 733 938 q 1018 714 957 821 q 1079 467 1079 607 l 1079 0 l 885 0 l 885 467 q 805 692 885 610 q 585 775 725 775 q 419 733 490 775 q 308 617 347 692 q 269 447 269 542 q 293 296 269 364 q 378 403 317 363 q 524 443 440 443 q 656 413 597 443 q 747 331 714 383 q 779 214 779 279 q 743 90 779 144 q 642 6 707 36 q 490 -25 576 -25 q 271 36 368 -25 q 119 205 174 97 q 64 447 64 313 q 129 699 64 588 q 313 874 194 811 q 583 938 431 938 m 517 293 q 458 270 481 293 q 435 211 435 247 q 458 152 435 175 q 517 129 481 129 q 574 153 551 129 q 597 211 597 176 q 574 269 597 246 q 517 293 551 293 m 3443 560 l 3443 0 l 3249 0 l 3249 560 l 2985 560 l 2985 0 l 2790 0 l 2790 310 q 2749 447 2790 386 q 2637 541 2708 507 q 2478 575 2565 575 q 2323 543 2389 575 q 2222 456 2257 511 q 2188 329 2188 400 q 2201 247 2188 283 q 2278 385 2213 332 q 2438 439 2343 439 q 2571 410 2511 439 q 2664 329 2631 381 q 2697 214 2697 278 q 2661 90 2697 144 q 2560 6 2625 36 q 2408 -25 2494 -25 q 2189 21 2286 -25 q 2037 147 2092 67 q 1982 329 1982 228 q 2042 540 1982 447 q 2214 685 2103 633 q 2472 738 2325 738 q 2649 708 2568 738 q 2790 625 2729 679 l 2790 713 l 3656 713 l 3678 560 l 3443 560 m 2435 293 q 2376 270 2399 293 q 2353 211 2353 247 q 2376 152 2353 175 q 2435 129 2399 129 q 2492 153 2469 129 q 2515 211 2515 176 q 2492 269 2515 246 q 2435 293 2469 293 m 1542 638 q 1571 649 1560 638 q 1582 678 1582 660 q 1571 708 1582 696 q 1542 719 1560 719 q 1513 708 1524 719 q 1501 678 1501 696 q 1513 649 1501 660 q 1542 638 1524 638 m 1418 697 q 1389 686 1400 697 q 1378 657 1378 675 q 1389 628 1378 639 q 1418 617 1400 617 q 1447 628 1436 617 q 1458 657 1458 639 q 1447 686 1458 675 q 1418 697 1436 697 m 1667 617 q 1696 628 1685 617 q 1707 657 1707 639 q 1696 686 1707 675 q 1667 697 1685 697 q 1638 686 1649 697 q 1626 657 1626 675 q 1638 628 1626 639 q 1667 617 1649 617 m 1313 628 q 1283 616 1294 628 q 1271 586 1271 604 q 1283 557 1271 568 q 1313 546 1294 546 q 1342 557 1331 546 q 1353 586 1353 568 q 1342 616 1353 604 q 1313 628 1331 628 m 1772 546 q 1802 557 1790 546 q 1814 586 1814 568 q 1802 616 1814 604 q 1772 628 1790 628 q 1743 616 1754 628 q 1732 586 1732 604 q 1743 557 1732 568 q 1772 546 1754 546 m 1246 518 q 1216 506 1228 518 q 1204 476 1204 494 q 1216 447 1204 458 q 1246 436 1228 436 q 1275 447 1264 436 q 1286 476 1286 458 q 1275 506 1286 494 q 1246 518 1264 518 m 1839 436 q 1868 447 1857 436 q 1879 476 1879 458 q 1868 506 1879 494 q 1839 518 1857 518 q 1810 506 1821 518 q 1799 476 1799 494 q 1810 447 1799 458 q 1839 436 1821 436 m 1226 399 q 1197 387 1208 399 q 1185 357 1185 375 q 1197 328 1185 339 q 1226 318 1208 318 q 1256 328 1244 318 q 1267 357 1267 339 q 1256 387 1267 375 q 1226 399 1244 399 m 1858 318 q 1888 328 1876 318 q 1900 357 1900 339 q 1888 387 1900 375 q 1858 399 1876 399 q 1829 387 1840 399 q 1818 357 1818 375 q 1829 328 1818 339 q 1858 318 1840 318 m 1246 282 q 1216 271 1228 282 q 1204 242 1204 260 q 1216 213 1204 224 q 1246 201 1228 201 q 1275 213 1264 201 q 1286 242 1286 224 q 1275 271 1286 260 q 1246 282 1264 282 m 1839 201 q 1868 213 1857 201 q 1879 242 1879 224 q 1868 271 1879 260 q 1839 282 1857 282 q 1810 271 1821 282 q 1799 242 1799 260 q 1810 213 1799 224 q 1839 201 1821 201 m 1311 171 q 1281 160 1293 171 q 1269 131 1269 149 q 1281 101 1269 113 q 1311 90 1293 90 q 1340 101 1329 90 q 1351 131 1351 113 q 1340 160 1351 149 q 1311 171 1329 171 m 1774 90 q 1803 101 1792 90 q 1815 131 1815 113 q 1803 160 1815 149 q 1774 171 1792 171 q 1744 160 1756 171 q 1733 131 1733 149 q 1744 101 1733 113 q 1774 90 1756 90 m 1418 103 q 1389 91 1400 103 q 1378 61 1378 79 q 1389 32 1378 43 q 1418 21 1400 21 q 1447 32 1436 21 q 1458 61 1458 43 q 1447 91 1458 79 q 1418 103 1436 103 m 1667 21 q 1696 32 1685 21 q 1707 61 1707 43 q 1696 91 1707 79 q 1667 103 1685 103 q 1638 91 1649 103 q 1626 61 1626 79 q 1638 32 1626 43 q 1667 21 1649 21 m 1542 0 q 1571 11 1560 0 q 1582 40 1582 22 q 1571 70 1582 58 q 1542 82 1560 82 q 1513 70 1524 82 q 1501 40 1501 58 q 1513 11 1501 22 q 1542 0 1524 0 z "},"ெ":{"ha":1189,"x_min":58,"x_max":1074,"o":"m 578 938 q 840 879 728 938 q 1013 714 951 821 q 1074 467 1074 607 l 1074 0 l 879 0 l 879 467 q 799 692 879 610 q 579 775 719 775 q 413 733 485 775 q 303 617 342 692 q 264 447 264 542 q 288 296 264 364 q 373 403 311 363 q 518 443 435 443 q 650 413 592 443 q 741 331 708 383 q 774 214 774 279 q 738 90 774 144 q 636 6 701 36 q 485 -25 571 -25 q 265 36 363 -25 q 113 205 168 97 q 58 447 58 313 q 124 699 58 588 q 307 874 189 811 q 578 938 425 938 m 511 293 q 452 270 475 293 q 429 211 429 247 q 452 152 429 175 q 511 129 475 129 q 569 153 546 129 q 592 211 592 176 q 569 269 592 246 q 511 293 546 293 z "},"ே":{"ha":968,"x_min":58,"x_max":910,"o":"m 682 425 q 799 399 747 425 q 881 325 851 372 q 910 219 910 278 q 867 94 910 150 q 748 7 825 39 q 574 -25 671 -25 q 302 38 419 -25 q 122 211 185 101 q 58 457 58 321 q 122 702 58 593 q 302 874 185 811 q 574 938 419 938 q 748 906 671 938 q 867 818 825 874 q 910 693 910 763 q 881 588 910 635 q 799 514 851 540 q 682 488 747 488 q 528 546 589 488 q 468 694 468 604 q 489 775 468 740 q 326 672 385 757 q 264 457 267 588 q 326 240 267 325 q 489 138 385 156 q 468 218 468 174 q 528 367 468 308 q 682 425 589 425 m 683 635 q 728 652 711 635 q 744 696 744 669 q 728 740 744 722 q 688 758 711 758 q 642 741 660 758 q 624 697 624 724 q 640 652 624 669 q 683 635 657 635 m 683 278 q 640 260 657 278 q 624 215 624 243 q 642 172 624 189 q 688 154 660 154 q 728 172 711 154 q 744 217 744 190 q 728 261 744 244 q 683 278 711 278 z "},"ி":{"ha":424,"x_min":-529,"x_max":310,"o":"m -157 1107 q 88 1055 -18 1107 q 252 910 194 1003 q 310 699 310 817 l 310 0 l 114 0 l 114 699 q 42 878 114 811 q -156 944 -29 944 q -286 911 -237 944 q -335 824 -335 878 q -310 742 -335 772 q -237 713 -285 713 l -237 581 q -392 613 -326 581 q -492 701 -457 644 q -529 829 -528 757 q -483 973 -529 910 q -353 1072 -437 1036 q -157 1107 -269 1107 z "},"ொ":{"ha":2867,"x_min":58,"x_max":2831,"o":"m 578 938 q 840 879 728 938 q 1013 714 951 821 q 1074 467 1074 607 l 1074 0 l 879 0 l 879 467 q 799 692 879 610 q 579 775 719 775 q 413 733 485 775 q 303 617 342 692 q 264 447 264 542 q 288 296 264 364 q 373 403 311 363 q 518 443 435 443 q 650 413 592 443 q 741 331 708 383 q 774 214 774 279 q 738 90 774 144 q 636 6 701 36 q 485 -25 571 -25 q 265 36 363 -25 q 113 205 168 97 q 58 447 58 313 q 124 699 58 588 q 307 874 189 811 q 578 938 425 938 m 511 293 q 452 270 475 293 q 429 211 429 247 q 452 152 429 175 q 511 129 475 129 q 569 153 546 129 q 592 211 592 176 q 569 269 592 246 q 511 293 546 293 m 2401 0 l 2401 560 l 2167 560 l 2167 0 l 1971 0 l 1971 713 l 2808 713 l 2831 560 l 2596 560 l 2596 0 l 2401 0 m 1511 638 q 1540 649 1529 638 q 1551 678 1551 660 q 1540 708 1551 696 q 1511 719 1529 719 q 1482 708 1493 719 q 1471 678 1471 696 q 1482 649 1471 660 q 1511 638 1493 638 m 1388 697 q 1358 686 1369 697 q 1347 657 1347 675 q 1358 628 1347 639 q 1388 617 1369 617 q 1417 628 1406 617 q 1428 657 1428 639 q 1417 686 1428 675 q 1388 697 1406 697 m 1636 617 q 1665 628 1654 617 q 1676 657 1676 639 q 1665 686 1676 675 q 1636 697 1654 697 q 1607 686 1618 697 q 1596 657 1596 675 q 1607 628 1596 639 q 1636 617 1618 617 m 1282 628 q 1252 616 1264 628 q 1240 586 1240 604 q 1252 557 1240 568 q 1282 546 1264 546 q 1311 557 1300 546 q 1322 586 1322 568 q 1311 616 1322 604 q 1282 628 1300 628 m 1742 546 q 1772 557 1760 546 q 1783 586 1783 568 q 1772 616 1783 604 q 1742 628 1760 628 q 1713 616 1724 628 q 1701 586 1701 604 q 1713 557 1701 568 q 1742 546 1724 546 m 1215 518 q 1185 506 1197 518 q 1174 476 1174 494 q 1185 447 1174 458 q 1215 436 1197 436 q 1244 447 1233 436 q 1256 476 1256 458 q 1244 506 1256 494 q 1215 518 1233 518 m 1808 436 q 1838 447 1826 436 q 1849 476 1849 458 q 1838 506 1849 494 q 1808 518 1826 518 q 1779 506 1790 518 q 1768 476 1768 494 q 1779 447 1768 458 q 1808 436 1790 436 m 1196 399 q 1166 387 1178 399 q 1154 357 1154 375 q 1166 328 1154 339 q 1196 318 1178 318 q 1225 328 1214 318 q 1236 357 1236 339 q 1225 387 1236 375 q 1196 399 1214 399 m 1828 318 q 1858 328 1846 318 q 1869 357 1869 339 q 1858 387 1869 375 q 1828 399 1846 399 q 1799 387 1810 399 q 1788 357 1788 375 q 1799 328 1788 339 q 1828 318 1810 318 m 1215 282 q 1185 271 1197 282 q 1174 242 1174 260 q 1185 213 1174 224 q 1215 201 1197 201 q 1244 213 1233 201 q 1256 242 1256 224 q 1244 271 1256 260 q 1215 282 1233 282 m 1808 201 q 1838 213 1826 201 q 1849 242 1849 224 q 1838 271 1849 260 q 1808 282 1826 282 q 1779 271 1790 282 q 1768 242 1768 260 q 1779 213 1768 224 q 1808 201 1790 201 m 1281 171 q 1251 160 1263 171 q 1239 131 1239 149 q 1251 101 1239 113 q 1281 90 1263 90 q 1310 101 1299 90 q 1321 131 1321 113 q 1310 160 1321 149 q 1281 171 1299 171 m 1743 90 q 1773 101 1761 90 q 1785 131 1785 113 q 1773 160 1785 149 q 1743 171 1761 171 q 1714 160 1725 171 q 1703 131 1703 149 q 1714 101 1703 113 q 1743 90 1725 90 m 1388 103 q 1358 91 1369 103 q 1347 61 1347 79 q 1358 32 1347 43 q 1388 21 1369 21 q 1417 32 1406 21 q 1428 61 1428 43 q 1417 91 1428 79 q 1388 103 1406 103 m 1636 21 q 1665 32 1654 21 q 1676 61 1676 43 q 1665 91 1676 79 q 1636 103 1654 103 q 1607 91 1618 103 q 1596 61 1596 79 q 1607 32 1596 43 q 1636 21 1618 21 m 1511 0 q 1540 11 1529 0 q 1551 40 1551 22 q 1540 70 1551 58 q 1511 82 1529 82 q 1482 70 1493 82 q 1471 40 1471 58 q 1482 11 1471 22 q 1511 0 1493 0 z "},"ோ":{"ha":2708,"x_min":58,"x_max":2667,"o":"m 682 425 q 799 399 747 425 q 881 325 851 372 q 910 219 910 278 q 867 94 910 150 q 748 7 825 39 q 574 -25 671 -25 q 302 38 419 -25 q 122 211 185 101 q 58 457 58 321 q 122 702 58 593 q 302 874 185 811 q 574 938 419 938 q 748 906 671 938 q 867 818 825 874 q 910 693 910 763 q 881 588 910 635 q 799 514 851 540 q 682 488 747 488 q 528 546 589 488 q 468 694 468 604 q 489 775 468 740 q 326 672 385 757 q 264 457 267 588 q 326 240 267 325 q 489 138 385 156 q 468 218 468 174 q 528 367 468 308 q 682 425 589 425 m 683 635 q 728 652 711 635 q 744 696 744 669 q 728 740 744 722 q 688 758 711 758 q 642 741 660 758 q 624 697 624 724 q 640 652 624 669 q 683 635 657 635 m 683 278 q 640 260 657 278 q 624 215 624 243 q 642 172 624 189 q 688 154 660 154 q 728 172 711 154 q 744 217 744 190 q 728 261 744 244 q 683 278 711 278 m 2238 0 l 2238 560 l 2003 560 l 2003 0 l 1807 0 l 1807 713 l 2644 713 l 2667 560 l 2432 560 l 2432 0 l 2238 0 m 1356 638 q 1385 649 1374 638 q 1396 678 1396 660 q 1385 708 1396 696 q 1356 719 1374 719 q 1326 708 1338 719 q 1315 678 1315 696 q 1326 649 1315 660 q 1356 638 1338 638 m 1232 697 q 1203 686 1214 697 q 1192 657 1192 675 q 1203 628 1192 639 q 1232 617 1214 617 q 1261 628 1250 617 q 1272 657 1272 639 q 1261 686 1272 675 q 1232 697 1250 697 m 1481 617 q 1510 628 1499 617 q 1521 657 1521 639 q 1510 686 1521 675 q 1481 697 1499 697 q 1451 686 1463 697 q 1440 657 1440 675 q 1451 628 1440 639 q 1481 617 1463 617 m 1126 628 q 1097 616 1108 628 q 1085 586 1085 604 q 1097 557 1085 568 q 1126 546 1108 546 q 1156 557 1144 546 q 1167 586 1167 568 q 1156 616 1167 604 q 1126 628 1144 628 m 1586 546 q 1616 557 1604 546 q 1628 586 1628 568 q 1616 616 1628 604 q 1586 628 1604 628 q 1557 616 1568 628 q 1546 586 1546 604 q 1557 557 1546 568 q 1586 546 1568 546 m 1060 518 q 1030 506 1042 518 q 1018 476 1018 494 q 1030 447 1018 458 q 1060 436 1042 436 q 1089 447 1078 436 q 1100 476 1100 458 q 1089 506 1100 494 q 1060 518 1078 518 m 1653 436 q 1682 447 1671 436 q 1693 476 1693 458 q 1682 506 1693 494 q 1653 518 1671 518 q 1624 506 1635 518 q 1613 476 1613 494 q 1624 447 1613 458 q 1653 436 1635 436 m 1040 399 q 1010 387 1022 399 q 999 357 999 375 q 1010 328 999 339 q 1040 318 1022 318 q 1069 328 1058 318 q 1081 357 1081 339 q 1069 387 1081 375 q 1040 399 1058 399 m 1672 318 q 1702 328 1690 318 q 1714 357 1714 339 q 1702 387 1714 375 q 1672 399 1690 399 q 1643 387 1654 399 q 1632 357 1632 375 q 1643 328 1632 339 q 1672 318 1654 318 m 1060 282 q 1030 271 1042 282 q 1018 242 1018 260 q 1030 213 1018 224 q 1060 201 1042 201 q 1089 213 1078 201 q 1100 242 1100 224 q 1089 271 1100 260 q 1060 282 1078 282 m 1653 201 q 1682 213 1671 201 q 1693 242 1693 224 q 1682 271 1693 260 q 1653 282 1671 282 q 1624 271 1635 282 q 1613 242 1613 260 q 1624 213 1613 224 q 1653 201 1635 201 m 1125 171 q 1095 160 1107 171 q 1083 131 1083 149 q 1095 101 1083 113 q 1125 90 1107 90 q 1154 101 1143 90 q 1165 131 1165 113 q 1154 160 1165 149 q 1125 171 1143 171 m 1588 90 q 1617 101 1606 90 q 1629 131 1629 113 q 1617 160 1629 149 q 1588 171 1606 171 q 1558 160 1569 171 q 1547 131 1547 149 q 1558 101 1547 113 q 1588 90 1569 90 m 1232 103 q 1203 91 1214 103 q 1192 61 1192 79 q 1203 32 1192 43 q 1232 21 1214 21 q 1261 32 1250 21 q 1272 61 1272 43 q 1261 91 1272 79 q 1232 103 1250 103 m 1481 21 q 1510 32 1499 21 q 1521 61 1521 43 q 1510 91 1521 79 q 1481 103 1499 103 q 1451 91 1463 103 q 1440 61 1440 79 q 1451 32 1440 43 q 1481 21 1463 21 m 1356 0 q 1385 11 1374 0 q 1396 40 1396 22 q 1385 70 1396 58 q 1356 82 1374 82 q 1326 70 1338 82 q 1315 40 1315 58 q 1326 11 1315 22 q 1356 0 1338 0 z "},"ு":{"ha":656,"x_min":-304,"x_max":629,"o":"m 339 713 q 488 682 422 713 q 592 597 554 651 q 629 472 629 542 q 596 353 629 406 q 503 270 563 300 q 368 240 443 240 q 236 269 294 240 q 145 351 178 299 q 113 469 113 404 q 133 560 113 518 l -304 560 l -304 713 l 339 713 m 365 392 q 425 415 401 392 q 449 475 449 439 q 425 536 449 513 q 365 560 401 560 q 305 536 329 560 q 281 475 281 513 q 305 415 281 439 q 365 392 329 392 z "},"ூ":{"ha":1004,"x_min":-304,"x_max":978,"o":"m 542 850 q 765 800 665 850 q 922 660 865 750 q 978 460 978 571 q 915 246 978 340 q 737 99 853 151 q 468 46 621 46 l 372 46 l 372 199 l 468 199 q 631 232 563 199 q 736 324 700 265 q 772 460 772 383 q 708 630 772 564 q 540 696 644 696 q 474 690 515 696 q 587 603 544 661 q 629 472 629 546 q 596 353 629 406 q 503 270 563 300 q 368 240 443 240 q 236 271 294 240 q 145 355 178 301 q 113 475 113 408 q 122 560 113 522 l -304 560 l -304 713 l 201 713 q 348 814 260 778 q 542 850 436 850 m 365 392 q 425 415 401 392 q 449 475 449 439 q 424 536 449 513 q 357 560 399 560 l 296 560 q 281 482 281 522 q 303 417 281 442 q 365 392 326 392 z "},"ஂ":{"ha":0,"x_min":-193,"x_max":194,"o":"m 0 886 q 98 911 53 886 q 169 978 143 936 q 194 1071 194 1021 q 169 1167 194 1124 q 98 1235 143 1210 q 0 1260 53 1260 q -97 1235 -53 1260 q -167 1167 -142 1210 q -193 1071 -193 1124 q -167 978 -193 1021 q -97 911 -142 936 q 0 886 -53 886 m 0 1018 q -39 1033 -24 1018 q -54 1072 -54 1049 q -39 1113 -54 1097 q 0 1128 -24 1128 q 41 1113 25 1128 q 57 1072 57 1097 q 40 1033 57 1049 q 0 1018 24 1018 z "},"்":{"ha":0,"x_min":-112,"x_max":115,"o":"m 0 886 q 83 919 51 886 q 115 1000 115 951 q 83 1082 115 1050 q 0 1114 51 1114 q -81 1082 -49 1114 q -112 1000 -112 1050 q -81 919 -112 951 q 0 886 -49 886 z "},"ீ":{"ha":0,"x_min":-596,"x_max":158,"o":"m -190 1219 q -13 1185 -93 1219 q 113 1088 67 1150 q 158 949 158 1025 q 102 813 158 867 q -40 760 46 760 q -183 813 -126 760 q -239 946 -239 865 q -199 1063 -239 1014 q -345 1013 -292 1061 q -399 889 -399 965 q -353 761 -399 810 q -229 713 -307 713 l -229 567 q -421 608 -337 567 q -550 722 -504 649 q -596 889 -596 796 q -546 1060 -596 985 q -404 1177 -496 1135 q -190 1219 -312 1219 m -40 886 q 1 903 -15 886 q 18 944 18 919 q 1 985 18 968 q -40 1001 -15 1001 q -82 985 -65 1001 q -99 944 -99 968 q -82 903 -99 919 q -40 886 -65 886 z "}}}
